<svg width="82" height="29" viewBox="0 0 82 29" fill="none" xmlns="http://www.w3.org/2000/svg">
<path d="M80.688 27.588C80.952 27.588 81.168 27.498 81.336 27.318C81.504 27.138 81.588 26.928 81.588 26.688V21.936C81.588 21.672 81.504 21.45 81.336 21.27C81.168 21.09 80.952 21 80.688 21H75.936C75.672 21 75.45 21.09 75.27 21.27C75.09 21.45 75 21.672 75 21.936V26.688C75 26.952 75.09 27.168 75.27 27.336C75.45 27.504 75.672 27.588 75.936 27.588H80.688Z" fill="#FF4C60"/>
<path d="M7.59 28.3C5.63 28.3 4.1 27.69 3 26.47C1.92 25.23 1.33 23.49 1.23 21.25L1.2 20.2L1.23 19.12C1.31 16.96 1.9 15.25 3 13.99C4.12 12.73 5.65 12.1 7.59 12.1C9.41 12.1 10.88 12.69 12 13.87V7.45C12 7.23 12.07 7.05 12.21 6.91C12.35 6.77 12.53 6.7 12.75 6.7H16.41C16.63 6.7 16.81 6.77 16.95 6.91C17.09 7.05 17.16 7.23 17.16 7.45V27.25C17.16 27.45 17.09 27.63 16.95 27.79C16.81 27.93 16.63 28 16.41 28H13.02C12.82 28 12.64 27.93 12.48 27.79C12.34 27.63 12.27 27.45 12.27 27.25V26.29C11.17 27.63 9.61 28.3 7.59 28.3ZM9.24 24.28C10.14 24.28 10.81 24 11.25 23.44C11.69 22.86 11.94 22.12 12 21.22C12.02 20.96 12.03 20.58 12.03 20.08C12.03 19.6 12.02 19.23 12 18.97C11.96 18.15 11.71 17.47 11.25 16.93C10.79 16.39 10.12 16.12 9.24 16.12C8.3 16.12 7.62 16.4 7.2 16.96C6.8 17.52 6.57 18.29 6.51 19.27C6.49 19.47 6.48 19.78 6.48 20.2C6.48 20.62 6.49 20.93 6.51 21.13C6.57 22.11 6.8 22.88 7.2 23.44C7.62 24 8.3 24.28 9.24 24.28ZM26.2458 28C25.9658 28 25.7458 27.94 25.5858 27.82C25.4458 27.68 25.3258 27.49 25.2258 27.25L19.5558 13.33L19.4958 13.06C19.4958 12.88 19.5558 12.73 19.6758 12.61C19.8158 12.47 19.9858 12.4 20.1858 12.4H23.5758C24.0158 12.4 24.3058 12.61 24.4458 13.03L27.8358 22.24L31.2558 13.03C31.3958 12.61 31.6858 12.4 32.1258 12.4H35.5158C35.6958 12.4 35.8558 12.47 35.9958 12.61C36.1358 12.73 36.2058 12.88 36.2058 13.06L36.1458 13.33L30.4758 27.25C30.3758 27.49 30.2458 27.68 30.0858 27.82C29.9258 27.94 29.7058 28 29.4258 28H26.2458ZM48.0776 28.3C46.0776 28.3 44.5276 27.63 43.4276 26.29V27.25C43.4276 27.45 43.3576 27.63 43.2176 27.79C43.0776 27.93 42.8976 28 42.6776 28H39.2876C39.0876 28 38.9076 27.93 38.7476 27.79C38.6076 27.63 38.5376 27.45 38.5376 27.25V7.45C38.5376 7.23 38.6076 7.05 38.7476 6.91C38.9076 6.77 39.0876 6.7 39.2876 6.7H42.9476C43.1676 6.7 43.3476 6.77 43.4876 6.91C43.6276 7.05 43.6976 7.23 43.6976 7.45V13.87C44.8176 12.69 46.2776 12.1 48.0776 12.1C50.0176 12.1 51.5476 12.73 52.6676 13.99C53.7876 15.25 54.3876 16.96 54.4676 19.12C54.4876 19.38 54.4976 19.74 54.4976 20.2C54.4976 20.64 54.4876 20.99 54.4676 21.25C54.3676 23.49 53.7676 25.23 52.6676 26.47C51.5676 27.69 50.0376 28.3 48.0776 28.3ZM46.4576 24.28C47.3976 24.28 48.0676 24 48.4676 23.44C48.8876 22.88 49.1276 22.11 49.1876 21.13C49.2276 20.73 49.2476 20.42 49.2476 20.2C49.2476 19.98 49.2276 19.67 49.1876 19.27C49.1276 18.29 48.8876 17.52 48.4676 16.96C48.0676 16.4 47.3976 16.12 46.4576 16.12C45.5776 16.12 44.9076 16.39 44.4476 16.93C43.9876 17.47 43.7376 18.15 43.6976 18.97L43.6676 20.08L43.6976 21.22C43.7576 22.12 43.9976 22.86 44.4176 23.44C44.8576 24 45.5376 24.28 46.4576 24.28ZM65.3555 28C61.2155 28 59.1455 26.03 59.1455 22.09V16.33H56.8055C56.5855 16.33 56.3955 16.26 56.2355 16.12C56.0955 15.98 56.0255 15.8 56.0255 15.58V13.15C56.0255 12.93 56.0955 12.75 56.2355 12.61C56.3955 12.47 56.5855 12.4 56.8055 12.4H59.1455V7.45C59.1455 7.23 59.2155 7.05 59.3555 6.91C59.5155 6.77 59.6955 6.7 59.8955 6.7H63.3755C63.5955 6.7 63.7755 6.77 63.9155 6.91C64.0555 7.05 64.1255 7.23 64.1255 7.45V12.4H67.8755C68.0955 12.4 68.2755 12.47 68.4155 12.61C68.5755 12.75 68.6555 12.93 68.6555 13.15V15.58C68.6555 15.8 68.5755 15.98 68.4155 16.12C68.2755 16.26 68.0955 16.33 67.8755 16.33H64.1255V21.67C64.1255 23.15 64.6955 23.89 65.8355 23.89H68.1455C68.3655 23.89 68.5455 23.96 68.6855 24.1C68.8255 24.24 68.8955 24.42 68.8955 24.64V27.25C68.8955 27.45 68.8255 27.63 68.6855 27.79C68.5455 27.93 68.3655 28 68.1455 28H65.3555Z" fill="#353353"/>
</svg>
