<?xml version="1.0" encoding="utf-8"?><svg version="1.1" id="Layer_1" xmlns="http://www.w3.org/2000/svg" xmlns:xlink="http://www.w3.org/1999/xlink" x="0px" y="0px"
	 viewBox="0 0 110.2 32" style="enable-background:new 0 0 110.2 32;" xml:space="preserve"><style type="text/css">
	.st0{fill:#1EA7AA;}
</style><path class="st0" d="M34.8,15.9c0-2.8,0.7-5,2.2-6.7s3.4-2.5,5.8-2.5c0.8,0,1.5,0.1,2.1,0.3c0.7,0.2,1.2,0.4,1.6,0.7
	c0.4,0.3,0.7,0.6,1,0.8C47.8,8.8,48,9,48.1,9.2l0.1,0.3h0.1c0-0.3-0.1-0.7-0.1-1.2V0.1h3.4v24.6h-3.2V23v-1.2h-0.1
	c0,0.1-0.1,0.2-0.2,0.3c-0.1,0.1-0.3,0.4-0.6,0.8s-0.7,0.7-1.1,1c-0.4,0.3-1,0.6-1.7,0.8S43.2,25,42.4,25c-2.4,0-4.3-0.8-5.7-2.5
	C35.5,20.9,34.8,18.6,34.8,15.9z M38.2,15.9c0,1.9,0.5,3.4,1.4,4.6s2.1,1.7,3.6,1.7c1.4,0,2.7-0.5,3.6-1.6c1-1.1,1.5-2.6,1.5-4.8
	c0-1.7-0.4-3.2-1.3-4.4c-0.9-1.2-2.1-1.9-3.7-1.9c-1.4,0-2.7,0.6-3.6,1.7C38.7,12.4,38.2,13.9,38.2,15.9z"/><path class="st0" d="M54.4,3.5V0h3.4v3.5H54.4z M54.5,24.7V7h3.4v17.7H54.5z"/><path class="st0" d="M63,27.9c1.5,0.8,3.1,1.2,4.8,1.2c1.7,0,3-0.4,4-1.2s1.5-2.1,1.5-3.8v-1.3v-1.1h-0.1c-1.1,1.8-2.8,2.8-5.2,2.8
	c-2.4,0-4.3-0.9-5.7-2.6s-2.1-3.9-2.1-6.5s0.7-4.7,2.1-6.4c1.4-1.6,3.3-2.5,5.7-2.5c0.8,0,1.5,0.1,2.2,0.3c0.7,0.2,1.2,0.4,1.6,0.7
	c0.4,0.3,0.7,0.5,1,0.8s0.5,0.5,0.6,0.7l0.2,0.2h0.1c0-0.2,0-0.3,0-0.6V7h3.2v16.9c0,1.4-0.3,2.6-0.7,3.7c-0.5,1.1-1.2,1.9-2,2.5
	c-1,0.7-2,1.2-3,1.5s-2.1,0.5-3.3,0.5c-2.1,0-4.1-0.5-6-1.5L63,27.9z M68.8,21.5c1.4,0,2.5-0.5,3.4-1.4c0.9-1,1.3-2.5,1.3-4.6
	c0-4-1.7-5.9-5-5.9c-1.5,0-2.7,0.5-3.5,1.6c-0.8,1-1.3,2.5-1.3,4.3c0,1.9,0.5,3.4,1.4,4.5C66,21,67.3,21.5,68.8,21.5z"/><path class="st0" d="M79.6,3.5V0H83v3.5H79.6z M79.7,24.7V7h3.4v17.7H79.7z"/><path class="st0" d="M85.5,15.9c0-2.6,0.9-4.8,2.7-6.6c1.8-1.8,4-2.7,6.8-2.7c1.3,0,2.5,0.2,3.6,0.6s1.9,0.9,2.4,1.3l0.7,0.6
	l-1.6,2.4c-0.1-0.1-0.3-0.3-0.6-0.6c-0.3-0.2-0.8-0.5-1.7-0.9c-0.8-0.4-1.7-0.6-2.6-0.6c-1.8,0-3.2,0.6-4.4,1.8
	c-1.2,1.2-1.7,2.7-1.7,4.5s0.6,3.3,1.8,4.5c1.2,1.2,2.7,1.8,4.5,1.8c1,0,1.9-0.2,2.8-0.6s1.6-0.8,2-1.2l0.6-0.6l1.4,2.5
	c-0.1,0.1-0.2,0.2-0.3,0.3c-0.1,0.1-0.4,0.4-0.9,0.7c-0.4,0.3-0.9,0.6-1.4,0.9c-0.5,0.2-1.2,0.5-2,0.7S96,25,95.1,25
	c-2.8,0-5-0.9-6.8-2.6C86.4,20.7,85.5,18.5,85.5,15.9z"/><g><path class="st0" d="M106.1,0c-1.9,0-3.5,1.5-3.5,3.5c0,1.9,1.5,3.5,3.5,3.5c1.9,0,3.5-1.6,3.5-3.5S108,0,106.1,0 M106.1,6.3
		c-1.5,0-2.8-1.2-2.8-2.8c0-1.5,1.2-2.8,2.8-2.8c1.5,0,2.8,1.2,2.8,2.8C108.9,5,107.7,6.3,106.1,6.3"/><g><path class="st0" d="M104.9,5.4V1.6h1.2c0.3,0,0.6,0,0.7,0.1c0.2,0.1,0.4,0.2,0.5,0.4s0.2,0.4,0.2,0.7c0,0.2-0.1,0.5-0.2,0.6
			c-0.1,0.2-0.3,0.3-0.5,0.4l0,0c0,0,0.1,0.1,0.1,0.2l0.8,1.5h-0.6L106.3,4h-0.8v1.5L104.9,5.4L104.9,5.4z M105.5,3.4h0.8
			c0.2,0,0.4-0.1,0.5-0.2s0.2-0.3,0.2-0.5c0-0.3-0.1-0.5-0.3-0.6C106.6,2,106.4,2,106.2,2h-0.6L105.5,3.4L105.5,3.4z"/></g></g><path class="st0" d="M10.6,11.7c1.5-1.6,3.7-2.4,5.9-2c2.6,0.4,4.4,2.6,4.4,5.2c1.3-4.4-3.8-6.4-3.8-6.4c5.8,1.8,5.1,6.5,5.1,6.5
	c-0.2,1.7-1.2,3.2-2.7,4c4.6-1,3.7-6.3,3.7-6.3c0.9,5.2-1.7,6.7-3.1,7.5c-1.5,0.7-3.4,0.6-4.8-0.3c3.5,3.4,7.4,0,7.4,0
	c-3.2,3.1-6.3,2-6.3,2c-2.4-0.5-4-2.6-4-5c-1.3,4.4,3.7,6.3,3.7,6.3c-2.2-0.5-3.9-2.1-4.7-4.1c-1.3-5,2.3-6.3,2.3-6.3
	c-4.5,1-3.7,6.2-3.7,6.2c-0.6-2-0.2-4.1,1-5.8c1.6-2.1,4.6-2.7,6.9-1.4c-3.4-3.4-7.4,0-7.4,0 M20.1,28c3.7-0.3,10.6-1.4,13.1-13.1
	c0,0-3.3,13.7-14.2,10.8c0,0,7.1-1.1,9.9-6.9c0,0,5.5-9.3-5-18.1c0,0,10.2,9.9,2.5,17.9c0,0,4-9.8-4.9-15.8c0,0-5.5-4.3-14.2-0.8
	c0,0,13.2-4.2,16.5,6.7c0,0-6.8-8.2-16.7-3.3c0,0-5.9,2.9-7.3,11.4C0,16.6,3.3,3,14,6c0,0-9.6,0.4-11.1,11.9
	C2.7,23,5.1,27.8,9.2,30.8c0,0-10.2-9.7-2.5-17.5c-2,5.4-0.3,11.6,4.3,15.2c0,0,5.5,5,14.9,1.3c0,0-13.1,4.3-16.5-6.8
	C9.3,22.9,13.8,28.6,20.1,28"/></svg>
