<svg id="Layer_1" data-name="Layer 1" xmlns="http://www.w3.org/2000/svg" viewBox="0 0 853.4 301.33"><defs><style>.cls-1,.cls-2{fill:#179c49;}.cls-1{fill-rule:evenodd;}.cls-2{stroke:#179c49;stroke-miterlimit:10;stroke-width:3px;}</style></defs><path class="cls-1" d="M59.71,109.89H44.29l37.42,37,37.42-36.95H104.6V100.3h17.06q13.32,0,21.19,5.66c6.07,4.3,9.08,10.66,9.08,19.12q0,22-21.62,25.58v.21H128.9a57.79,57.79,0,0,1-7.69.48H104.6v-.48H59.71v91.7H104.6V183.4h.5l42.33,59.17h53.48l-49.72-62.44c14.12-2.23,25.36-9,33.66-20.07q12-15.74,12-37.62,0-32-22.63-50.1-10.53-8.48-27-11.27a113.9,113.9,0,0,0-14.78-1.57c-3.72-.21-8.63-.33-14.74-.33h-58ZM217.77,58.76H355.38V99.82H260.44v27.56h36.84v38.9H260.44v35.51h57.5V185.6H299.23l37.42-42.8,37.42,42.8H355.36v16.19h0v40.78H217.77Z"/><path class="cls-2" d="M786.24,213.62h22.14a30.8,30.8,0,0,1-13,21c-7.36,5.3-16.45,7.94-27.35,7.94q-20.37,0-32-12.19t-11.61-33.52q0-21.21,11.55-33.85t31.13-12.68q19.21,0,30.61,12.06t11.38,32.25V202h-61v1.49q0,9.47,5.58,15.38t14.73,5.91a21,21,0,0,0,11.38-3,14.86,14.86,0,0,0,6.42-8.14m-18.87-45.46a17.53,17.53,0,0,0-13.1,5.35,21.23,21.23,0,0,0-5.88,13.72h37.54q-.42-8.53-5.49-13.8A17.33,17.33,0,0,0,767.37,168.16Zm-98.3,72.53V152.22h23.27v15.94h.5c1.55-5.6,4.14-9.91,7.75-12.87a20.23,20.23,0,0,1,13.29-4.45,23.44,23.44,0,0,1,6.85.9V173a22.55,22.55,0,0,0-8.73-1.41q-8.93,0-13.86,5.18c-3.33,3.5-5,8.31-5,14.54v49.43Zm-66.24,1.4q-12.81,0-21.21-7.51a24.73,24.73,0,0,1-8.43-19.3c0-8.05,3-14.33,8.93-18.9s14.42-7.18,25.49-7.86l22.28-1.29v-5.86c0-4.08-1.32-7.27-4-9.58s-6.28-3.46-10.84-3.46-8,1-10.79,3a12.2,12.2,0,0,0-5.07,8h-22a27,27,0,0,1,11.12-21q10.49-8,27.83-8,17,0,27.21,8.09t10.25,21.46v60.81H630.31V227.17h-.5a26.07,26.07,0,0,1-11.07,10.93A33.26,33.26,0,0,1,602.83,242.09Zm7.91-17.4A20.5,20.5,0,0,0,624.32,220a14.64,14.64,0,0,0,5.57-11.74v-6.45L611.25,203q-6.76.51-10.45,3.38a9.21,9.21,0,0,0-3.66,7.61,9.4,9.4,0,0,0,3.71,7.83C603.33,223.7,606.63,224.69,610.74,224.69Zm-132.35,16V121.6h23.69V168h.48a27.52,27.52,0,0,1,10.7-12.93,31.58,31.58,0,0,1,17.12-4.48q14.58,0,22.73,8.88t8.11,24.28v56.95H537.14V188.86c0-5.77-1.4-10.28-4.25-13.49s-7-4.82-12.34-4.82q-8.4,0-13.23,5.41c-3.24,3.61-4.85,8.34-4.85,14.23v50.5Zm-89.12-62.47A24.12,24.12,0,0,1,399.41,158q10.14-7.64,27.15-7.63,16.57,0,26.65,7.75a25.47,25.47,0,0,1,10.31,20.64h-22.2a11.21,11.21,0,0,0-4.39-8.42q-4-3-10.7-3c-4.17,0-7.52.84-10,2.59a8,8,0,0,0-3.75,6.87c0,4.31,3.86,7.35,11.55,9.18l16.93,3.64q13.26,3,19.1,8.62c3.85,3.77,5.8,9,5.8,15.54q0,13.06-10.87,21t-28.48,7.91c-11.66,0-21-2.56-28-7.74A27.4,27.4,0,0,1,387.05,214h23.49a12.65,12.65,0,0,0,5.18,8.64q4.23,3.09,11.41,3.08c4.56,0,8.17-.85,10.78-2.54a7.8,7.8,0,0,0,3.92-6.87,6.6,6.6,0,0,0-2.48-5.41c-1.66-1.35-4.45-2.51-8.42-3.44l-16.34-3.63Q389.24,198,389.27,178.22Z"/></svg>