<svg width="249" height="76" viewBox="0 0 249 76" fill="none" xmlns="http://www.w3.org/2000/svg">
<path d="M19.0918 9.375V22.168H28.9551V29.1504H19.0918V61.9141C19.0918 64.0299 19.5312 65.625 20.4102 66.6992C21.2891 67.7409 22.7865 68.2617 24.9023 68.2617C25.944 68.2617 27.3763 68.0664 29.1992 67.6758V75C26.8229 75.651 24.5117 75.9766 22.2656 75.9766C18.2292 75.9766 15.1855 74.7559 13.1348 72.3145C11.084 69.873 10.0586 66.4062 10.0586 61.9141V29.1504H0.439453V22.168H10.0586V9.375H19.0918ZM36.1816 48.0957C36.1816 42.9199 37.1908 38.265 39.209 34.1309C41.2598 29.9967 44.0918 26.8066 47.7051 24.5605C51.3509 22.3145 55.5013 21.1914 60.1562 21.1914C67.3503 21.1914 73.1608 23.6816 77.5879 28.6621C82.0475 33.6426 84.2773 40.2669 84.2773 48.5352V49.1699C84.2773 54.3132 83.2845 58.9355 81.2988 63.0371C79.3457 67.1061 76.5299 70.2799 72.8516 72.5586C69.2057 74.8372 65.0065 75.9766 60.2539 75.9766C53.0924 75.9766 47.2819 73.4863 42.8223 68.5059C38.3952 63.5254 36.1816 56.9336 36.1816 48.7305V48.0957ZM45.2637 49.1699C45.2637 55.0293 46.6146 59.7331 49.3164 63.2812C52.0508 66.8294 55.6966 68.6035 60.2539 68.6035C64.8438 68.6035 68.4896 66.8132 71.1914 63.2324C73.8932 59.6191 75.2441 54.5736 75.2441 48.0957C75.2441 42.3014 73.8607 37.6139 71.0938 34.0332C68.3594 30.4199 64.7135 28.6133 60.1562 28.6133C55.6966 28.6133 52.0996 30.3874 49.3652 33.9355C46.6309 37.4837 45.2637 42.5618 45.2637 49.1699ZM93.4082 48.1445C93.4082 40.0391 95.3288 33.5286 99.1699 28.6133C103.011 23.6654 108.04 21.1914 114.258 21.1914C120.443 21.1914 125.342 23.3073 128.955 27.5391V0H137.988V75H129.688L129.248 69.3359C125.635 73.763 120.605 75.9766 114.16 75.9766C108.04 75.9766 103.044 73.4701 99.1699 68.457C95.3288 63.444 93.4082 56.901 93.4082 48.8281V48.1445ZM102.441 49.1699C102.441 55.1595 103.678 59.847 106.152 63.2324C108.626 66.6178 112.044 68.3105 116.406 68.3105C122.135 68.3105 126.318 65.7389 128.955 60.5957V36.3281C126.253 31.3477 122.103 28.8574 116.504 28.8574C112.077 28.8574 108.626 30.5664 106.152 33.9844C103.678 37.4023 102.441 42.4642 102.441 49.1699ZM149.658 48.0957C149.658 42.9199 150.667 38.265 152.686 34.1309C154.736 29.9967 157.568 26.8066 161.182 24.5605C164.827 22.3145 168.978 21.1914 173.633 21.1914C180.827 21.1914 186.637 23.6816 191.064 28.6621C195.524 33.6426 197.754 40.2669 197.754 48.5352V49.1699C197.754 54.3132 196.761 58.9355 194.775 63.0371C192.822 67.1061 190.007 70.2799 186.328 72.5586C182.682 74.8372 178.483 75.9766 173.73 75.9766C166.569 75.9766 160.758 73.4863 156.299 68.5059C151.872 63.5254 149.658 56.9336 149.658 48.7305V48.0957ZM158.74 49.1699C158.74 55.0293 160.091 59.7331 162.793 63.2812C165.527 66.8294 169.173 68.6035 173.73 68.6035C178.32 68.6035 181.966 66.8132 184.668 63.2324C187.37 59.6191 188.721 54.5736 188.721 48.0957C188.721 42.3014 187.337 37.6139 184.57 34.0332C181.836 30.4199 178.19 28.6133 173.633 28.6133C169.173 28.6133 165.576 30.3874 162.842 33.9355C160.107 37.4837 158.74 42.5618 158.74 49.1699ZM239.844 60.9863C239.844 58.5449 238.916 56.6569 237.061 55.3223C235.238 53.9551 232.031 52.7832 227.441 51.8066C222.884 50.8301 219.255 49.6582 216.553 48.291C213.883 46.9238 211.898 45.2962 210.596 43.4082C209.326 41.5202 208.691 39.2741 208.691 36.6699C208.691 32.3405 210.514 28.6784 214.16 25.6836C217.839 22.6888 222.526 21.1914 228.223 21.1914C234.212 21.1914 239.062 22.7376 242.773 25.8301C246.517 28.9225 248.389 32.8776 248.389 37.6953H239.307C239.307 35.2214 238.249 33.0892 236.133 31.2988C234.049 29.5085 231.413 28.6133 228.223 28.6133C224.935 28.6133 222.363 29.3294 220.508 30.7617C218.652 32.194 217.725 34.0658 217.725 36.377C217.725 38.5579 218.587 40.2018 220.312 41.3086C222.038 42.4154 225.146 43.4733 229.639 44.4824C234.163 45.4915 237.826 46.696 240.625 48.0957C243.424 49.4954 245.492 51.1882 246.826 53.1738C248.193 55.127 248.877 57.5195 248.877 60.3516C248.877 65.0716 246.989 68.8639 243.213 71.7285C239.437 74.5605 234.538 75.9766 228.516 75.9766C224.284 75.9766 220.54 75.2279 217.285 73.7305C214.03 72.2331 211.475 70.1497 209.619 67.4805C207.796 64.7786 206.885 61.8652 206.885 58.7402H215.918C216.081 61.7676 217.285 64.1764 219.531 65.9668C221.81 67.7246 224.805 68.6035 228.516 68.6035C231.934 68.6035 234.668 67.9199 236.719 66.5527C238.802 65.153 239.844 63.2975 239.844 60.9863Z" fill="#AF2F2F" fill-opacity="0.15"/>
</svg>
