<svg width="293" height="242" viewBox="0 0 293 242" fill="none" xmlns="http://www.w3.org/2000/svg">
<path d="M186 76L146.95 36.9497C144.216 34.2161 139.784 34.2161 137.05 36.9498L98 76" stroke="#689B79" stroke-width="8" stroke-linecap="round"/>
<path d="M98 76V136C98 139.866 101.134 143 105 143H179C182.866 143 186 139.866 186 136V76" stroke="#689B79" stroke-width="8" stroke-linecap="round"/>
<circle cx="142" cy="109" r="10" fill="#689B79"/>
<path fill-rule="evenodd" clip-rule="evenodd" d="M201.513 20.1657C195.978 15.5375 189.819 12.437 182.95 10.8202C178.715 9.82344 172.802 9.41003 171.655 10.0306C170.46 10.6763 169.636 11.9328 169.609 13.1503C169.586 14.1899 169.823 14.7159 170.718 15.611C171.696 16.59 171.878 16.6525 173.982 16.7298C182.008 17.0244 189.058 19.4931 195.477 24.2567C197.206 25.539 201.177 29.5102 202.459 31.2382C207.269 37.7198 209.754 44.8536 209.994 52.8608C210.047 54.6203 210.166 55.0082 210.924 55.871C212.331 57.4727 214.416 57.5438 215.918 56.0413C216.814 55.1452 217.009 54.4904 216.975 52.492C216.814 43.1726 213.633 34.3641 207.578 26.4728C206.552 25.1364 202.838 21.2741 201.513 20.1657ZM193.159 30.5519C187.769 25.8263 180.621 23.0725 173.624 23.0253C172.012 23.0144 171.351 23.2787 170.482 24.2822C169.829 25.0359 169.575 25.7446 169.622 26.6764C169.67 27.6342 169.929 28.2063 170.646 28.9394C171.463 29.7766 172.06 29.9863 173.833 30.061C177.467 30.2141 180.579 31.0019 183.656 32.5485C188.297 34.8804 191.859 38.4406 194.169 43.0565C195.731 46.1789 196.497 49.1686 196.661 52.7894C196.746 54.668 196.949 55.2691 197.772 56.0749C198.501 56.7897 199.068 57.0446 200.039 57.0938C201.134 57.1494 201.693 56.917 202.574 56.0411C203.586 55.0339 203.773 54.4486 203.687 52.5452C203.361 45.2544 200.779 38.8139 196.01 33.3952C195.295 32.5825 194.604 31.824 194.476 31.7095C194.347 31.5951 193.755 31.0742 193.159 30.5519ZM183.939 39.8794C181.056 37.6433 177.818 36.41 174.107 36.1347C173.125 36.0619 172.648 36.1058 171.988 36.3302C171.21 36.595 171.086 36.6783 170.537 37.3033C169.82 38.1212 169.573 38.7895 169.623 39.7781C169.673 40.7609 169.915 41.2945 170.64 42.024C171.436 42.8236 172.065 43.0645 173.584 43.15C177.999 43.3988 181.639 46.1528 183.04 50.304C183.236 50.8855 183.437 51.8378 183.486 52.4201C183.645 54.2831 183.729 54.6977 184.078 55.3325C185.235 57.4387 188.154 57.707 189.733 55.8523C190.415 55.0506 190.583 54.4293 190.547 52.8432C190.478 49.7994 189.463 46.6684 187.665 43.9497C186.854 42.7249 185.011 40.7103 183.939 39.8794Z" fill="#689B79"/>
<path d="M23.335 218.928C23.335 217.434 22.8076 216.291 21.7529 215.5C20.6982 214.691 18.7998 213.848 16.0576 212.969C13.3154 212.072 11.1445 211.193 9.54492 210.332C5.18555 207.977 3.00586 204.804 3.00586 200.813C3.00586 198.739 3.58594 196.894 4.74609 195.276C5.92383 193.642 7.60254 192.367 9.78223 191.453C11.9795 190.539 14.4404 190.082 17.165 190.082C19.9072 190.082 22.3506 190.583 24.4951 191.585C26.6396 192.569 28.3008 193.967 29.4785 195.777C30.6738 197.588 31.2715 199.645 31.2715 201.947H23.3613C23.3613 200.189 22.8076 198.827 21.7002 197.86C20.5928 196.876 19.0371 196.384 17.0332 196.384C15.0996 196.384 13.5967 196.797 12.5244 197.623C11.4521 198.432 10.916 199.504 10.916 200.84C10.916 202.088 11.54 203.134 12.7881 203.978C14.0537 204.821 15.9082 205.612 18.3516 206.351C22.8516 207.704 26.1299 209.383 28.1865 211.387C30.2432 213.391 31.2715 215.887 31.2715 218.875C31.2715 222.197 30.0146 224.808 27.501 226.706C24.9873 228.587 21.6035 229.527 17.3496 229.527C14.3965 229.527 11.707 228.991 9.28125 227.919C6.85547 226.829 5.00098 225.344 3.71777 223.463C2.45215 221.582 1.81934 219.402 1.81934 216.924H9.75586C9.75586 221.16 12.2871 223.278 17.3496 223.278C19.2305 223.278 20.6982 222.9 21.7529 222.145C22.8076 221.371 23.335 220.299 23.335 218.928ZM43.2949 200.471L43.5322 203.661C45.5537 201.183 48.2871 199.943 51.7324 199.943C55.4062 199.943 57.9287 201.394 59.2998 204.294C61.3037 201.394 64.1602 199.943 67.8691 199.943C70.9629 199.943 73.2656 200.849 74.7773 202.659C76.2891 204.452 77.0449 207.159 77.0449 210.78V229H69.3984V210.807C69.3984 209.189 69.082 208.012 68.4492 207.273C67.8164 206.518 66.7002 206.14 65.1006 206.14C62.8154 206.14 61.2334 207.229 60.3545 209.409L60.3809 229H52.7607V210.833C52.7607 209.181 52.4355 207.985 51.7852 207.247C51.1348 206.509 50.0273 206.14 48.4629 206.14C46.3008 206.14 44.7363 207.036 43.7695 208.829V229H36.1494V200.471H43.2949ZM99.457 229C99.1055 228.314 98.8506 227.462 98.6924 226.442C96.8467 228.499 94.4473 229.527 91.4941 229.527C88.6992 229.527 86.3789 228.719 84.5332 227.102C82.7051 225.484 81.791 223.445 81.791 220.984C81.791 217.961 82.9072 215.641 85.1396 214.023C87.3896 212.406 90.6328 211.589 94.8691 211.571H98.376V209.937C98.376 208.618 98.0332 207.563 97.3477 206.772C96.6797 205.981 95.6162 205.586 94.1572 205.586C92.874 205.586 91.8633 205.894 91.125 206.509C90.4043 207.124 90.0439 207.968 90.0439 209.04H82.4238C82.4238 207.388 82.9336 205.858 83.9531 204.452C84.9727 203.046 86.4141 201.947 88.2773 201.156C90.1406 200.348 92.2324 199.943 94.5527 199.943C98.0684 199.943 100.854 200.831 102.911 202.606C104.985 204.364 106.022 206.843 106.022 210.042V222.408C106.04 225.115 106.418 227.163 107.156 228.552V229H99.457ZM93.1553 223.7C94.2803 223.7 95.3174 223.454 96.2666 222.962C97.2158 222.452 97.9189 221.775 98.376 220.932V216.027H95.5283C91.7139 216.027 89.6836 217.346 89.4375 219.982L89.4111 220.431C89.4111 221.38 89.7451 222.162 90.4131 222.777C91.0811 223.393 91.9951 223.7 93.1553 223.7ZM127.907 207.616C126.87 207.476 125.956 207.405 125.165 207.405C122.282 207.405 120.393 208.381 119.496 210.332V229H111.876V200.471H119.074L119.285 203.872C120.814 201.253 122.933 199.943 125.64 199.943C126.483 199.943 127.274 200.058 128.013 200.286L127.907 207.616ZM142.04 193.457V200.471H146.918V206.061H142.04V220.299C142.04 221.354 142.242 222.109 142.646 222.566C143.051 223.023 143.824 223.252 144.967 223.252C145.811 223.252 146.558 223.19 147.208 223.067V228.842C145.714 229.299 144.176 229.527 142.594 229.527C137.25 229.527 134.525 226.829 134.42 221.433V206.061H130.254V200.471H134.42V193.457H142.04ZM181.538 229H178.269V210.596H156.331V229H153.088V190.609H156.331V207.854H178.269V190.609H181.538V229ZM188.842 214.313C188.842 211.571 189.369 209.102 190.424 206.904C191.496 204.707 192.999 203.002 194.933 201.789C196.884 200.559 199.09 199.943 201.551 199.943C205.348 199.943 208.424 201.279 210.779 203.951C213.135 206.605 214.312 210.13 214.312 214.524V215.184C214.312 217.943 213.776 220.431 212.704 222.646C211.649 224.843 210.155 226.539 208.222 227.734C206.288 228.93 204.082 229.527 201.604 229.527C197.824 229.527 194.748 228.2 192.375 225.546C190.02 222.874 188.842 219.341 188.842 214.946V214.313ZM192.006 215.184C192.006 218.594 192.885 221.397 194.643 223.595C196.418 225.774 198.738 226.864 201.604 226.864C204.451 226.864 206.754 225.774 208.512 223.595C210.287 221.397 211.175 218.506 211.175 214.92V214.313C211.175 212.134 210.771 210.139 209.962 208.328C209.153 206.518 208.02 205.12 206.561 204.136C205.102 203.134 203.432 202.633 201.551 202.633C198.738 202.633 196.444 203.74 194.669 205.955C192.894 208.152 192.006 211.035 192.006 214.604V215.184ZM223.726 200.471L223.831 205.111C224.886 203.389 226.204 202.097 227.786 201.235C229.368 200.374 231.126 199.943 233.06 199.943C237.56 199.943 240.416 201.789 241.629 205.48C242.648 203.705 244.011 202.343 245.716 201.394C247.421 200.427 249.302 199.943 251.358 199.943C257.476 199.943 260.596 203.283 260.719 209.963V229H257.555V210.2C257.537 207.651 256.983 205.762 255.894 204.531C254.821 203.301 253.063 202.686 250.62 202.686C248.353 202.721 246.437 203.459 244.872 204.9C243.308 206.324 242.438 208.064 242.262 210.121V229H239.098V209.963C239.08 207.52 238.5 205.7 237.357 204.505C236.232 203.292 234.492 202.686 232.137 202.686C230.15 202.686 228.445 203.257 227.021 204.399C225.598 205.524 224.543 207.203 223.857 209.436V229H220.693V200.471H223.726ZM279.782 229.527C277.356 229.527 275.159 228.93 273.19 227.734C271.239 226.539 269.719 224.878 268.629 222.751C267.539 220.606 266.994 218.207 266.994 215.553V214.419C266.994 211.677 267.521 209.207 268.576 207.01C269.648 204.812 271.134 203.09 273.032 201.842C274.931 200.576 276.987 199.943 279.202 199.943C282.665 199.943 285.407 201.13 287.429 203.503C289.468 205.858 290.487 209.084 290.487 213.18V214.946H270.132V215.553C270.132 218.787 271.055 221.485 272.9 223.647C274.764 225.792 277.102 226.864 279.914 226.864C281.602 226.864 283.087 226.557 284.37 225.941C285.671 225.326 286.849 224.342 287.903 222.988L289.881 224.491C287.561 227.849 284.194 229.527 279.782 229.527ZM279.202 202.633C276.829 202.633 274.825 203.503 273.19 205.243C271.573 206.983 270.589 209.321 270.237 212.257H287.35V211.914C287.262 209.172 286.479 206.939 285.003 205.217C283.526 203.494 281.593 202.633 279.202 202.633Z" fill="#303C34"/>
</svg>
