<svg width="375" height="812" viewBox="0 0 375 812" fill="none" xmlns="http://www.w3.org/2000/svg">
<rect width="375" height="812" fill="white"/>
<path d="M63.125 746V734.625H66.3359C67.3255 734.625 68.2005 734.844 68.9609 735.281C69.7214 735.719 70.3073 736.341 70.7188 737.148C71.1354 737.956 71.3464 738.883 71.3516 739.93V740.656C71.3516 741.729 71.1432 742.669 70.7266 743.477C70.3151 744.284 69.724 744.904 68.9531 745.336C68.1875 745.768 67.2943 745.99 66.2734 746H63.125ZM64.625 735.859V744.773H66.2031C67.3594 744.773 68.2578 744.414 68.8984 743.695C69.5443 742.977 69.8672 741.953 69.8672 740.625V739.961C69.8672 738.669 69.5625 737.667 68.9531 736.953C68.349 736.234 67.4896 735.87 66.375 735.859H64.625ZM73.0156 741.695C73.0156 740.867 73.1771 740.122 73.5 739.461C73.8281 738.799 74.2812 738.289 74.8594 737.93C75.4427 737.57 76.1068 737.391 76.8516 737.391C78.0026 737.391 78.9323 737.789 79.6406 738.586C80.3542 739.383 80.7109 740.443 80.7109 741.766V741.867C80.7109 742.69 80.5521 743.43 80.2344 744.086C79.9219 744.737 79.4714 745.245 78.8828 745.609C78.2995 745.974 77.6276 746.156 76.8672 746.156C75.7214 746.156 74.7917 745.758 74.0781 744.961C73.3698 744.164 73.0156 743.109 73.0156 741.797V741.695ZM74.4688 741.867C74.4688 742.805 74.6849 743.557 75.1172 744.125C75.5547 744.693 76.138 744.977 76.8672 744.977C77.6016 744.977 78.1849 744.69 78.6172 744.117C79.0495 743.539 79.2656 742.732 79.2656 741.695C79.2656 740.768 79.0443 740.018 78.6016 739.445C78.1641 738.867 77.5807 738.578 76.8516 738.578C76.138 738.578 75.5625 738.862 75.125 739.43C74.6875 739.997 74.4688 740.81 74.4688 741.867ZM83.8906 737.547L83.9375 738.609C84.5833 737.797 85.4271 737.391 86.4688 737.391C88.2552 737.391 89.1562 738.398 89.1719 740.414V746H87.7266V740.406C87.7214 739.797 87.5807 739.346 87.3047 739.055C87.0339 738.763 86.6094 738.617 86.0312 738.617C85.5625 738.617 85.151 738.742 84.7969 738.992C84.4427 739.242 84.1667 739.57 83.9688 739.977V746H82.5234V737.547H83.8906ZM91.4219 734.867L91.2578 737.742H90.25L90.2578 734H91.4219V734.867ZM95.2969 735.5V737.547H96.875V738.664H95.2969V743.906C95.2969 744.245 95.3672 744.5 95.5078 744.672C95.6484 744.839 95.888 744.922 96.2266 744.922C96.3932 744.922 96.6224 744.891 96.9141 744.828V746C96.5339 746.104 96.1641 746.156 95.8047 746.156C95.1589 746.156 94.6719 745.961 94.3438 745.57C94.0156 745.18 93.8516 744.625 93.8516 743.906V738.664H92.3125V737.547H93.8516V735.5H95.2969ZM103.984 738.57C104.625 737.784 105.458 737.391 106.484 737.391C108.271 737.391 109.172 738.398 109.188 740.414V746H107.742V740.406C107.737 739.797 107.596 739.346 107.32 739.055C107.049 738.763 106.625 738.617 106.047 738.617C105.578 738.617 105.167 738.742 104.812 738.992C104.458 739.242 104.182 739.57 103.984 739.977V746H102.539V734H103.984V738.57ZM116.57 746C116.487 745.833 116.419 745.536 116.367 745.109C115.695 745.807 114.893 746.156 113.961 746.156C113.128 746.156 112.443 745.922 111.906 745.453C111.375 744.979 111.109 744.38 111.109 743.656C111.109 742.776 111.443 742.094 112.109 741.609C112.781 741.12 113.724 740.875 114.938 740.875H116.344V740.211C116.344 739.706 116.193 739.305 115.891 739.008C115.589 738.706 115.143 738.555 114.555 738.555C114.039 738.555 113.607 738.685 113.258 738.945C112.909 739.206 112.734 739.521 112.734 739.891H111.281C111.281 739.469 111.43 739.062 111.727 738.672C112.029 738.276 112.435 737.964 112.945 737.734C113.461 737.505 114.026 737.391 114.641 737.391C115.615 737.391 116.378 737.635 116.93 738.125C117.482 738.609 117.768 739.279 117.789 740.133V744.023C117.789 744.799 117.888 745.417 118.086 745.875V746H116.57ZM114.172 744.898C114.625 744.898 115.055 744.781 115.461 744.547C115.867 744.312 116.161 744.008 116.344 743.633V741.898H115.211C113.44 741.898 112.555 742.417 112.555 743.453C112.555 743.906 112.706 744.26 113.008 744.516C113.31 744.771 113.698 744.898 114.172 744.898ZM122.719 744.039L124.812 737.547H126.289L123.258 746H122.156L119.094 737.547H120.57L122.719 744.039ZM131.078 746.156C129.932 746.156 129 745.781 128.281 745.031C127.562 744.276 127.203 743.268 127.203 742.008V741.742C127.203 740.904 127.362 740.156 127.68 739.5C128.003 738.839 128.451 738.323 129.023 737.953C129.602 737.578 130.227 737.391 130.898 737.391C131.997 737.391 132.852 737.753 133.461 738.477C134.07 739.201 134.375 740.237 134.375 741.586V742.188H128.648C128.669 743.021 128.911 743.695 129.375 744.211C129.844 744.721 130.438 744.977 131.156 744.977C131.667 744.977 132.099 744.872 132.453 744.664C132.807 744.456 133.117 744.18 133.383 743.836L134.266 744.523C133.557 745.612 132.495 746.156 131.078 746.156ZM130.898 738.578C130.315 738.578 129.826 738.792 129.43 739.219C129.034 739.641 128.789 740.234 128.695 741H132.93V740.891C132.888 740.156 132.69 739.589 132.336 739.188C131.982 738.781 131.503 738.578 130.898 738.578ZM145.242 746C145.159 745.833 145.091 745.536 145.039 745.109C144.367 745.807 143.565 746.156 142.633 746.156C141.799 746.156 141.115 745.922 140.578 745.453C140.047 744.979 139.781 744.38 139.781 743.656C139.781 742.776 140.115 742.094 140.781 741.609C141.453 741.12 142.396 740.875 143.609 740.875H145.016V740.211C145.016 739.706 144.865 739.305 144.562 739.008C144.26 738.706 143.815 738.555 143.227 738.555C142.711 738.555 142.279 738.685 141.93 738.945C141.581 739.206 141.406 739.521 141.406 739.891H139.953C139.953 739.469 140.102 739.062 140.398 738.672C140.701 738.276 141.107 737.964 141.617 737.734C142.133 737.505 142.698 737.391 143.312 737.391C144.286 737.391 145.049 737.635 145.602 738.125C146.154 738.609 146.44 739.279 146.461 740.133V744.023C146.461 744.799 146.56 745.417 146.758 745.875V746H145.242ZM142.844 744.898C143.297 744.898 143.727 744.781 144.133 744.547C144.539 744.312 144.833 744.008 145.016 743.633V741.898H143.883C142.112 741.898 141.227 742.417 141.227 743.453C141.227 743.906 141.378 744.26 141.68 744.516C141.982 744.771 142.37 744.898 142.844 744.898ZM150.094 737.547L150.141 738.609C150.786 737.797 151.63 737.391 152.672 737.391C154.458 737.391 155.359 738.398 155.375 740.414V746H153.93V740.406C153.924 739.797 153.784 739.346 153.508 739.055C153.237 738.763 152.812 738.617 152.234 738.617C151.766 738.617 151.354 738.742 151 738.992C150.646 739.242 150.37 739.57 150.172 739.977V746H148.727V737.547H150.094ZM166.742 746C166.659 745.833 166.591 745.536 166.539 745.109C165.867 745.807 165.065 746.156 164.133 746.156C163.299 746.156 162.615 745.922 162.078 745.453C161.547 744.979 161.281 744.38 161.281 743.656C161.281 742.776 161.615 742.094 162.281 741.609C162.953 741.12 163.896 740.875 165.109 740.875H166.516V740.211C166.516 739.706 166.365 739.305 166.062 739.008C165.76 738.706 165.315 738.555 164.727 738.555C164.211 738.555 163.779 738.685 163.43 738.945C163.081 739.206 162.906 739.521 162.906 739.891H161.453C161.453 739.469 161.602 739.062 161.898 738.672C162.201 738.276 162.607 737.964 163.117 737.734C163.633 737.505 164.198 737.391 164.812 737.391C165.786 737.391 166.549 737.635 167.102 738.125C167.654 738.609 167.94 739.279 167.961 740.133V744.023C167.961 744.799 168.06 745.417 168.258 745.875V746H166.742ZM164.344 744.898C164.797 744.898 165.227 744.781 165.633 744.547C166.039 744.312 166.333 744.008 166.516 743.633V741.898H165.383C163.612 741.898 162.727 742.417 162.727 743.453C162.727 743.906 162.878 744.26 163.18 744.516C163.482 744.771 163.87 744.898 164.344 744.898ZM173.617 744.977C174.133 744.977 174.583 744.82 174.969 744.508C175.354 744.195 175.568 743.805 175.609 743.336H176.977C176.951 743.82 176.784 744.281 176.477 744.719C176.169 745.156 175.758 745.505 175.242 745.766C174.732 746.026 174.19 746.156 173.617 746.156C172.466 746.156 171.549 745.773 170.867 745.008C170.19 744.237 169.852 743.185 169.852 741.852V741.609C169.852 740.786 170.003 740.055 170.305 739.414C170.607 738.773 171.039 738.276 171.602 737.922C172.169 737.568 172.839 737.391 173.609 737.391C174.557 737.391 175.344 737.674 175.969 738.242C176.599 738.81 176.935 739.547 176.977 740.453H175.609C175.568 739.906 175.359 739.458 174.984 739.109C174.615 738.755 174.156 738.578 173.609 738.578C172.875 738.578 172.305 738.844 171.898 739.375C171.497 739.901 171.297 740.664 171.297 741.664V741.938C171.297 742.911 171.497 743.661 171.898 744.188C172.299 744.714 172.872 744.977 173.617 744.977ZM181.992 744.977C182.508 744.977 182.958 744.82 183.344 744.508C183.729 744.195 183.943 743.805 183.984 743.336H185.352C185.326 743.82 185.159 744.281 184.852 744.719C184.544 745.156 184.133 745.505 183.617 745.766C183.107 746.026 182.565 746.156 181.992 746.156C180.841 746.156 179.924 745.773 179.242 745.008C178.565 744.237 178.227 743.185 178.227 741.852V741.609C178.227 740.786 178.378 740.055 178.68 739.414C178.982 738.773 179.414 738.276 179.977 737.922C180.544 737.568 181.214 737.391 181.984 737.391C182.932 737.391 183.719 737.674 184.344 738.242C184.974 738.81 185.31 739.547 185.352 740.453H183.984C183.943 739.906 183.734 739.458 183.359 739.109C182.99 738.755 182.531 738.578 181.984 738.578C181.25 738.578 180.68 738.844 180.273 739.375C179.872 739.901 179.672 740.664 179.672 741.664V741.938C179.672 742.911 179.872 743.661 180.273 744.188C180.674 744.714 181.247 744.977 181.992 744.977ZM186.594 741.695C186.594 740.867 186.755 740.122 187.078 739.461C187.406 738.799 187.859 738.289 188.438 737.93C189.021 737.57 189.685 737.391 190.43 737.391C191.581 737.391 192.51 737.789 193.219 738.586C193.932 739.383 194.289 740.443 194.289 741.766V741.867C194.289 742.69 194.13 743.43 193.812 744.086C193.5 744.737 193.049 745.245 192.461 745.609C191.878 745.974 191.206 746.156 190.445 746.156C189.299 746.156 188.37 745.758 187.656 744.961C186.948 744.164 186.594 743.109 186.594 741.797V741.695ZM188.047 741.867C188.047 742.805 188.263 743.557 188.695 744.125C189.133 744.693 189.716 744.977 190.445 744.977C191.18 744.977 191.763 744.69 192.195 744.117C192.628 743.539 192.844 742.732 192.844 741.695C192.844 740.768 192.622 740.018 192.18 739.445C191.742 738.867 191.159 738.578 190.43 738.578C189.716 738.578 189.141 738.862 188.703 739.43C188.266 739.997 188.047 740.81 188.047 741.867ZM201.32 745.164C200.758 745.826 199.932 746.156 198.844 746.156C197.943 746.156 197.255 745.896 196.781 745.375C196.312 744.849 196.076 744.073 196.07 743.047V737.547H197.516V743.008C197.516 744.289 198.036 744.93 199.078 744.93C200.182 744.93 200.917 744.518 201.281 743.695V737.547H202.727V746H201.352L201.32 745.164ZM206.297 737.547L206.344 738.609C206.99 737.797 207.833 737.391 208.875 737.391C210.661 737.391 211.562 738.398 211.578 740.414V746H210.133V740.406C210.128 739.797 209.987 739.346 209.711 739.055C209.44 738.763 209.016 738.617 208.438 738.617C207.969 738.617 207.557 738.742 207.203 738.992C206.849 739.242 206.573 739.57 206.375 739.977V746H204.93V737.547H206.297ZM215.719 735.5V737.547H217.297V738.664H215.719V743.906C215.719 744.245 215.789 744.5 215.93 744.672C216.07 744.839 216.31 744.922 216.648 744.922C216.815 744.922 217.044 744.891 217.336 744.828V746C216.956 746.104 216.586 746.156 216.227 746.156C215.581 746.156 215.094 745.961 214.766 745.57C214.438 745.18 214.273 744.625 214.273 743.906V738.664H212.734V737.547H214.273V735.5H215.719ZM225.727 743.883L227.695 737.547H229.242L225.844 747.305C225.318 748.711 224.482 749.414 223.336 749.414L223.062 749.391L222.523 749.289V748.117L222.914 748.148C223.404 748.148 223.784 748.049 224.055 747.852C224.331 747.654 224.557 747.292 224.734 746.766L225.055 745.906L222.039 737.547H223.617L225.727 743.883ZM233.938 746.156C232.792 746.156 231.859 745.781 231.141 745.031C230.422 744.276 230.062 743.268 230.062 742.008V741.742C230.062 740.904 230.221 740.156 230.539 739.5C230.862 738.839 231.31 738.323 231.883 737.953C232.461 737.578 233.086 737.391 233.758 737.391C234.857 737.391 235.711 737.753 236.32 738.477C236.93 739.201 237.234 740.237 237.234 741.586V742.188H231.508C231.529 743.021 231.771 743.695 232.234 744.211C232.703 744.721 233.297 744.977 234.016 744.977C234.526 744.977 234.958 744.872 235.312 744.664C235.667 744.456 235.977 744.18 236.242 743.836L237.125 744.523C236.417 745.612 235.354 746.156 233.938 746.156ZM233.758 738.578C233.174 738.578 232.685 738.792 232.289 739.219C231.893 739.641 231.648 740.234 231.555 741H235.789V740.891C235.747 740.156 235.549 739.589 235.195 739.188C234.841 738.781 234.362 738.578 233.758 738.578ZM240.875 735.5V737.547H242.453V738.664H240.875V743.906C240.875 744.245 240.945 744.5 241.086 744.672C241.227 744.839 241.466 744.922 241.805 744.922C241.971 744.922 242.201 744.891 242.492 744.828V746C242.112 746.104 241.742 746.156 241.383 746.156C240.737 746.156 240.25 745.961 239.922 745.57C239.594 745.18 239.43 744.625 239.43 743.906V738.664H237.891V737.547H239.43V735.5H240.875ZM245.844 742.797C245.854 742.177 245.924 741.688 246.055 741.328C246.185 740.969 246.451 740.57 246.852 740.133L247.875 739.078C248.312 738.583 248.531 738.052 248.531 737.484C248.531 736.938 248.388 736.51 248.102 736.203C247.815 735.891 247.398 735.734 246.852 735.734C246.32 735.734 245.893 735.875 245.57 736.156C245.247 736.438 245.086 736.815 245.086 737.289H243.641C243.651 736.445 243.951 735.766 244.539 735.25C245.133 734.729 245.904 734.469 246.852 734.469C247.836 734.469 248.602 734.734 249.148 735.266C249.701 735.792 249.977 736.516 249.977 737.438C249.977 738.349 249.555 739.247 248.711 740.133L247.859 740.977C247.479 741.398 247.289 742.005 247.289 742.797H245.844ZM245.781 745.273C245.781 745.039 245.852 744.844 245.992 744.688C246.138 744.526 246.352 744.445 246.633 744.445C246.914 744.445 247.128 744.526 247.273 744.688C247.419 744.844 247.492 745.039 247.492 745.273C247.492 745.508 247.419 745.703 247.273 745.859C247.128 746.01 246.914 746.086 246.633 746.086C246.352 746.086 246.138 746.01 245.992 745.859C245.852 745.703 245.781 745.508 245.781 745.273ZM260.078 741.398H257.406V746H255.898V734.625H259.664C260.945 734.625 261.93 734.917 262.617 735.5C263.31 736.083 263.656 736.932 263.656 738.047C263.656 738.755 263.464 739.372 263.078 739.898C262.698 740.424 262.167 740.818 261.484 741.078L264.156 745.906V746H262.547L260.078 741.398ZM257.406 740.172H259.711C260.456 740.172 261.047 739.979 261.484 739.594C261.927 739.208 262.148 738.693 262.148 738.047C262.148 737.344 261.938 736.805 261.516 736.43C261.099 736.055 260.495 735.865 259.703 735.859H257.406V740.172ZM269.047 746.156C267.901 746.156 266.969 745.781 266.25 745.031C265.531 744.276 265.172 743.268 265.172 742.008V741.742C265.172 740.904 265.331 740.156 265.648 739.5C265.971 738.839 266.419 738.323 266.992 737.953C267.57 737.578 268.195 737.391 268.867 737.391C269.966 737.391 270.82 737.753 271.43 738.477C272.039 739.201 272.344 740.237 272.344 741.586V742.188H266.617C266.638 743.021 266.88 743.695 267.344 744.211C267.812 744.721 268.406 744.977 269.125 744.977C269.635 744.977 270.068 744.872 270.422 744.664C270.776 744.456 271.086 744.18 271.352 743.836L272.234 744.523C271.526 745.612 270.464 746.156 269.047 746.156ZM268.867 738.578C268.284 738.578 267.794 738.792 267.398 739.219C267.003 739.641 266.758 740.234 266.664 741H270.898V740.891C270.857 740.156 270.659 739.589 270.305 739.188C269.951 738.781 269.471 738.578 268.867 738.578ZM273.68 741.703C273.68 740.385 273.984 739.339 274.594 738.562C275.203 737.781 276.01 737.391 277.016 737.391C278.047 737.391 278.852 737.755 279.43 738.484L279.5 737.547H280.82V745.797C280.82 746.891 280.495 747.753 279.844 748.383C279.198 749.013 278.328 749.328 277.234 749.328C276.625 749.328 276.029 749.198 275.445 748.938C274.862 748.677 274.417 748.32 274.109 747.867L274.859 747C275.479 747.766 276.237 748.148 277.133 748.148C277.836 748.148 278.383 747.951 278.773 747.555C279.169 747.159 279.367 746.602 279.367 745.883V745.156C278.789 745.823 278 746.156 277 746.156C276.01 746.156 275.208 745.758 274.594 744.961C273.984 744.164 273.68 743.078 273.68 741.703ZM275.133 741.867C275.133 742.82 275.328 743.57 275.719 744.117C276.109 744.659 276.656 744.93 277.359 744.93C278.271 744.93 278.94 744.516 279.367 743.688V739.828C278.924 739.021 278.26 738.617 277.375 738.617C276.672 738.617 276.122 738.891 275.727 739.438C275.331 739.984 275.133 740.794 275.133 741.867ZM284.578 746H283.133V737.547H284.578V746ZM283.016 735.305C283.016 735.07 283.086 734.872 283.227 734.711C283.372 734.549 283.586 734.469 283.867 734.469C284.148 734.469 284.362 734.549 284.508 734.711C284.654 734.872 284.727 735.07 284.727 735.305C284.727 735.539 284.654 735.734 284.508 735.891C284.362 736.047 284.148 736.125 283.867 736.125C283.586 736.125 283.372 736.047 283.227 735.891C283.086 735.734 283.016 735.539 283.016 735.305ZM291.82 743.758C291.82 743.367 291.672 743.065 291.375 742.852C291.083 742.633 290.57 742.445 289.836 742.289C289.107 742.133 288.526 741.945 288.094 741.727C287.667 741.508 287.349 741.247 287.141 740.945C286.938 740.643 286.836 740.284 286.836 739.867C286.836 739.174 287.128 738.589 287.711 738.109C288.299 737.63 289.049 737.391 289.961 737.391C290.919 737.391 291.695 737.638 292.289 738.133C292.888 738.628 293.188 739.26 293.188 740.031H291.734C291.734 739.635 291.565 739.294 291.227 739.008C290.893 738.721 290.471 738.578 289.961 738.578C289.435 738.578 289.023 738.693 288.727 738.922C288.43 739.151 288.281 739.451 288.281 739.82C288.281 740.169 288.419 740.432 288.695 740.609C288.971 740.786 289.469 740.956 290.188 741.117C290.911 741.279 291.497 741.471 291.945 741.695C292.393 741.919 292.724 742.19 292.938 742.508C293.156 742.82 293.266 743.203 293.266 743.656C293.266 744.411 292.964 745.018 292.359 745.477C291.755 745.93 290.971 746.156 290.008 746.156C289.331 746.156 288.732 746.036 288.211 745.797C287.69 745.557 287.281 745.224 286.984 744.797C286.693 744.365 286.547 743.898 286.547 743.398H287.992C288.018 743.883 288.211 744.268 288.57 744.555C288.935 744.836 289.414 744.977 290.008 744.977C290.555 744.977 290.992 744.867 291.32 744.648C291.654 744.424 291.82 744.128 291.82 743.758ZM297.109 735.5V737.547H298.688V738.664H297.109V743.906C297.109 744.245 297.18 744.5 297.32 744.672C297.461 744.839 297.701 744.922 298.039 744.922C298.206 744.922 298.435 744.891 298.727 744.828V746C298.346 746.104 297.977 746.156 297.617 746.156C296.971 746.156 296.484 745.961 296.156 745.57C295.828 745.18 295.664 744.625 295.664 743.906V738.664H294.125V737.547H295.664V735.5H297.109ZM303.891 746.156C302.745 746.156 301.812 745.781 301.094 745.031C300.375 744.276 300.016 743.268 300.016 742.008V741.742C300.016 740.904 300.174 740.156 300.492 739.5C300.815 738.839 301.263 738.323 301.836 737.953C302.414 737.578 303.039 737.391 303.711 737.391C304.81 737.391 305.664 737.753 306.273 738.477C306.883 739.201 307.188 740.237 307.188 741.586V742.188H301.461C301.482 743.021 301.724 743.695 302.188 744.211C302.656 744.721 303.25 744.977 303.969 744.977C304.479 744.977 304.911 744.872 305.266 744.664C305.62 744.456 305.93 744.18 306.195 743.836L307.078 744.523C306.37 745.612 305.307 746.156 303.891 746.156ZM303.711 738.578C303.128 738.578 302.638 738.792 302.242 739.219C301.846 739.641 301.602 740.234 301.508 741H305.742V740.891C305.701 740.156 305.503 739.589 305.148 739.188C304.794 738.781 304.315 738.578 303.711 738.578ZM312.953 738.844C312.734 738.807 312.497 738.789 312.242 738.789C311.294 738.789 310.651 739.193 310.312 740V746H308.867V737.547H310.273L310.297 738.523C310.771 737.768 311.443 737.391 312.312 737.391C312.594 737.391 312.807 737.427 312.953 737.5V738.844Z" fill="#303C34"/>
<path d="M61.8047 747.562H313.188V748.344H61.8047V747.562Z" fill="#303C34"/>
<rect x="77" y="654" width="220" height="50" rx="25" fill="#689B79"/>
<path d="M161.816 684.633H169.562V687H158.852V669.938H161.816V684.633ZM171.027 680.543C171.027 679.301 171.273 678.184 171.766 677.191C172.258 676.191 172.949 675.426 173.84 674.895C174.73 674.355 175.754 674.086 176.91 674.086C178.621 674.086 180.008 674.637 181.07 675.738C182.141 676.84 182.719 678.301 182.805 680.121L182.816 680.789C182.816 682.039 182.574 683.156 182.09 684.141C181.613 685.125 180.926 685.887 180.027 686.426C179.137 686.965 178.105 687.234 176.934 687.234C175.145 687.234 173.711 686.641 172.633 685.453C171.562 684.258 171.027 682.668 171.027 680.684V680.543ZM173.875 680.789C173.875 682.094 174.145 683.117 174.684 683.859C175.223 684.594 175.973 684.961 176.934 684.961C177.895 684.961 178.641 684.586 179.172 683.836C179.711 683.086 179.98 681.988 179.98 680.543C179.98 679.262 179.703 678.246 179.148 677.496C178.602 676.746 177.855 676.371 176.91 676.371C175.98 676.371 175.242 676.742 174.695 677.484C174.148 678.219 173.875 679.32 173.875 680.789ZM184.727 680.566C184.727 678.598 185.188 677.027 186.109 675.855C187.039 674.676 188.27 674.086 189.801 674.086C191.246 674.086 192.383 674.59 193.211 675.598L193.34 674.32H195.906V686.613C195.906 688.277 195.387 689.59 194.348 690.551C193.316 691.512 191.922 691.992 190.164 691.992C189.234 691.992 188.324 691.797 187.434 691.406C186.551 691.023 185.879 690.52 185.418 689.895L186.766 688.184C187.641 689.223 188.719 689.742 190 689.742C190.945 689.742 191.691 689.484 192.238 688.969C192.785 688.461 193.059 687.711 193.059 686.719V685.863C192.238 686.777 191.145 687.234 189.777 687.234C188.293 687.234 187.078 686.645 186.133 685.465C185.195 684.285 184.727 682.652 184.727 680.566ZM187.562 680.812C187.562 682.086 187.82 683.09 188.336 683.824C188.859 684.551 189.582 684.914 190.504 684.914C191.652 684.914 192.504 684.422 193.059 683.438V677.859C192.52 676.898 191.676 676.418 190.527 676.418C189.59 676.418 188.859 676.789 188.336 677.531C187.82 678.273 187.562 679.367 187.562 680.812ZM201.871 687H199.023V674.32H201.871V687ZM198.848 671.027C198.848 670.59 198.984 670.227 199.258 669.938C199.539 669.648 199.938 669.504 200.453 669.504C200.969 669.504 201.367 669.648 201.648 669.938C201.93 670.227 202.07 670.59 202.07 671.027C202.07 671.457 201.93 671.816 201.648 672.105C201.367 672.387 200.969 672.527 200.453 672.527C199.938 672.527 199.539 672.387 199.258 672.105C198.984 671.816 198.848 671.457 198.848 671.027ZM207.625 674.32L207.707 675.785C208.645 674.652 209.875 674.086 211.398 674.086C214.039 674.086 215.383 675.598 215.43 678.621V687H212.582V678.785C212.582 677.98 212.406 677.387 212.055 677.004C211.711 676.613 211.145 676.418 210.355 676.418C209.207 676.418 208.352 676.938 207.789 677.977V687H204.941V674.32H207.625Z" fill="white"/>
<path fill-rule="evenodd" clip-rule="evenodd" d="M294 20H295C295.552 20 296 20.4477 296 21V27C296 27.5523 295.552 28 295 28H294C293.448 28 293 27.5523 293 27V21C293 20.4477 293.448 20 294 20Z" fill="#D1D1D6"/>
<path fill-rule="evenodd" clip-rule="evenodd" d="M289.5 22H290.5C291.052 22 291.5 22.4477 291.5 23V27C291.5 27.5523 291.052 28 290.5 28H289.5C288.948 28 288.5 27.5523 288.5 27V23C288.5 22.4477 288.948 22 289.5 22Z" fill="#D1D1D6"/>
<path fill-rule="evenodd" clip-rule="evenodd" d="M285 23.5H286C286.552 23.5 287 23.9477 287 24.5V27C287 27.5523 286.552 28 286 28H285C284.448 28 284 27.5523 284 27V24.5C284 23.9477 284.448 23.5 285 23.5Z" fill="#D1D1D6"/>
<path fill-rule="evenodd" clip-rule="evenodd" d="M298.5 18H299.5C300.052 18 300.5 18.4477 300.5 19V27C300.5 27.5523 300.052 28 299.5 28H298.5C297.948 28 297.5 27.5523 297.5 27V19C297.5 18.4477 297.948 18 298.5 18Z" fill="#3C3C43" fill-opacity="0.18"/>
<path fill-rule="evenodd" clip-rule="evenodd" d="M294 20H295C295.552 20 296 20.4477 296 21V27C296 27.5523 295.552 28 295 28H294C293.448 28 293 27.5523 293 27V21C293 20.4477 293.448 20 294 20Z" fill="black"/>
<path fill-rule="evenodd" clip-rule="evenodd" d="M289.5 22H290.5C291.052 22 291.5 22.4477 291.5 23V27C291.5 27.5523 291.052 28 290.5 28H289.5C288.948 28 288.5 27.5523 288.5 27V23C288.5 22.4477 288.948 22 289.5 22Z" fill="black"/>
<path fill-rule="evenodd" clip-rule="evenodd" d="M285 23.5H286C286.552 23.5 287 23.9477 287 24.5V27C287 27.5523 286.552 28 286 28H285C284.448 28 284 27.5523 284 27V24.5C284 23.9477 284.448 23.5 285 23.5Z" fill="black"/>
<path d="M314.133 24.9395C314.772 24.9395 315.394 25.1075 315.941 25.4279L316.163 25.5577C316.331 25.6562 316.361 25.8865 316.223 26.024L314.329 27.9129C314.212 28.0289 314.024 28.0289 313.907 27.9129L312.026 26.0362C311.888 25.8993 311.917 25.6701 312.084 25.5709L312.303 25.4405C312.855 25.112 313.485 24.9395 314.133 24.9395Z" fill="black"/>
<path d="M314.133 21.4697C315.724 21.4697 317.251 21.9975 318.495 22.9748L318.671 23.1129C318.811 23.223 318.824 23.4305 318.697 23.5564L317.567 24.684C317.462 24.7883 317.297 24.8003 317.178 24.7121L317.04 24.6097C316.2 23.9851 315.186 23.6501 314.133 23.6501C313.073 23.6501 312.053 23.9893 311.21 24.621L311.072 24.7244C310.953 24.8133 310.787 24.8016 310.682 24.697L309.552 23.5697C309.426 23.4442 309.438 23.2372 309.578 23.1269L309.753 22.9886C311 22.0026 312.534 21.4697 314.133 21.4697Z" fill="black"/>
<path d="M314.133 18C316.657 18 319.072 18.8906 320.983 20.5229L321.146 20.6623C321.278 20.7749 321.285 20.9756 321.163 21.098L320.036 22.2219C319.926 22.3308 319.752 22.3385 319.634 22.2395L319.494 22.1228C317.989 20.8647 316.104 20.1804 314.133 20.1804C312.155 20.1804 310.263 20.8694 308.756 22.1354L308.617 22.2527C308.498 22.3521 308.324 22.3447 308.214 22.2356L307.087 21.1118C306.965 20.9895 306.972 20.7892 307.104 20.6765L307.266 20.5371C309.18 18.8959 311.601 18 314.133 18Z" fill="black"/>
<path d="M350 21V21C350.552 21 351 21.4477 351 22V24C351 24.5523 350.552 25 350 25V25V21Z" fill="#3C3C43" fill-opacity="0.6"/>
<path fill-rule="evenodd" clip-rule="evenodd" d="M329 17H346C347.657 17 349 18.3431 349 20V26C349 27.6569 347.657 29 346 29H329C327.343 29 326 27.6569 326 26V20C326 18.3431 327.343 17 329 17ZM329 18C327.895 18 327 18.8954 327 20V26C327 27.1046 327.895 28 329 28H346C347.105 28 348 27.1046 348 26V20C348 18.8954 347.105 18 346 18H329Z" fill="#3C3C43" fill-opacity="0.6"/>
<rect x="328" y="19" width="19" height="8" rx="1" fill="black"/>
<path d="M37.8672 28.0889C40.5552 28.0889 42.1519 25.9868 42.1519 22.4272C42.1519 21.0869 41.8955 19.959 41.4048 19.0874C40.6943 17.7324 39.4712 17 37.9258 17C35.626 17 34 18.5454 34 20.7134C34 22.7495 35.4648 24.229 37.479 24.229C38.7168 24.229 39.7202 23.6504 40.2183 22.647H40.2402C40.2402 22.647 40.2695 22.647 40.2769 22.647C40.2915 22.647 40.3428 22.647 40.3428 22.647C40.3428 25.064 39.4272 26.5068 37.8818 26.5068C36.9736 26.5068 36.2705 26.0088 36.0288 25.2104H34.1465C34.4614 26.9463 35.9336 28.0889 37.8672 28.0889ZM37.9331 22.7275C36.7173 22.7275 35.853 21.8633 35.853 20.6548C35.853 19.4756 36.7612 18.5747 37.9404 18.5747C39.1196 18.5747 40.0278 19.4902 40.0278 20.6841C40.0278 21.8633 39.1416 22.7275 37.9331 22.7275Z" fill="black"/>
<path d="M45.243 27.9863C45.9388 27.9863 46.4148 27.4883 46.4148 26.8291C46.4148 26.1626 45.9388 25.6719 45.243 25.6719C44.5545 25.6719 44.0711 26.1626 44.0711 26.8291C44.0711 27.4883 44.5545 27.9863 45.243 27.9863ZM45.243 22.4932C45.9388 22.4932 46.4148 22.0024 46.4148 21.3433C46.4148 20.6768 45.9388 20.186 45.243 20.186C44.5545 20.186 44.0711 20.6768 44.0711 21.3433C44.0711 22.0024 44.5545 22.4932 45.243 22.4932Z" fill="black"/>
<path d="M53.2706 27.8325H55.0797V25.8623H56.5079V24.2656H55.0797V17.2637H52.4137C50.546 20.0762 49.0592 22.4272 48.107 24.1777V25.8623H53.2706V27.8325ZM49.8575 24.1997C51.088 22.0317 52.1866 20.2959 53.1974 18.8018H53.2999V24.3096H49.8575V24.1997Z" fill="black"/>
<path d="M60.5365 27.8325H62.4262V17.2637H60.5438L57.7826 19.1973V21.0137L60.412 19.168H60.5365V27.8325Z" fill="black"/>
<path d="M227 284L187.95 244.95C185.216 242.216 180.784 242.216 178.05 244.95L139 284" stroke="#689B79" stroke-width="8" stroke-linecap="round"/>
<path d="M139 284V344C139 347.866 142.134 351 146 351H220C223.866 351 227 347.866 227 344V284" stroke="#689B79" stroke-width="8" stroke-linecap="round"/>
<circle cx="183" cy="317" r="10" fill="#689B79"/>
<path fill-rule="evenodd" clip-rule="evenodd" d="M242.513 228.166C236.978 223.538 230.819 220.437 223.95 218.82C219.715 217.823 213.802 217.41 212.655 218.031C211.46 218.676 210.636 219.933 210.609 221.15C210.586 222.19 210.823 222.716 211.718 223.611C212.696 224.59 212.878 224.652 214.982 224.73C223.008 225.024 230.058 227.493 236.477 232.257C238.206 233.539 242.177 237.51 243.459 239.238C248.269 245.72 250.754 252.854 250.994 260.861C251.047 262.62 251.166 263.008 251.924 263.871C253.331 265.473 255.416 265.544 256.918 264.041C257.814 263.145 258.009 262.49 257.975 260.492C257.814 251.173 254.633 242.364 248.578 234.473C247.552 233.136 243.838 229.274 242.513 228.166ZM234.159 238.552C228.769 233.826 221.621 231.072 214.624 231.025C213.012 231.014 212.351 231.279 211.482 232.282C210.829 233.036 210.575 233.745 210.622 234.676C210.67 235.634 210.929 236.206 211.646 236.939C212.463 237.777 213.06 237.986 214.833 238.061C218.467 238.214 221.579 239.002 224.656 240.548C229.297 242.88 232.859 246.441 235.169 251.056C236.731 254.179 237.497 257.169 237.661 260.789C237.746 262.668 237.949 263.269 238.772 264.075C239.501 264.79 240.068 265.045 241.039 265.094C242.134 265.149 242.693 264.917 243.574 264.041C244.586 263.034 244.773 262.449 244.687 260.545C244.361 253.254 241.779 246.814 237.01 241.395C236.295 240.582 235.604 239.824 235.476 239.71C235.347 239.595 234.755 239.074 234.159 238.552ZM224.939 247.879C222.056 245.643 218.818 244.41 215.107 244.135C214.125 244.062 213.648 244.106 212.988 244.33C212.21 244.595 212.086 244.678 211.537 245.303C210.82 246.121 210.573 246.79 210.623 247.778C210.673 248.761 210.915 249.294 211.64 250.024C212.436 250.824 213.065 251.065 214.584 251.15C218.999 251.399 222.639 254.153 224.04 258.304C224.236 258.886 224.437 259.838 224.486 260.42C224.645 262.283 224.729 262.698 225.078 263.333C226.235 265.439 229.154 265.707 230.733 263.852C231.415 263.051 231.583 262.429 231.547 260.843C231.478 257.799 230.463 254.668 228.665 251.95C227.854 250.725 226.011 248.71 224.939 247.879Z" fill="#689B79"/>
<path d="M64.335 426.928C64.335 425.434 63.8076 424.291 62.7529 423.5C61.6982 422.691 59.7998 421.848 57.0576 420.969C54.3154 420.072 52.1445 419.193 50.5449 418.332C46.1855 415.977 44.0059 412.804 44.0059 408.813C44.0059 406.739 44.5859 404.894 45.7461 403.276C46.9238 401.642 48.6025 400.367 50.7822 399.453C52.9795 398.539 55.4404 398.082 58.165 398.082C60.9072 398.082 63.3506 398.583 65.4951 399.585C67.6396 400.569 69.3008 401.967 70.4785 403.777C71.6738 405.588 72.2715 407.645 72.2715 409.947H64.3613C64.3613 408.189 63.8076 406.827 62.7002 405.86C61.5928 404.876 60.0371 404.384 58.0332 404.384C56.0996 404.384 54.5967 404.797 53.5244 405.623C52.4521 406.432 51.916 407.504 51.916 408.84C51.916 410.088 52.54 411.134 53.7881 411.978C55.0537 412.821 56.9082 413.612 59.3516 414.351C63.8516 415.704 67.1299 417.383 69.1865 419.387C71.2432 421.391 72.2715 423.887 72.2715 426.875C72.2715 430.197 71.0146 432.808 68.501 434.706C65.9873 436.587 62.6035 437.527 58.3496 437.527C55.3965 437.527 52.707 436.991 50.2812 435.919C47.8555 434.829 46.001 433.344 44.7178 431.463C43.4521 429.582 42.8193 427.402 42.8193 424.924H50.7559C50.7559 429.16 53.2871 431.278 58.3496 431.278C60.2305 431.278 61.6982 430.9 62.7529 430.145C63.8076 429.371 64.335 428.299 64.335 426.928ZM84.2949 408.471L84.5322 411.661C86.5537 409.183 89.2871 407.943 92.7324 407.943C96.4062 407.943 98.9287 409.394 100.3 412.294C102.304 409.394 105.16 407.943 108.869 407.943C111.963 407.943 114.266 408.849 115.777 410.659C117.289 412.452 118.045 415.159 118.045 418.78V437H110.398V418.807C110.398 417.189 110.082 416.012 109.449 415.273C108.816 414.518 107.7 414.14 106.101 414.14C103.815 414.14 102.233 415.229 101.354 417.409L101.381 437H93.7607V418.833C93.7607 417.181 93.4355 415.985 92.7852 415.247C92.1348 414.509 91.0273 414.14 89.4629 414.14C87.3008 414.14 85.7363 415.036 84.7695 416.829V437H77.1494V408.471H84.2949ZM140.457 437C140.105 436.314 139.851 435.462 139.692 434.442C137.847 436.499 135.447 437.527 132.494 437.527C129.699 437.527 127.379 436.719 125.533 435.102C123.705 433.484 122.791 431.445 122.791 428.984C122.791 425.961 123.907 423.641 126.14 422.023C128.39 420.406 131.633 419.589 135.869 419.571H139.376V417.937C139.376 416.618 139.033 415.563 138.348 414.772C137.68 413.981 136.616 413.586 135.157 413.586C133.874 413.586 132.863 413.894 132.125 414.509C131.404 415.124 131.044 415.968 131.044 417.04H123.424C123.424 415.388 123.934 413.858 124.953 412.452C125.973 411.046 127.414 409.947 129.277 409.156C131.141 408.348 133.232 407.943 135.553 407.943C139.068 407.943 141.854 408.831 143.911 410.606C145.985 412.364 147.022 414.843 147.022 418.042V430.408C147.04 433.115 147.418 435.163 148.156 436.552V437H140.457ZM134.155 431.7C135.28 431.7 136.317 431.454 137.267 430.962C138.216 430.452 138.919 429.775 139.376 428.932V424.027H136.528C132.714 424.027 130.684 425.346 130.438 427.982L130.411 428.431C130.411 429.38 130.745 430.162 131.413 430.777C132.081 431.393 132.995 431.7 134.155 431.7ZM168.907 415.616C167.87 415.476 166.956 415.405 166.165 415.405C163.282 415.405 161.393 416.381 160.496 418.332V437H152.876V408.471H160.074L160.285 411.872C161.814 409.253 163.933 407.943 166.64 407.943C167.483 407.943 168.274 408.058 169.013 408.286L168.907 415.616ZM183.04 401.457V408.471H187.918V414.061H183.04V428.299C183.04 429.354 183.242 430.109 183.646 430.566C184.051 431.023 184.824 431.252 185.967 431.252C186.811 431.252 187.558 431.19 188.208 431.067V436.842C186.714 437.299 185.176 437.527 183.594 437.527C178.25 437.527 175.525 434.829 175.42 429.433V414.061H171.254V408.471H175.42V401.457H183.04ZM222.538 437H219.269V418.596H197.331V437H194.088V398.609H197.331V415.854H219.269V398.609H222.538V437ZM229.842 422.313C229.842 419.571 230.369 417.102 231.424 414.904C232.496 412.707 233.999 411.002 235.933 409.789C237.884 408.559 240.09 407.943 242.551 407.943C246.348 407.943 249.424 409.279 251.779 411.951C254.135 414.605 255.312 418.13 255.312 422.524V423.184C255.312 425.943 254.776 428.431 253.704 430.646C252.649 432.843 251.155 434.539 249.222 435.734C247.288 436.93 245.082 437.527 242.604 437.527C238.824 437.527 235.748 436.2 233.375 433.546C231.02 430.874 229.842 427.341 229.842 422.946V422.313ZM233.006 423.184C233.006 426.594 233.885 429.397 235.643 431.595C237.418 433.774 239.738 434.864 242.604 434.864C245.451 434.864 247.754 433.774 249.512 431.595C251.287 429.397 252.175 426.506 252.175 422.92V422.313C252.175 420.134 251.771 418.139 250.962 416.328C250.153 414.518 249.02 413.12 247.561 412.136C246.102 411.134 244.432 410.633 242.551 410.633C239.738 410.633 237.444 411.74 235.669 413.955C233.894 416.152 233.006 419.035 233.006 422.604V423.184ZM264.726 408.471L264.831 413.111C265.886 411.389 267.204 410.097 268.786 409.235C270.368 408.374 272.126 407.943 274.06 407.943C278.56 407.943 281.416 409.789 282.629 413.48C283.648 411.705 285.011 410.343 286.716 409.394C288.421 408.427 290.302 407.943 292.358 407.943C298.476 407.943 301.596 411.283 301.719 417.963V437H298.555V418.2C298.537 415.651 297.983 413.762 296.894 412.531C295.821 411.301 294.063 410.686 291.62 410.686C289.353 410.721 287.437 411.459 285.872 412.9C284.308 414.324 283.438 416.064 283.262 418.121V437H280.098V417.963C280.08 415.52 279.5 413.7 278.357 412.505C277.232 411.292 275.492 410.686 273.137 410.686C271.15 410.686 269.445 411.257 268.021 412.399C266.598 413.524 265.543 415.203 264.857 417.436V437H261.693V408.471H264.726ZM320.782 437.527C318.356 437.527 316.159 436.93 314.19 435.734C312.239 434.539 310.719 432.878 309.629 430.751C308.539 428.606 307.994 426.207 307.994 423.553V422.419C307.994 419.677 308.521 417.207 309.576 415.01C310.648 412.812 312.134 411.09 314.032 409.842C315.931 408.576 317.987 407.943 320.202 407.943C323.665 407.943 326.407 409.13 328.429 411.503C330.468 413.858 331.487 417.084 331.487 421.18V422.946H311.132V423.553C311.132 426.787 312.055 429.485 313.9 431.647C315.764 433.792 318.102 434.864 320.914 434.864C322.602 434.864 324.087 434.557 325.37 433.941C326.671 433.326 327.849 432.342 328.903 430.988L330.881 432.491C328.561 435.849 325.194 437.527 320.782 437.527ZM320.202 410.633C317.829 410.633 315.825 411.503 314.19 413.243C312.573 414.983 311.589 417.321 311.237 420.257H328.35V419.914C328.262 417.172 327.479 414.939 326.003 413.217C324.526 411.494 322.593 410.633 320.202 410.633Z" fill="#303C34"/>
</svg>
