<svg width="375" height="812" viewBox="0 0 375 812" fill="none" xmlns="http://www.w3.org/2000/svg">
<g clip-path="url(#clip0_111_1140)">
<rect width="375" height="812" fill="white"/>
<rect x="44" y="335" width="290" height="50" rx="10" fill="#689B79"/>
<path d="M156.357 361.834C156.229 363.199 155.725 364.266 154.846 365.033C153.967 365.795 152.798 366.176 151.339 366.176C150.319 366.176 149.42 365.936 148.641 365.455C147.867 364.969 147.27 364.28 146.848 363.39C146.426 362.499 146.206 361.465 146.188 360.287V359.092C146.188 357.885 146.402 356.821 146.83 355.901C147.258 354.981 147.87 354.272 148.667 353.774C149.47 353.276 150.396 353.027 151.444 353.027C152.856 353.027 153.993 353.411 154.854 354.179C155.716 354.946 156.217 356.03 156.357 357.431H154.143C154.037 356.511 153.768 355.849 153.334 355.444C152.906 355.034 152.276 354.829 151.444 354.829C150.478 354.829 149.733 355.184 149.212 355.893C148.696 356.596 148.433 357.63 148.421 358.995V360.129C148.421 361.512 148.667 362.566 149.159 363.293C149.657 364.02 150.384 364.383 151.339 364.383C152.212 364.383 152.868 364.187 153.308 363.794C153.747 363.401 154.025 362.748 154.143 361.834H156.357ZM168.565 359.936C168.565 361.189 168.349 362.291 167.915 363.24C167.481 364.184 166.86 364.91 166.052 365.42C165.249 365.924 164.323 366.176 163.274 366.176C162.237 366.176 161.312 365.924 160.497 365.42C159.688 364.91 159.062 364.187 158.616 363.249C158.177 362.312 157.954 361.23 157.948 360.006V359.285C157.948 358.037 158.168 356.936 158.607 355.98C159.053 355.025 159.677 354.296 160.479 353.792C161.288 353.282 162.214 353.027 163.257 353.027C164.3 353.027 165.223 353.279 166.025 353.783C166.834 354.281 167.458 355.002 167.897 355.945C168.337 356.883 168.56 357.976 168.565 359.224V359.936ZM166.342 359.268C166.342 357.85 166.072 356.763 165.533 356.007C165 355.251 164.241 354.873 163.257 354.873C162.296 354.873 161.543 355.251 160.998 356.007C160.459 356.757 160.184 357.82 160.172 359.197V359.936C160.172 361.342 160.444 362.429 160.989 363.196C161.54 363.964 162.302 364.348 163.274 364.348C164.259 364.348 165.015 363.973 165.542 363.223C166.075 362.473 166.342 361.377 166.342 359.936V359.268ZM180.932 366H178.708L173.004 356.921V366H170.78V353.203H173.004L178.726 362.317V353.203H180.932V366ZM192.542 354.996H188.552V366H186.346V354.996H182.391V353.203H192.542V354.996ZM196.576 366H194.361V353.203H196.576V366ZM209.461 366H207.237L201.533 356.921V366H199.31V353.203H201.533L207.255 362.317V353.203H209.461V366ZM221.449 353.203V361.755C221.449 363.114 221.013 364.192 220.14 364.989C219.272 365.78 218.115 366.176 216.668 366.176C215.203 366.176 214.04 365.786 213.179 365.007C212.317 364.222 211.887 363.135 211.887 361.746V353.203H214.102V361.764C214.102 362.619 214.318 363.272 214.752 363.724C215.186 364.175 215.824 364.4 216.668 364.4C218.379 364.4 219.234 363.498 219.234 361.693V353.203H221.449ZM231.311 360.287H226.055V364.225H232.198V366H223.831V353.203H232.137V354.996H226.055V358.529H231.311V360.287Z" fill="white"/>
<path d="M170.986 406.713H169.334V410H167.852V401.469H170.852C171.836 401.469 172.596 401.689 173.131 402.131C173.666 402.572 173.934 403.211 173.934 404.047C173.934 404.617 173.795 405.096 173.518 405.482C173.244 405.865 172.861 406.16 172.369 406.367L174.285 409.924V410H172.697L170.986 406.713ZM169.334 405.523H170.857C171.357 405.523 171.748 405.398 172.029 405.148C172.311 404.895 172.451 404.549 172.451 404.111C172.451 403.654 172.32 403.301 172.059 403.051C171.801 402.801 171.414 402.672 170.898 402.664H169.334V405.523ZM177.994 410.117C177.092 410.117 176.359 409.834 175.797 409.268C175.238 408.697 174.959 407.939 174.959 406.994V406.818C174.959 406.186 175.08 405.621 175.322 405.125C175.568 404.625 175.912 404.236 176.354 403.959C176.795 403.682 177.287 403.543 177.83 403.543C178.693 403.543 179.359 403.818 179.828 404.369C180.301 404.92 180.537 405.699 180.537 406.707V407.281H176.395C176.438 407.805 176.611 408.219 176.916 408.523C177.225 408.828 177.611 408.98 178.076 408.98C178.729 408.98 179.26 408.717 179.67 408.189L180.438 408.922C180.184 409.301 179.844 409.596 179.418 409.807C178.996 410.014 178.521 410.117 177.994 410.117ZM177.824 404.686C177.434 404.686 177.117 404.822 176.875 405.096C176.637 405.369 176.484 405.75 176.418 406.238H179.131V406.133C179.1 405.656 178.973 405.297 178.75 405.055C178.527 404.809 178.219 404.686 177.824 404.686ZM185.201 408.277C185.201 408.023 185.096 407.83 184.885 407.697C184.678 407.564 184.332 407.447 183.848 407.346C183.363 407.244 182.959 407.115 182.635 406.959C181.924 406.615 181.568 406.117 181.568 405.465C181.568 404.918 181.799 404.461 182.26 404.094C182.721 403.727 183.307 403.543 184.018 403.543C184.775 403.543 185.387 403.73 185.852 404.105C186.32 404.48 186.555 404.967 186.555 405.564H185.131C185.131 405.291 185.029 405.064 184.826 404.885C184.623 404.701 184.354 404.609 184.018 404.609C183.705 404.609 183.449 404.682 183.25 404.826C183.055 404.971 182.957 405.164 182.957 405.406C182.957 405.625 183.049 405.795 183.232 405.916C183.416 406.037 183.787 406.16 184.346 406.285C184.904 406.406 185.342 406.553 185.658 406.725C185.979 406.893 186.215 407.096 186.367 407.334C186.523 407.572 186.602 407.861 186.602 408.201C186.602 408.771 186.365 409.234 185.893 409.59C185.42 409.941 184.801 410.117 184.035 410.117C183.516 410.117 183.053 410.023 182.646 409.836C182.24 409.648 181.924 409.391 181.697 409.062C181.471 408.734 181.357 408.381 181.357 408.002H182.74C182.76 408.338 182.887 408.598 183.121 408.781C183.355 408.961 183.666 409.051 184.053 409.051C184.428 409.051 184.713 408.98 184.908 408.84C185.104 408.695 185.201 408.508 185.201 408.277ZM190.639 410.117C189.736 410.117 189.004 409.834 188.441 409.268C187.883 408.697 187.604 407.939 187.604 406.994V406.818C187.604 406.186 187.725 405.621 187.967 405.125C188.213 404.625 188.557 404.236 188.998 403.959C189.439 403.682 189.932 403.543 190.475 403.543C191.338 403.543 192.004 403.818 192.473 404.369C192.945 404.92 193.182 405.699 193.182 406.707V407.281H189.039C189.082 407.805 189.256 408.219 189.561 408.523C189.869 408.828 190.256 408.98 190.721 408.98C191.373 408.98 191.904 408.717 192.314 408.189L193.082 408.922C192.828 409.301 192.488 409.596 192.062 409.807C191.641 410.014 191.166 410.117 190.639 410.117ZM190.469 404.686C190.078 404.686 189.762 404.822 189.52 405.096C189.281 405.369 189.129 405.75 189.062 406.238H191.775V406.133C191.744 405.656 191.617 405.297 191.395 405.055C191.172 404.809 190.863 404.686 190.469 404.686ZM195.613 403.66L195.654 404.393C196.123 403.826 196.738 403.543 197.5 403.543C198.82 403.543 199.492 404.299 199.516 405.811V410H198.092V405.893C198.092 405.49 198.004 405.193 197.828 405.002C197.656 404.807 197.373 404.709 196.979 404.709C196.404 404.709 195.977 404.969 195.695 405.488V410H194.271V403.66H195.613ZM200.705 406.783C200.705 405.807 200.932 405.023 201.385 404.434C201.838 403.84 202.445 403.543 203.207 403.543C203.879 403.543 204.422 403.777 204.836 404.246V401H206.26V410H204.971L204.9 409.344C204.475 409.859 203.906 410.117 203.195 410.117C202.453 410.117 201.852 409.818 201.391 409.221C200.934 408.623 200.705 407.811 200.705 406.783ZM202.129 406.906C202.129 407.551 202.252 408.055 202.498 408.418C202.748 408.777 203.102 408.957 203.559 408.957C204.141 408.957 204.566 408.697 204.836 408.178V405.471C204.574 404.963 204.152 404.709 203.57 404.709C203.109 404.709 202.754 404.893 202.504 405.26C202.254 405.623 202.129 406.172 202.129 406.906Z" fill="#7E7E7E"/>
<path d="M166.984 411.172H207.016V411.758H166.984V411.172Z" fill="#7E7E7E"/>
<path d="M55.3359 187.66V191H54.2109V182.469H57.3574C58.291 182.469 59.0215 182.707 59.5488 183.184C60.0801 183.66 60.3457 184.291 60.3457 185.076C60.3457 185.904 60.0859 186.543 59.5664 186.992C59.0508 187.438 58.3105 187.66 57.3457 187.66H55.3359ZM55.3359 186.74H57.3574C57.959 186.74 58.4199 186.6 58.7402 186.318C59.0605 186.033 59.2207 185.623 59.2207 185.088C59.2207 184.58 59.0605 184.174 58.7402 183.869C58.4199 183.564 57.9805 183.406 57.4219 183.395H55.3359V186.74ZM62.7891 191H61.7051V182H62.7891V191ZM67.1602 191.117C66.3008 191.117 65.6016 190.836 65.0625 190.273C64.5234 189.707 64.2539 188.951 64.2539 188.006V187.807C64.2539 187.178 64.373 186.617 64.6113 186.125C64.8535 185.629 65.1895 185.242 65.6191 184.965C66.0527 184.684 66.5215 184.543 67.0254 184.543C67.8496 184.543 68.4902 184.814 68.9473 185.357C69.4043 185.9 69.6328 186.678 69.6328 187.689V188.141H65.3379C65.3535 188.766 65.5352 189.271 65.8828 189.658C66.2344 190.041 66.6797 190.232 67.2188 190.232C67.6016 190.232 67.9258 190.154 68.1914 189.998C68.457 189.842 68.6895 189.635 68.8887 189.377L69.5508 189.893C69.0195 190.709 68.2227 191.117 67.1602 191.117ZM67.0254 185.434C66.5879 185.434 66.2207 185.594 65.9238 185.914C65.627 186.23 65.4434 186.676 65.373 187.25H68.5488V187.168C68.5176 186.617 68.3691 186.191 68.1035 185.891C67.8379 185.586 67.4785 185.434 67.0254 185.434ZM74.8066 191C74.7441 190.875 74.6934 190.652 74.6543 190.332C74.1504 190.855 73.5488 191.117 72.8496 191.117C72.2246 191.117 71.7109 190.941 71.3086 190.59C70.9102 190.234 70.7109 189.785 70.7109 189.242C70.7109 188.582 70.9609 188.07 71.4609 187.707C71.9648 187.34 72.6719 187.156 73.582 187.156H74.6367V186.658C74.6367 186.279 74.5234 185.979 74.2969 185.756C74.0703 185.529 73.7363 185.416 73.2949 185.416C72.9082 185.416 72.584 185.514 72.3223 185.709C72.0605 185.904 71.9297 186.141 71.9297 186.418H70.8398C70.8398 186.102 70.9512 185.797 71.1738 185.504C71.4004 185.207 71.7051 184.973 72.0879 184.801C72.4746 184.629 72.8984 184.543 73.3594 184.543C74.0898 184.543 74.6621 184.727 75.0762 185.094C75.4902 185.457 75.7051 185.959 75.7207 186.6V189.518C75.7207 190.1 75.7949 190.562 75.9434 190.906V191H74.8066ZM73.0078 190.174C73.3477 190.174 73.6699 190.086 73.9746 189.91C74.2793 189.734 74.5 189.506 74.6367 189.225V187.924H73.7871C72.459 187.924 71.7949 188.312 71.7949 189.09C71.7949 189.43 71.9082 189.695 72.1348 189.887C72.3613 190.078 72.6523 190.174 73.0078 190.174ZM81.1113 189.318C81.1113 189.025 81 188.799 80.7773 188.639C80.5586 188.475 80.1738 188.334 79.623 188.217C79.0762 188.1 78.6406 187.959 78.3164 187.795C77.9961 187.631 77.7578 187.436 77.6016 187.209C77.4492 186.982 77.373 186.713 77.373 186.4C77.373 185.881 77.5918 185.441 78.0293 185.082C78.4707 184.723 79.0332 184.543 79.7168 184.543C80.4355 184.543 81.0176 184.729 81.4629 185.1C81.9121 185.471 82.1367 185.945 82.1367 186.523H81.0469C81.0469 186.227 80.9199 185.971 80.666 185.756C80.416 185.541 80.0996 185.434 79.7168 185.434C79.3223 185.434 79.0137 185.52 78.791 185.691C78.5684 185.863 78.457 186.088 78.457 186.365C78.457 186.627 78.5605 186.824 78.7676 186.957C78.9746 187.09 79.3477 187.217 79.8867 187.338C80.4297 187.459 80.8691 187.604 81.2051 187.771C81.541 187.939 81.7891 188.143 81.9492 188.381C82.1133 188.615 82.1953 188.902 82.1953 189.242C82.1953 189.809 81.9688 190.264 81.5156 190.607C81.0625 190.947 80.4746 191.117 79.752 191.117C79.2441 191.117 78.7949 191.027 78.4043 190.848C78.0137 190.668 77.707 190.418 77.4844 190.098C77.2656 189.773 77.1562 189.424 77.1562 189.049H78.2402C78.2598 189.412 78.4043 189.701 78.6738 189.916C78.9473 190.127 79.3066 190.232 79.752 190.232C80.1621 190.232 80.4902 190.15 80.7363 189.986C80.9863 189.818 81.1113 189.596 81.1113 189.318ZM86.2383 191.117C85.3789 191.117 84.6797 190.836 84.1406 190.273C83.6016 189.707 83.332 188.951 83.332 188.006V187.807C83.332 187.178 83.4512 186.617 83.6895 186.125C83.9316 185.629 84.2676 185.242 84.6973 184.965C85.1309 184.684 85.5996 184.543 86.1035 184.543C86.9277 184.543 87.5684 184.814 88.0254 185.357C88.4824 185.9 88.7109 186.678 88.7109 187.689V188.141H84.416C84.4316 188.766 84.6133 189.271 84.9609 189.658C85.3125 190.041 85.7578 190.232 86.2969 190.232C86.6797 190.232 87.0039 190.154 87.2695 189.998C87.5352 189.842 87.7676 189.635 87.9668 189.377L88.6289 189.893C88.0977 190.709 87.3008 191.117 86.2383 191.117ZM86.1035 185.434C85.666 185.434 85.2988 185.594 85.002 185.914C84.7051 186.23 84.5215 186.676 84.4512 187.25H87.627V187.168C87.5957 186.617 87.4473 186.191 87.1816 185.891C86.916 185.586 86.5566 185.434 86.1035 185.434ZM95.5781 191.117C94.7188 191.117 94.0195 190.836 93.4805 190.273C92.9414 189.707 92.6719 188.951 92.6719 188.006V187.807C92.6719 187.178 92.791 186.617 93.0293 186.125C93.2715 185.629 93.6074 185.242 94.0371 184.965C94.4707 184.684 94.9395 184.543 95.4434 184.543C96.2676 184.543 96.9082 184.814 97.3652 185.357C97.8223 185.9 98.0508 186.678 98.0508 187.689V188.141H93.7559C93.7715 188.766 93.9531 189.271 94.3008 189.658C94.6523 190.041 95.0977 190.232 95.6367 190.232C96.0195 190.232 96.3438 190.154 96.6094 189.998C96.875 189.842 97.1074 189.635 97.3066 189.377L97.9688 189.893C97.4375 190.709 96.6406 191.117 95.5781 191.117ZM95.4434 185.434C95.0059 185.434 94.6387 185.594 94.3418 185.914C94.0449 186.23 93.8613 186.676 93.791 187.25H96.9668V187.168C96.9355 186.617 96.7871 186.191 96.5215 185.891C96.2559 185.586 95.8965 185.434 95.4434 185.434ZM100.336 184.66L100.371 185.457C100.855 184.848 101.488 184.543 102.27 184.543C103.609 184.543 104.285 185.299 104.297 186.811V191H103.213V186.805C103.209 186.348 103.104 186.01 102.896 185.791C102.693 185.572 102.375 185.463 101.941 185.463C101.59 185.463 101.281 185.557 101.016 185.744C100.75 185.932 100.543 186.178 100.395 186.482V191H99.3105V184.66H100.336ZM107.402 183.125V184.66H108.586V185.498H107.402V189.43C107.402 189.684 107.455 189.875 107.561 190.004C107.666 190.129 107.846 190.191 108.1 190.191C108.225 190.191 108.396 190.168 108.615 190.121V191C108.33 191.078 108.053 191.117 107.783 191.117C107.299 191.117 106.934 190.971 106.688 190.678C106.441 190.385 106.318 189.969 106.318 189.43V185.498H105.164V184.66H106.318V183.125H107.402ZM112.488 191.117C111.629 191.117 110.93 190.836 110.391 190.273C109.852 189.707 109.582 188.951 109.582 188.006V187.807C109.582 187.178 109.701 186.617 109.939 186.125C110.182 185.629 110.518 185.242 110.947 184.965C111.381 184.684 111.85 184.543 112.354 184.543C113.178 184.543 113.818 184.814 114.275 185.357C114.732 185.9 114.961 186.678 114.961 187.689V188.141H110.666C110.682 188.766 110.863 189.271 111.211 189.658C111.562 190.041 112.008 190.232 112.547 190.232C112.93 190.232 113.254 190.154 113.52 189.998C113.785 189.842 114.018 189.635 114.217 189.377L114.879 189.893C114.348 190.709 113.551 191.117 112.488 191.117ZM112.354 185.434C111.916 185.434 111.549 185.594 111.252 185.914C110.955 186.23 110.771 186.676 110.701 187.25H113.877V187.168C113.846 186.617 113.697 186.191 113.432 185.891C113.166 185.586 112.807 185.434 112.354 185.434ZM119.285 185.633C119.121 185.605 118.943 185.592 118.752 185.592C118.041 185.592 117.559 185.895 117.305 186.5V191H116.221V184.66H117.275L117.293 185.393C117.648 184.826 118.152 184.543 118.805 184.543C119.016 184.543 119.176 184.57 119.285 184.625V185.633ZM124.734 183.125V184.66H125.918V185.498H124.734V189.43C124.734 189.684 124.787 189.875 124.893 190.004C124.998 190.129 125.178 190.191 125.432 190.191C125.557 190.191 125.729 190.168 125.947 190.121V191C125.662 191.078 125.385 191.117 125.115 191.117C124.631 191.117 124.266 190.971 124.02 190.678C123.773 190.385 123.65 189.969 123.65 189.43V185.498H122.496V184.66H123.65V183.125H124.734ZM128.273 185.428C128.754 184.838 129.379 184.543 130.148 184.543C131.488 184.543 132.164 185.299 132.176 186.811V191H131.092V186.805C131.088 186.348 130.982 186.01 130.775 185.791C130.572 185.572 130.254 185.463 129.82 185.463C129.469 185.463 129.16 185.557 128.895 185.744C128.629 185.932 128.422 186.178 128.273 186.482V191H127.189V182H128.273V185.428ZM136.43 191.117C135.57 191.117 134.871 190.836 134.332 190.273C133.793 189.707 133.523 188.951 133.523 188.006V187.807C133.523 187.178 133.643 186.617 133.881 186.125C134.123 185.629 134.459 185.242 134.889 184.965C135.322 184.684 135.791 184.543 136.295 184.543C137.119 184.543 137.76 184.814 138.217 185.357C138.674 185.9 138.902 186.678 138.902 187.689V188.141H134.607C134.623 188.766 134.805 189.271 135.152 189.658C135.504 190.041 135.949 190.232 136.488 190.232C136.871 190.232 137.195 190.154 137.461 189.998C137.727 189.842 137.959 189.635 138.158 189.377L138.82 189.893C138.289 190.709 137.492 191.117 136.43 191.117ZM136.295 185.434C135.857 185.434 135.49 185.594 135.193 185.914C134.896 186.23 134.713 186.676 134.643 187.25H137.818V187.168C137.787 186.617 137.639 186.191 137.373 185.891C137.107 185.586 136.748 185.434 136.295 185.434ZM145.23 189.529L146.801 184.66H147.908L145.635 191H144.809L142.512 184.66H143.619L145.23 189.529ZM151.5 191.117C150.641 191.117 149.941 190.836 149.402 190.273C148.863 189.707 148.594 188.951 148.594 188.006V187.807C148.594 187.178 148.713 186.617 148.951 186.125C149.193 185.629 149.529 185.242 149.959 184.965C150.393 184.684 150.861 184.543 151.365 184.543C152.189 184.543 152.83 184.814 153.287 185.357C153.744 185.9 153.973 186.678 153.973 187.689V188.141H149.678C149.693 188.766 149.875 189.271 150.223 189.658C150.574 190.041 151.02 190.232 151.559 190.232C151.941 190.232 152.266 190.154 152.531 189.998C152.797 189.842 153.029 189.635 153.229 189.377L153.891 189.893C153.359 190.709 152.562 191.117 151.5 191.117ZM151.365 185.434C150.928 185.434 150.561 185.594 150.264 185.914C149.967 186.23 149.783 186.676 149.713 187.25H152.889V187.168C152.857 186.617 152.709 186.191 152.443 185.891C152.178 185.586 151.818 185.434 151.365 185.434ZM158.297 185.633C158.133 185.605 157.955 185.592 157.764 185.592C157.053 185.592 156.57 185.895 156.316 186.5V191H155.232V184.66H156.287L156.305 185.393C156.66 184.826 157.164 184.543 157.816 184.543C158.027 184.543 158.188 184.57 158.297 184.625V185.633ZM160.477 191H159.393V184.66H160.477V191ZM159.305 182.979C159.305 182.803 159.357 182.654 159.463 182.533C159.572 182.412 159.732 182.352 159.943 182.352C160.154 182.352 160.314 182.412 160.424 182.533C160.533 182.654 160.588 182.803 160.588 182.979C160.588 183.154 160.533 183.301 160.424 183.418C160.314 183.535 160.154 183.594 159.943 183.594C159.732 183.594 159.572 183.535 159.463 183.418C159.357 183.301 159.305 183.154 159.305 182.979ZM162.58 191V185.498H161.578V184.66H162.58V184.121C162.58 183.414 162.781 182.863 163.184 182.469C163.59 182.074 164.162 181.877 164.9 181.877C165.338 181.877 165.891 181.996 166.559 182.234L166.377 183.148C165.889 182.953 165.424 182.855 164.982 182.855C164.518 182.855 164.182 182.961 163.975 183.172C163.771 183.379 163.67 183.691 163.67 184.109V184.66H164.965V185.498H163.67V191H162.58ZM167.098 191H166.008V184.66H167.098V191ZM171.404 190.232C171.791 190.232 172.129 190.115 172.418 189.881C172.707 189.646 172.867 189.354 172.898 189.002H173.924C173.904 189.365 173.779 189.711 173.549 190.039C173.318 190.367 173.01 190.629 172.623 190.824C172.24 191.02 171.834 191.117 171.404 191.117C170.541 191.117 169.854 190.83 169.342 190.256C168.834 189.678 168.58 188.889 168.58 187.889V187.707C168.58 187.09 168.693 186.541 168.92 186.061C169.146 185.58 169.471 185.207 169.893 184.941C170.318 184.676 170.82 184.543 171.398 184.543C172.109 184.543 172.699 184.756 173.168 185.182C173.641 185.607 173.893 186.16 173.924 186.84H172.898C172.867 186.43 172.711 186.094 172.43 185.832C172.152 185.566 171.809 185.434 171.398 185.434C170.848 185.434 170.42 185.633 170.115 186.031C169.814 186.426 169.664 186.998 169.664 187.748V187.953C169.664 188.684 169.814 189.246 170.115 189.641C170.416 190.035 170.846 190.232 171.404 190.232ZM179.057 191C178.994 190.875 178.943 190.652 178.904 190.332C178.4 190.855 177.799 191.117 177.1 191.117C176.475 191.117 175.961 190.941 175.559 190.59C175.16 190.234 174.961 189.785 174.961 189.242C174.961 188.582 175.211 188.07 175.711 187.707C176.215 187.34 176.922 187.156 177.832 187.156H178.887V186.658C178.887 186.279 178.773 185.979 178.547 185.756C178.32 185.529 177.986 185.416 177.545 185.416C177.158 185.416 176.834 185.514 176.572 185.709C176.311 185.904 176.18 186.141 176.18 186.418H175.09C175.09 186.102 175.201 185.797 175.424 185.504C175.65 185.207 175.955 184.973 176.338 184.801C176.725 184.629 177.148 184.543 177.609 184.543C178.34 184.543 178.912 184.727 179.326 185.094C179.74 185.457 179.955 185.959 179.971 186.6V189.518C179.971 190.1 180.045 190.562 180.193 190.906V191H179.057ZM177.258 190.174C177.598 190.174 177.92 190.086 178.225 189.91C178.529 189.734 178.75 189.506 178.887 189.225V187.924H178.037C176.709 187.924 176.045 188.312 176.045 189.09C176.045 189.43 176.158 189.695 176.385 189.887C176.611 190.078 176.902 190.174 177.258 190.174ZM183.141 183.125V184.66H184.324V185.498H183.141V189.43C183.141 189.684 183.193 189.875 183.299 190.004C183.404 190.129 183.584 190.191 183.838 190.191C183.963 190.191 184.135 190.168 184.354 190.121V191C184.068 191.078 183.791 191.117 183.521 191.117C183.037 191.117 182.672 190.971 182.426 190.678C182.18 190.385 182.057 189.969 182.057 189.43V185.498H180.902V184.66H182.057V183.125H183.141ZM186.773 191H185.689V184.66H186.773V191ZM185.602 182.979C185.602 182.803 185.654 182.654 185.76 182.533C185.869 182.412 186.029 182.352 186.24 182.352C186.451 182.352 186.611 182.412 186.721 182.533C186.83 182.654 186.885 182.803 186.885 182.979C186.885 183.154 186.83 183.301 186.721 183.418C186.611 183.535 186.451 183.594 186.24 183.594C186.029 183.594 185.869 183.535 185.76 183.418C185.654 183.301 185.602 183.154 185.602 182.979ZM188.227 187.771C188.227 187.15 188.348 186.592 188.59 186.096C188.836 185.6 189.176 185.217 189.609 184.947C190.047 184.678 190.545 184.543 191.104 184.543C191.967 184.543 192.664 184.842 193.195 185.439C193.73 186.037 193.998 186.832 193.998 187.824V187.9C193.998 188.518 193.879 189.072 193.641 189.564C193.406 190.053 193.068 190.434 192.627 190.707C192.189 190.98 191.686 191.117 191.115 191.117C190.256 191.117 189.559 190.818 189.023 190.221C188.492 189.623 188.227 188.832 188.227 187.848V187.771ZM189.316 187.9C189.316 188.604 189.479 189.168 189.803 189.594C190.131 190.02 190.568 190.232 191.115 190.232C191.666 190.232 192.104 190.018 192.428 189.588C192.752 189.154 192.914 188.549 192.914 187.771C192.914 187.076 192.748 186.514 192.416 186.084C192.088 185.65 191.65 185.434 191.104 185.434C190.568 185.434 190.137 185.646 189.809 186.072C189.48 186.498 189.316 187.107 189.316 187.9ZM196.383 184.66L196.418 185.457C196.902 184.848 197.535 184.543 198.316 184.543C199.656 184.543 200.332 185.299 200.344 186.811V191H199.26V186.805C199.256 186.348 199.15 186.01 198.943 185.791C198.74 185.572 198.422 185.463 197.988 185.463C197.637 185.463 197.328 185.557 197.062 185.744C196.797 185.932 196.59 186.178 196.441 186.482V191H195.357V184.66H196.383ZM207.498 190.232C207.885 190.232 208.223 190.115 208.512 189.881C208.801 189.646 208.961 189.354 208.992 189.002H210.018C209.998 189.365 209.873 189.711 209.643 190.039C209.412 190.367 209.104 190.629 208.717 190.824C208.334 191.02 207.928 191.117 207.498 191.117C206.635 191.117 205.947 190.83 205.436 190.256C204.928 189.678 204.674 188.889 204.674 187.889V187.707C204.674 187.09 204.787 186.541 205.014 186.061C205.24 185.58 205.564 185.207 205.986 184.941C206.412 184.676 206.914 184.543 207.492 184.543C208.203 184.543 208.793 184.756 209.262 185.182C209.734 185.607 209.986 186.16 210.018 186.84H208.992C208.961 186.43 208.805 186.094 208.523 185.832C208.246 185.566 207.902 185.434 207.492 185.434C206.941 185.434 206.514 185.633 206.209 186.031C205.908 186.426 205.758 186.998 205.758 187.748V187.953C205.758 188.684 205.908 189.246 206.209 189.641C206.51 190.035 206.939 190.232 207.498 190.232ZM210.949 187.771C210.949 187.15 211.07 186.592 211.312 186.096C211.559 185.6 211.898 185.217 212.332 184.947C212.77 184.678 213.268 184.543 213.826 184.543C214.689 184.543 215.387 184.842 215.918 185.439C216.453 186.037 216.721 186.832 216.721 187.824V187.9C216.721 188.518 216.602 189.072 216.363 189.564C216.129 190.053 215.791 190.434 215.35 190.707C214.912 190.98 214.408 191.117 213.838 191.117C212.979 191.117 212.281 190.818 211.746 190.221C211.215 189.623 210.949 188.832 210.949 187.848V187.771ZM212.039 187.9C212.039 188.604 212.201 189.168 212.525 189.594C212.854 190.02 213.291 190.232 213.838 190.232C214.389 190.232 214.826 190.018 215.15 189.588C215.475 189.154 215.637 188.549 215.637 187.771C215.637 187.076 215.471 186.514 215.139 186.084C214.811 185.65 214.373 185.434 213.826 185.434C213.291 185.434 212.859 185.646 212.531 186.072C212.203 186.498 212.039 187.107 212.039 187.9ZM217.816 187.777C217.816 186.805 218.047 186.023 218.508 185.434C218.969 184.84 219.572 184.543 220.318 184.543C221.061 184.543 221.648 184.797 222.082 185.305V182H223.166V191H222.17L222.117 190.32C221.684 190.852 221.08 191.117 220.307 191.117C219.572 191.117 218.973 190.816 218.508 190.215C218.047 189.613 217.816 188.828 217.816 187.859V187.777ZM218.9 187.9C218.9 188.619 219.049 189.182 219.346 189.588C219.643 189.994 220.053 190.197 220.576 190.197C221.264 190.197 221.766 189.889 222.082 189.271V186.359C221.758 185.762 221.26 185.463 220.588 185.463C220.057 185.463 219.643 185.668 219.346 186.078C219.049 186.488 218.9 187.096 218.9 187.9ZM227.484 191.117C226.625 191.117 225.926 190.836 225.387 190.273C224.848 189.707 224.578 188.951 224.578 188.006V187.807C224.578 187.178 224.697 186.617 224.936 186.125C225.178 185.629 225.514 185.242 225.943 184.965C226.377 184.684 226.846 184.543 227.35 184.543C228.174 184.543 228.814 184.814 229.271 185.357C229.729 185.9 229.957 186.678 229.957 187.689V188.141H225.662C225.678 188.766 225.859 189.271 226.207 189.658C226.559 190.041 227.004 190.232 227.543 190.232C227.926 190.232 228.25 190.154 228.516 189.998C228.781 189.842 229.014 189.635 229.213 189.377L229.875 189.893C229.344 190.709 228.547 191.117 227.484 191.117ZM227.35 185.434C226.912 185.434 226.545 185.594 226.248 185.914C225.951 186.23 225.768 186.676 225.697 187.25H228.873V187.168C228.842 186.617 228.693 186.191 228.428 185.891C228.162 185.586 227.803 185.434 227.35 185.434ZM235.312 184.66V191.732C235.312 192.951 234.76 193.561 233.654 193.561C233.416 193.561 233.195 193.525 232.992 193.455V192.588C233.117 192.619 233.281 192.635 233.484 192.635C233.727 192.635 233.91 192.568 234.035 192.436C234.164 192.307 234.229 192.08 234.229 191.756V184.66H235.312ZM234.117 182.979C234.117 182.807 234.17 182.66 234.275 182.539C234.385 182.414 234.543 182.352 234.75 182.352C234.961 182.352 235.121 182.412 235.23 182.533C235.34 182.654 235.395 182.803 235.395 182.979C235.395 183.154 235.34 183.301 235.23 183.418C235.121 183.535 234.961 183.594 234.75 183.594C234.539 183.594 234.381 183.535 234.275 183.418C234.17 183.301 234.117 183.154 234.117 182.979ZM240.979 190.373C240.557 190.869 239.938 191.117 239.121 191.117C238.445 191.117 237.93 190.922 237.574 190.531C237.223 190.137 237.045 189.555 237.041 188.785V184.66H238.125V188.756C238.125 189.717 238.516 190.197 239.297 190.197C240.125 190.197 240.676 189.889 240.949 189.271V184.66H242.033V191H241.002L240.979 190.373ZM247.377 189.318C247.377 189.025 247.266 188.799 247.043 188.639C246.824 188.475 246.439 188.334 245.889 188.217C245.342 188.1 244.906 187.959 244.582 187.795C244.262 187.631 244.023 187.436 243.867 187.209C243.715 186.982 243.639 186.713 243.639 186.4C243.639 185.881 243.857 185.441 244.295 185.082C244.736 184.723 245.299 184.543 245.982 184.543C246.701 184.543 247.283 184.729 247.729 185.1C248.178 185.471 248.402 185.945 248.402 186.523H247.312C247.312 186.227 247.186 185.971 246.932 185.756C246.682 185.541 246.365 185.434 245.982 185.434C245.588 185.434 245.279 185.52 245.057 185.691C244.834 185.863 244.723 186.088 244.723 186.365C244.723 186.627 244.826 186.824 245.033 186.957C245.24 187.09 245.613 187.217 246.152 187.338C246.695 187.459 247.135 187.604 247.471 187.771C247.807 187.939 248.055 188.143 248.215 188.381C248.379 188.615 248.461 188.902 248.461 189.242C248.461 189.809 248.234 190.264 247.781 190.607C247.328 190.947 246.74 191.117 246.018 191.117C245.51 191.117 245.061 191.027 244.67 190.848C244.279 190.668 243.973 190.418 243.75 190.098C243.531 189.773 243.422 189.424 243.422 189.049H244.506C244.525 189.412 244.67 189.701 244.939 189.916C245.213 190.127 245.572 190.232 246.018 190.232C246.428 190.232 246.756 190.15 247.002 189.986C247.252 189.818 247.377 189.596 247.377 189.318ZM251.344 183.125V184.66H252.527V185.498H251.344V189.43C251.344 189.684 251.396 189.875 251.502 190.004C251.607 190.129 251.787 190.191 252.041 190.191C252.166 190.191 252.338 190.168 252.557 190.121V191C252.271 191.078 251.994 191.117 251.725 191.117C251.24 191.117 250.875 190.971 250.629 190.678C250.383 190.385 250.26 189.969 250.26 189.43V185.498H249.105V184.66H250.26V183.125H251.344ZM260.467 189.318C260.467 189.025 260.355 188.799 260.133 188.639C259.914 188.475 259.529 188.334 258.979 188.217C258.432 188.1 257.996 187.959 257.672 187.795C257.352 187.631 257.113 187.436 256.957 187.209C256.805 186.982 256.729 186.713 256.729 186.4C256.729 185.881 256.947 185.441 257.385 185.082C257.826 184.723 258.389 184.543 259.072 184.543C259.791 184.543 260.373 184.729 260.818 185.1C261.268 185.471 261.492 185.945 261.492 186.523H260.402C260.402 186.227 260.275 185.971 260.021 185.756C259.771 185.541 259.455 185.434 259.072 185.434C258.678 185.434 258.369 185.52 258.146 185.691C257.924 185.863 257.812 186.088 257.812 186.365C257.812 186.627 257.916 186.824 258.123 186.957C258.33 187.09 258.703 187.217 259.242 187.338C259.785 187.459 260.225 187.604 260.561 187.771C260.896 187.939 261.145 188.143 261.305 188.381C261.469 188.615 261.551 188.902 261.551 189.242C261.551 189.809 261.324 190.264 260.871 190.607C260.418 190.947 259.83 191.117 259.107 191.117C258.6 191.117 258.15 191.027 257.76 190.848C257.369 190.668 257.062 190.418 256.84 190.098C256.621 189.773 256.512 189.424 256.512 189.049H257.596C257.615 189.412 257.76 189.701 258.029 189.916C258.303 190.127 258.662 190.232 259.107 190.232C259.518 190.232 259.846 190.15 260.092 189.986C260.342 189.818 260.467 189.596 260.467 189.318ZM265.594 191.117C264.734 191.117 264.035 190.836 263.496 190.273C262.957 189.707 262.688 188.951 262.688 188.006V187.807C262.688 187.178 262.807 186.617 263.045 186.125C263.287 185.629 263.623 185.242 264.053 184.965C264.486 184.684 264.955 184.543 265.459 184.543C266.283 184.543 266.924 184.814 267.381 185.357C267.838 185.9 268.066 186.678 268.066 187.689V188.141H263.771C263.787 188.766 263.969 189.271 264.316 189.658C264.668 190.041 265.113 190.232 265.652 190.232C266.035 190.232 266.359 190.154 266.625 189.998C266.891 189.842 267.123 189.635 267.322 189.377L267.984 189.893C267.453 190.709 266.656 191.117 265.594 191.117ZM265.459 185.434C265.021 185.434 264.654 185.594 264.357 185.914C264.061 186.23 263.877 186.676 263.807 187.25H266.982V187.168C266.951 186.617 266.803 186.191 266.537 185.891C266.271 185.586 265.912 185.434 265.459 185.434ZM270.352 184.66L270.387 185.457C270.871 184.848 271.504 184.543 272.285 184.543C273.625 184.543 274.301 185.299 274.312 186.811V191H273.229V186.805C273.225 186.348 273.119 186.01 272.912 185.791C272.709 185.572 272.391 185.463 271.957 185.463C271.605 185.463 271.297 185.557 271.031 185.744C270.766 185.932 270.559 186.178 270.41 186.482V191H269.326V184.66H270.352ZM277.418 183.125V184.66H278.602V185.498H277.418V189.43C277.418 189.684 277.471 189.875 277.576 190.004C277.682 190.129 277.861 190.191 278.115 190.191C278.24 190.191 278.412 190.168 278.631 190.121V191C278.346 191.078 278.068 191.117 277.799 191.117C277.314 191.117 276.949 190.971 276.703 190.678C276.457 190.385 276.334 189.969 276.334 189.43V185.498H275.18V184.66H276.334V183.125H277.418ZM284.32 183.125V184.66H285.504V185.498H284.32V189.43C284.32 189.684 284.373 189.875 284.479 190.004C284.584 190.129 284.764 190.191 285.018 190.191C285.143 190.191 285.314 190.168 285.533 190.121V191C285.248 191.078 284.971 191.117 284.701 191.117C284.217 191.117 283.852 190.971 283.605 190.678C283.359 190.385 283.236 189.969 283.236 189.43V185.498H282.082V184.66H283.236V183.125H284.32ZM286.371 187.771C286.371 187.15 286.492 186.592 286.734 186.096C286.98 185.6 287.32 185.217 287.754 184.947C288.191 184.678 288.689 184.543 289.248 184.543C290.111 184.543 290.809 184.842 291.34 185.439C291.875 186.037 292.143 186.832 292.143 187.824V187.9C292.143 188.518 292.023 189.072 291.785 189.564C291.551 190.053 291.213 190.434 290.771 190.707C290.334 190.98 289.83 191.117 289.26 191.117C288.4 191.117 287.703 190.818 287.168 190.221C286.637 189.623 286.371 188.832 286.371 187.848V187.771ZM287.461 187.9C287.461 188.604 287.623 189.168 287.947 189.594C288.275 190.02 288.713 190.232 289.26 190.232C289.811 190.232 290.248 190.018 290.572 189.588C290.896 189.154 291.059 188.549 291.059 187.771C291.059 187.076 290.893 186.514 290.561 186.084C290.232 185.65 289.795 185.434 289.248 185.434C288.713 185.434 288.281 185.646 287.953 186.072C287.625 186.498 287.461 187.107 287.461 187.9ZM298.553 189.412L300.029 184.66H301.189L298.641 191.979C298.246 193.033 297.619 193.561 296.76 193.561L296.555 193.543L296.15 193.467V192.588L296.443 192.611C296.811 192.611 297.096 192.537 297.299 192.389C297.506 192.24 297.676 191.969 297.809 191.574L298.049 190.93L295.787 184.66H296.971L298.553 189.412ZM301.781 187.771C301.781 187.15 301.902 186.592 302.145 186.096C302.391 185.6 302.73 185.217 303.164 184.947C303.602 184.678 304.1 184.543 304.658 184.543C305.521 184.543 306.219 184.842 306.75 185.439C307.285 186.037 307.553 186.832 307.553 187.824V187.9C307.553 188.518 307.434 189.072 307.195 189.564C306.961 190.053 306.623 190.434 306.182 190.707C305.744 190.98 305.24 191.117 304.67 191.117C303.811 191.117 303.113 190.818 302.578 190.221C302.047 189.623 301.781 188.832 301.781 187.848V187.771ZM302.871 187.9C302.871 188.604 303.033 189.168 303.357 189.594C303.686 190.02 304.123 190.232 304.67 190.232C305.221 190.232 305.658 190.018 305.982 189.588C306.307 189.154 306.469 188.549 306.469 187.771C306.469 187.076 306.303 186.514 305.971 186.084C305.643 185.65 305.205 185.434 304.658 185.434C304.123 185.434 303.691 185.646 303.363 186.072C303.035 186.498 302.871 187.107 302.871 187.9ZM312.826 190.373C312.404 190.869 311.785 191.117 310.969 191.117C310.293 191.117 309.777 190.922 309.422 190.531C309.07 190.137 308.893 189.555 308.889 188.785V184.66H309.973V188.756C309.973 189.717 310.363 190.197 311.145 190.197C311.973 190.197 312.523 189.889 312.797 189.271V184.66H313.881V191H312.85L312.826 190.373ZM318.598 185.633C318.434 185.605 318.256 185.592 318.064 185.592C317.354 185.592 316.871 185.895 316.617 186.5V191H315.533V184.66H316.588L316.605 185.393C316.961 184.826 317.465 184.543 318.117 184.543C318.328 184.543 318.488 184.57 318.598 184.625V185.633ZM88.8516 205.117C87.9922 205.117 87.293 204.836 86.7539 204.273C86.2148 203.707 85.9453 202.951 85.9453 202.006V201.807C85.9453 201.178 86.0645 200.617 86.3027 200.125C86.5449 199.629 86.8809 199.242 87.3105 198.965C87.7441 198.684 88.2129 198.543 88.7168 198.543C89.541 198.543 90.1816 198.814 90.6387 199.357C91.0957 199.9 91.3242 200.678 91.3242 201.689V202.141H87.0293C87.0449 202.766 87.2266 203.271 87.5742 203.658C87.9258 204.041 88.3711 204.232 88.9102 204.232C89.293 204.232 89.6172 204.154 89.8828 203.998C90.1484 203.842 90.3809 203.635 90.5801 203.377L91.2422 203.893C90.7109 204.709 89.9141 205.117 88.8516 205.117ZM88.7168 199.434C88.2793 199.434 87.9121 199.594 87.6152 199.914C87.3184 200.23 87.1348 200.676 87.0645 201.25H90.2402V201.168C90.209 200.617 90.0605 200.191 89.7949 199.891C89.5293 199.586 89.1699 199.434 88.7168 199.434ZM93.6035 198.66L93.6328 199.363C94.0977 198.816 94.7246 198.543 95.5137 198.543C96.4004 198.543 97.0039 198.883 97.3242 199.562C97.5352 199.258 97.8086 199.012 98.1445 198.824C98.4844 198.637 98.8848 198.543 99.3457 198.543C100.736 198.543 101.443 199.279 101.467 200.752V205H100.383V200.816C100.383 200.363 100.279 200.025 100.072 199.803C99.8652 199.576 99.5176 199.463 99.0293 199.463C98.627 199.463 98.293 199.584 98.0273 199.826C97.7617 200.064 97.6074 200.387 97.5645 200.793V205H96.4746V200.846C96.4746 199.924 96.0234 199.463 95.1211 199.463C94.4102 199.463 93.9238 199.766 93.6621 200.371V205H92.5781V198.66H93.6035ZM107.021 205C106.959 204.875 106.908 204.652 106.869 204.332C106.365 204.855 105.764 205.117 105.064 205.117C104.439 205.117 103.926 204.941 103.523 204.59C103.125 204.234 102.926 203.785 102.926 203.242C102.926 202.582 103.176 202.07 103.676 201.707C104.18 201.34 104.887 201.156 105.797 201.156H106.852V200.658C106.852 200.279 106.738 199.979 106.512 199.756C106.285 199.529 105.951 199.416 105.51 199.416C105.123 199.416 104.799 199.514 104.537 199.709C104.275 199.904 104.145 200.141 104.145 200.418H103.055C103.055 200.102 103.166 199.797 103.389 199.504C103.615 199.207 103.92 198.973 104.303 198.801C104.689 198.629 105.113 198.543 105.574 198.543C106.305 198.543 106.877 198.727 107.291 199.094C107.705 199.457 107.92 199.959 107.936 200.6V203.518C107.936 204.1 108.01 204.562 108.158 204.906V205H107.021ZM105.223 204.174C105.562 204.174 105.885 204.086 106.189 203.91C106.494 203.734 106.715 203.506 106.852 203.225V201.924H106.002C104.674 201.924 104.01 202.312 104.01 203.09C104.01 203.43 104.123 203.695 104.35 203.887C104.576 204.078 104.867 204.174 105.223 204.174ZM110.812 205H109.729V198.66H110.812V205ZM109.641 196.979C109.641 196.803 109.693 196.654 109.799 196.533C109.908 196.412 110.068 196.352 110.279 196.352C110.49 196.352 110.65 196.412 110.76 196.533C110.869 196.654 110.924 196.803 110.924 196.979C110.924 197.154 110.869 197.301 110.76 197.418C110.65 197.535 110.49 197.594 110.279 197.594C110.068 197.594 109.908 197.535 109.799 197.418C109.693 197.301 109.641 197.154 109.641 196.979ZM113.73 205H112.646V196H113.73V205ZM115.436 204.432C115.436 204.244 115.49 204.088 115.6 203.963C115.713 203.838 115.881 203.775 116.104 203.775C116.326 203.775 116.494 203.838 116.607 203.963C116.725 204.088 116.783 204.244 116.783 204.432C116.783 204.611 116.725 204.762 116.607 204.883C116.494 205.004 116.326 205.064 116.104 205.064C115.881 205.064 115.713 205.004 115.6 204.883C115.49 204.762 115.436 204.611 115.436 204.432ZM115.441 199.258C115.441 199.07 115.496 198.914 115.605 198.789C115.719 198.664 115.887 198.602 116.109 198.602C116.332 198.602 116.5 198.664 116.613 198.789C116.73 198.914 116.789 199.07 116.789 199.258C116.789 199.438 116.73 199.588 116.613 199.709C116.5 199.83 116.332 199.891 116.109 199.891C115.887 199.891 115.719 199.83 115.605 199.709C115.496 199.588 115.441 199.438 115.441 199.258ZM124.629 203.248C124.629 203.041 124.525 202.879 124.318 202.762C124.115 202.641 123.787 202.533 123.334 202.439C121.826 202.123 121.072 201.482 121.072 200.518C121.072 199.955 121.305 199.486 121.77 199.111C122.238 198.732 122.85 198.543 123.604 198.543C124.408 198.543 125.051 198.732 125.531 199.111C126.016 199.49 126.258 199.982 126.258 200.588H124.564C124.564 200.346 124.486 200.146 124.33 199.99C124.174 199.83 123.93 199.75 123.598 199.75C123.312 199.75 123.092 199.814 122.936 199.943C122.779 200.072 122.701 200.236 122.701 200.436C122.701 200.623 122.789 200.775 122.965 200.893C123.145 201.006 123.445 201.105 123.867 201.191C124.289 201.273 124.645 201.367 124.934 201.473C125.828 201.801 126.275 202.369 126.275 203.178C126.275 203.756 126.027 204.225 125.531 204.584C125.035 204.939 124.395 205.117 123.609 205.117C123.078 205.117 122.605 205.023 122.191 204.836C121.781 204.645 121.459 204.385 121.225 204.057C120.99 203.725 120.873 203.367 120.873 202.984H122.479C122.494 203.285 122.605 203.516 122.812 203.676C123.02 203.836 123.297 203.916 123.645 203.916C123.969 203.916 124.213 203.855 124.377 203.734C124.545 203.609 124.629 203.447 124.629 203.248ZM129.158 205H127.459V198.66H129.158V205ZM127.359 197.02C127.359 196.766 127.443 196.557 127.611 196.393C127.783 196.229 128.016 196.146 128.309 196.146C128.598 196.146 128.828 196.229 129 196.393C129.172 196.557 129.258 196.766 129.258 197.02C129.258 197.277 129.17 197.488 128.994 197.652C128.822 197.816 128.594 197.898 128.309 197.898C128.023 197.898 127.793 197.816 127.617 197.652C127.445 197.488 127.359 197.277 127.359 197.02ZM132.146 198.66L132.199 199.369C132.648 198.818 133.256 198.543 134.021 198.543C134.838 198.543 135.398 198.865 135.703 199.51C136.148 198.865 136.783 198.543 137.607 198.543C138.295 198.543 138.807 198.744 139.143 199.146C139.479 199.545 139.646 200.146 139.646 200.951V205H137.947V200.957C137.947 200.598 137.877 200.336 137.736 200.172C137.596 200.004 137.348 199.92 136.992 199.92C136.484 199.92 136.133 200.162 135.938 200.646L135.943 205H134.25V200.963C134.25 200.596 134.178 200.33 134.033 200.166C133.889 200.002 133.643 199.92 133.295 199.92C132.814 199.92 132.467 200.119 132.252 200.518V205H130.559V198.66H132.146ZM146.66 201.889C146.66 202.865 146.438 203.648 145.992 204.238C145.551 204.824 144.953 205.117 144.199 205.117C143.559 205.117 143.041 204.895 142.646 204.449V207.438H140.953V198.66H142.523L142.582 199.281C142.992 198.789 143.527 198.543 144.188 198.543C144.969 198.543 145.576 198.832 146.01 199.41C146.443 199.988 146.66 200.785 146.66 201.801V201.889ZM144.967 201.766C144.967 201.176 144.861 200.721 144.65 200.4C144.443 200.08 144.141 199.92 143.742 199.92C143.211 199.92 142.846 200.123 142.646 200.529V203.125C142.854 203.543 143.223 203.752 143.754 203.752C144.562 203.752 144.967 203.09 144.967 201.766ZM149.502 205H147.803V196H149.502V205ZM153.82 205.117C152.891 205.117 152.133 204.832 151.547 204.262C150.965 203.691 150.674 202.932 150.674 201.982V201.818C150.674 201.182 150.797 200.613 151.043 200.113C151.289 199.609 151.637 199.223 152.086 198.953C152.539 198.68 153.055 198.543 153.633 198.543C154.5 198.543 155.182 198.816 155.678 199.363C156.178 199.91 156.428 200.686 156.428 201.689V202.381H152.391C152.445 202.795 152.609 203.127 152.883 203.377C153.16 203.627 153.51 203.752 153.932 203.752C154.584 203.752 155.094 203.516 155.461 203.043L156.293 203.975C156.039 204.334 155.695 204.615 155.262 204.818C154.828 205.018 154.348 205.117 153.82 205.117ZM153.627 199.914C153.291 199.914 153.018 200.027 152.807 200.254C152.6 200.48 152.467 200.805 152.408 201.227H154.764V201.092C154.756 200.717 154.654 200.428 154.459 200.225C154.264 200.018 153.986 199.914 153.627 199.914ZM160.828 203.248C160.828 203.041 160.725 202.879 160.518 202.762C160.314 202.641 159.986 202.533 159.533 202.439C158.025 202.123 157.271 201.482 157.271 200.518C157.271 199.955 157.504 199.486 157.969 199.111C158.438 198.732 159.049 198.543 159.803 198.543C160.607 198.543 161.25 198.732 161.73 199.111C162.215 199.49 162.457 199.982 162.457 200.588H160.764C160.764 200.346 160.686 200.146 160.529 199.99C160.373 199.83 160.129 199.75 159.797 199.75C159.512 199.75 159.291 199.814 159.135 199.943C158.979 200.072 158.9 200.236 158.9 200.436C158.9 200.623 158.988 200.775 159.164 200.893C159.344 201.006 159.645 201.105 160.066 201.191C160.488 201.273 160.844 201.367 161.133 201.473C162.027 201.801 162.475 202.369 162.475 203.178C162.475 203.756 162.227 204.225 161.73 204.584C161.234 204.939 160.594 205.117 159.809 205.117C159.277 205.117 158.805 205.023 158.391 204.836C157.98 204.645 157.658 204.385 157.424 204.057C157.189 203.725 157.072 203.367 157.072 202.984H158.678C158.693 203.285 158.805 203.516 159.012 203.676C159.219 203.836 159.496 203.916 159.844 203.916C160.168 203.916 160.412 203.855 160.576 203.734C160.744 203.609 160.828 203.447 160.828 203.248ZM165.158 198.66L165.211 199.369C165.66 198.818 166.268 198.543 167.033 198.543C167.85 198.543 168.41 198.865 168.715 199.51C169.16 198.865 169.795 198.543 170.619 198.543C171.307 198.543 171.818 198.744 172.154 199.146C172.49 199.545 172.658 200.146 172.658 200.951V205H170.959V200.957C170.959 200.598 170.889 200.336 170.748 200.172C170.607 200.004 170.359 199.92 170.004 199.92C169.496 199.92 169.145 200.162 168.949 200.646L168.955 205H167.262V200.963C167.262 200.596 167.189 200.33 167.045 200.166C166.9 200.002 166.654 199.92 166.307 199.92C165.826 199.92 165.479 200.119 165.264 200.518V205H163.57V198.66H165.158ZM177.639 205C177.561 204.848 177.504 204.658 177.469 204.432C177.059 204.889 176.525 205.117 175.869 205.117C175.248 205.117 174.732 204.938 174.322 204.578C173.916 204.219 173.713 203.766 173.713 203.219C173.713 202.547 173.961 202.031 174.457 201.672C174.957 201.312 175.678 201.131 176.619 201.127H177.398V200.764C177.398 200.471 177.322 200.236 177.17 200.061C177.021 199.885 176.785 199.797 176.461 199.797C176.176 199.797 175.951 199.865 175.787 200.002C175.627 200.139 175.547 200.326 175.547 200.564H173.854C173.854 200.197 173.967 199.857 174.193 199.545C174.42 199.232 174.74 198.988 175.154 198.812C175.568 198.633 176.033 198.543 176.549 198.543C177.33 198.543 177.949 198.74 178.406 199.135C178.867 199.525 179.098 200.076 179.098 200.787V203.535C179.102 204.137 179.186 204.592 179.35 204.9V205H177.639ZM176.238 203.822C176.488 203.822 176.719 203.768 176.93 203.658C177.141 203.545 177.297 203.395 177.398 203.207V202.117H176.766C175.918 202.117 175.467 202.41 175.412 202.996L175.406 203.096C175.406 203.307 175.48 203.48 175.629 203.617C175.777 203.754 175.98 203.822 176.238 203.822ZM183.961 200.248C183.73 200.217 183.527 200.201 183.352 200.201C182.711 200.201 182.291 200.418 182.092 200.852V205H180.398V198.66H181.998L182.045 199.416C182.385 198.834 182.855 198.543 183.457 198.543C183.645 198.543 183.82 198.568 183.984 198.619L183.961 200.248ZM187.102 197.102V198.66H188.186V199.902H187.102V203.066C187.102 203.301 187.146 203.469 187.236 203.57C187.326 203.672 187.498 203.723 187.752 203.723C187.939 203.723 188.105 203.709 188.25 203.682V204.965C187.918 205.066 187.576 205.117 187.225 205.117C186.037 205.117 185.432 204.518 185.408 203.318V199.902H184.482V198.66H185.408V197.102H187.102ZM190.781 199.352C191.23 198.812 191.795 198.543 192.475 198.543C193.85 198.543 194.547 199.342 194.566 200.939V205H192.873V200.986C192.873 200.623 192.795 200.355 192.639 200.184C192.482 200.008 192.223 199.92 191.859 199.92C191.363 199.92 191.004 200.111 190.781 200.494V205H189.088V196H190.781V199.352ZM195.58 201.771C195.58 201.143 195.701 200.582 195.943 200.09C196.186 199.598 196.533 199.217 196.986 198.947C197.443 198.678 197.973 198.543 198.574 198.543C199.43 198.543 200.127 198.805 200.666 199.328C201.209 199.852 201.512 200.562 201.574 201.461L201.586 201.895C201.586 202.867 201.314 203.648 200.771 204.238C200.229 204.824 199.5 205.117 198.586 205.117C197.672 205.117 196.941 204.824 196.395 204.238C195.852 203.652 195.58 202.855 195.58 201.848V201.771ZM197.273 201.895C197.273 202.496 197.387 202.957 197.613 203.277C197.84 203.594 198.164 203.752 198.586 203.752C198.996 203.752 199.316 203.596 199.547 203.283C199.777 202.967 199.893 202.463 199.893 201.771C199.893 201.182 199.777 200.725 199.547 200.4C199.316 200.076 198.992 199.914 198.574 199.914C198.16 199.914 197.84 200.076 197.613 200.4C197.387 200.721 197.273 201.219 197.273 201.895ZM204.217 198.66L204.27 199.369C204.719 198.818 205.326 198.543 206.092 198.543C206.908 198.543 207.469 198.865 207.773 199.51C208.219 198.865 208.854 198.543 209.678 198.543C210.365 198.543 210.877 198.744 211.213 199.146C211.549 199.545 211.717 200.146 211.717 200.951V205H210.018V200.957C210.018 200.598 209.947 200.336 209.807 200.172C209.666 200.004 209.418 199.92 209.062 199.92C208.555 199.92 208.203 200.162 208.008 200.646L208.014 205H206.32V200.963C206.32 200.596 206.248 200.33 206.104 200.166C205.959 200.002 205.713 199.92 205.365 199.92C204.885 199.92 204.537 200.119 204.322 200.518V205H202.629V198.66H204.217ZM215.941 205.117C215.012 205.117 214.254 204.832 213.668 204.262C213.086 203.691 212.795 202.932 212.795 201.982V201.818C212.795 201.182 212.918 200.613 213.164 200.113C213.41 199.609 213.758 199.223 214.207 198.953C214.66 198.68 215.176 198.543 215.754 198.543C216.621 198.543 217.303 198.816 217.799 199.363C218.299 199.91 218.549 200.686 218.549 201.689V202.381H214.512C214.566 202.795 214.73 203.127 215.004 203.377C215.281 203.627 215.631 203.752 216.053 203.752C216.705 203.752 217.215 203.516 217.582 203.043L218.414 203.975C218.16 204.334 217.816 204.615 217.383 204.818C216.949 205.018 216.469 205.117 215.941 205.117ZM215.748 199.914C215.412 199.914 215.139 200.027 214.928 200.254C214.721 200.48 214.588 200.805 214.529 201.227H216.885V201.092C216.877 200.717 216.775 200.428 216.58 200.225C216.385 200.018 216.107 199.914 215.748 199.914ZM229.113 201.859C229.07 202.859 228.822 203.654 228.369 204.244C227.92 204.83 227.314 205.123 226.553 205.123C226.217 205.123 225.926 205.051 225.68 204.906C225.438 204.762 225.254 204.555 225.129 204.285C224.738 204.832 224.229 205.105 223.6 205.105C223.029 205.105 222.588 204.865 222.275 204.385C221.963 203.904 221.846 203.27 221.924 202.48C221.994 201.836 222.156 201.264 222.41 200.764C222.668 200.26 222.992 199.873 223.383 199.604C223.773 199.334 224.195 199.199 224.648 199.199C225.207 199.199 225.684 199.328 226.078 199.586L226.447 199.838L226.148 203.225C226.109 203.533 226.143 203.77 226.248 203.934C226.357 204.098 226.529 204.18 226.764 204.18C227.123 204.18 227.424 203.971 227.666 203.553C227.908 203.131 228.041 202.58 228.064 201.9C228.131 200.537 227.855 199.49 227.238 198.76C226.625 198.025 225.715 197.658 224.508 197.658C223.754 197.658 223.082 197.85 222.492 198.232C221.902 198.615 221.438 199.16 221.098 199.867C220.758 200.57 220.566 201.377 220.523 202.287C220.461 203.67 220.738 204.738 221.355 205.492C221.973 206.25 222.896 206.629 224.127 206.629C224.451 206.629 224.791 206.592 225.146 206.518C225.502 206.447 225.809 206.352 226.066 206.23L226.289 207.133C226.051 207.289 225.729 207.414 225.322 207.508C224.92 207.605 224.514 207.654 224.104 207.654C223.072 207.654 222.193 207.445 221.467 207.027C220.74 206.613 220.197 206 219.838 205.188C219.482 204.379 219.328 203.412 219.375 202.287C219.422 201.209 219.668 200.242 220.113 199.387C220.559 198.531 221.164 197.871 221.93 197.406C222.699 196.938 223.566 196.703 224.531 196.703C225.512 196.703 226.355 196.914 227.062 197.336C227.77 197.754 228.299 198.354 228.65 199.135C229.002 199.916 229.156 200.824 229.113 201.859ZM223.225 202.48C223.182 202.996 223.227 203.389 223.359 203.658C223.492 203.924 223.707 204.057 224.004 204.057C224.195 204.057 224.377 203.973 224.549 203.805C224.721 203.637 224.863 203.395 224.977 203.078L225.223 200.307C225.07 200.256 224.914 200.23 224.754 200.23C224.305 200.23 223.955 200.422 223.705 200.805C223.459 201.188 223.299 201.746 223.225 202.48ZM230.016 201.783C230.016 200.811 230.246 200.027 230.707 199.434C231.172 198.84 231.797 198.543 232.582 198.543C233.277 198.543 233.818 198.781 234.205 199.258L234.275 198.66H235.811V204.789C235.811 205.344 235.684 205.826 235.43 206.236C235.18 206.646 234.826 206.959 234.369 207.174C233.912 207.389 233.377 207.496 232.764 207.496C232.299 207.496 231.846 207.402 231.404 207.215C230.963 207.031 230.629 206.793 230.402 206.5L231.152 205.469C231.574 205.941 232.086 206.178 232.688 206.178C233.137 206.178 233.486 206.057 233.736 205.814C233.986 205.576 234.111 205.236 234.111 204.795V204.455C233.721 204.896 233.207 205.117 232.57 205.117C231.809 205.117 231.191 204.82 230.719 204.227C230.25 203.629 230.016 202.838 230.016 201.854V201.783ZM231.709 201.906C231.709 202.48 231.824 202.932 232.055 203.26C232.285 203.584 232.602 203.746 233.004 203.746C233.52 203.746 233.889 203.553 234.111 203.166V200.5C233.885 200.113 233.52 199.92 233.016 199.92C232.609 199.92 232.289 200.086 232.055 200.418C231.824 200.75 231.709 201.246 231.709 201.906ZM238.705 198.66L238.758 199.369C239.207 198.818 239.814 198.543 240.58 198.543C241.396 198.543 241.957 198.865 242.262 199.51C242.707 198.865 243.342 198.543 244.166 198.543C244.854 198.543 245.365 198.744 245.701 199.146C246.037 199.545 246.205 200.146 246.205 200.951V205H244.506V200.957C244.506 200.598 244.436 200.336 244.295 200.172C244.154 200.004 243.906 199.92 243.551 199.92C243.043 199.92 242.691 200.162 242.496 200.646L242.502 205H240.809V200.963C240.809 200.596 240.736 200.33 240.592 200.166C240.447 200.002 240.201 199.92 239.854 199.92C239.373 199.92 239.025 200.119 238.811 200.518V205H237.117V198.66H238.705ZM251.186 205C251.107 204.848 251.051 204.658 251.016 204.432C250.605 204.889 250.072 205.117 249.416 205.117C248.795 205.117 248.279 204.938 247.869 204.578C247.463 204.219 247.26 203.766 247.26 203.219C247.26 202.547 247.508 202.031 248.004 201.672C248.504 201.312 249.225 201.131 250.166 201.127H250.945V200.764C250.945 200.471 250.869 200.236 250.717 200.061C250.568 199.885 250.332 199.797 250.008 199.797C249.723 199.797 249.498 199.865 249.334 200.002C249.174 200.139 249.094 200.326 249.094 200.564H247.4C247.4 200.197 247.514 199.857 247.74 199.545C247.967 199.232 248.287 198.988 248.701 198.812C249.115 198.633 249.58 198.543 250.096 198.543C250.877 198.543 251.496 198.74 251.953 199.135C252.414 199.525 252.645 200.076 252.645 200.787V203.535C252.648 204.137 252.732 204.592 252.896 204.9V205H251.186ZM249.785 203.822C250.035 203.822 250.266 203.768 250.477 203.658C250.688 203.545 250.844 203.395 250.945 203.207V202.117H250.312C249.465 202.117 249.014 202.41 248.959 202.996L248.953 203.096C248.953 203.307 249.027 203.48 249.176 203.617C249.324 203.754 249.527 203.822 249.785 203.822ZM255.732 205H254.033V198.66H255.732V205ZM253.934 197.02C253.934 196.766 254.018 196.557 254.186 196.393C254.357 196.229 254.59 196.146 254.883 196.146C255.172 196.146 255.402 196.229 255.574 196.393C255.746 196.557 255.832 196.766 255.832 197.02C255.832 197.277 255.744 197.488 255.568 197.652C255.396 197.816 255.168 197.898 254.883 197.898C254.598 197.898 254.367 197.816 254.191 197.652C254.02 197.488 253.934 197.277 253.934 197.02ZM258.92 205H257.221V196H258.92V205ZM260.408 204.168C260.408 203.898 260.498 203.68 260.678 203.512C260.861 203.344 261.09 203.26 261.363 203.26C261.641 203.26 261.869 203.344 262.049 203.512C262.232 203.68 262.324 203.898 262.324 204.168C262.324 204.434 262.234 204.65 262.055 204.818C261.875 204.982 261.645 205.064 261.363 205.064C261.086 205.064 260.857 204.982 260.678 204.818C260.498 204.65 260.408 204.434 260.408 204.168ZM266.449 203.752C266.762 203.752 267.016 203.666 267.211 203.494C267.406 203.322 267.508 203.094 267.516 202.809H269.104C269.1 203.238 268.982 203.633 268.752 203.992C268.521 204.348 268.205 204.625 267.803 204.824C267.404 205.02 266.963 205.117 266.479 205.117C265.572 205.117 264.857 204.83 264.334 204.256C263.811 203.678 263.549 202.881 263.549 201.865V201.754C263.549 200.777 263.809 199.998 264.328 199.416C264.848 198.834 265.561 198.543 266.467 198.543C267.26 198.543 267.895 198.77 268.371 199.223C268.852 199.672 269.096 200.271 269.104 201.021H267.516C267.508 200.693 267.406 200.428 267.211 200.225C267.016 200.018 266.758 199.914 266.438 199.914C266.043 199.914 265.744 200.059 265.541 200.348C265.342 200.633 265.242 201.098 265.242 201.742V201.918C265.242 202.57 265.342 203.039 265.541 203.324C265.74 203.609 266.043 203.752 266.449 203.752ZM269.807 201.771C269.807 201.143 269.928 200.582 270.17 200.09C270.412 199.598 270.76 199.217 271.213 198.947C271.67 198.678 272.199 198.543 272.801 198.543C273.656 198.543 274.354 198.805 274.893 199.328C275.436 199.852 275.738 200.562 275.801 201.461L275.812 201.895C275.812 202.867 275.541 203.648 274.998 204.238C274.455 204.824 273.727 205.117 272.812 205.117C271.898 205.117 271.168 204.824 270.621 204.238C270.078 203.652 269.807 202.855 269.807 201.848V201.771ZM271.5 201.895C271.5 202.496 271.613 202.957 271.84 203.277C272.066 203.594 272.391 203.752 272.812 203.752C273.223 203.752 273.543 203.596 273.773 203.283C274.004 202.967 274.119 202.463 274.119 201.771C274.119 201.182 274.004 200.725 273.773 200.4C273.543 200.076 273.219 199.914 272.801 199.914C272.387 199.914 272.066 200.076 271.84 200.4C271.613 200.721 271.5 201.219 271.5 201.895ZM278.443 198.66L278.496 199.369C278.945 198.818 279.553 198.543 280.318 198.543C281.135 198.543 281.695 198.865 282 199.51C282.445 198.865 283.08 198.543 283.904 198.543C284.592 198.543 285.104 198.744 285.439 199.146C285.775 199.545 285.943 200.146 285.943 200.951V205H284.244V200.957C284.244 200.598 284.174 200.336 284.033 200.172C283.893 200.004 283.645 199.92 283.289 199.92C282.781 199.92 282.43 200.162 282.234 200.646L282.24 205H280.547V200.963C280.547 200.596 280.475 200.33 280.33 200.166C280.186 200.002 279.939 199.92 279.592 199.92C279.111 199.92 278.764 200.119 278.549 200.518V205H276.855V198.66H278.443Z" fill="#303C34"/>
<line x1="62" y1="279.5" x2="87" y2="279.5" stroke="#303C34"/>
<line x1="107" y1="279.5" x2="132" y2="279.5" stroke="#303C34"/>
<line x1="152" y1="279.5" x2="177" y2="279.5" stroke="#303C34"/>
<line x1="197" y1="279.5" x2="222" y2="279.5" stroke="#303C34"/>
<line x1="242" y1="279.5" x2="267" y2="279.5" stroke="#303C34"/>
<line x1="287" y1="279.5" x2="312" y2="279.5" stroke="#303C34"/>
<path d="M77.4961 273H74.1094V259.945L70.0664 261.199V258.445L77.1328 255.914H77.4961V273Z" fill="#303C34"/>
<path d="M304.965 273H293.27V270.68L298.789 264.797C299.547 263.969 300.105 263.246 300.465 262.629C300.832 262.012 301.016 261.426 301.016 260.871C301.016 260.113 300.824 259.52 300.441 259.09C300.059 258.652 299.512 258.434 298.801 258.434C298.035 258.434 297.43 258.699 296.984 259.23C296.547 259.754 296.328 260.445 296.328 261.305H292.93C292.93 260.266 293.176 259.316 293.668 258.457C294.168 257.598 294.871 256.926 295.777 256.441C296.684 255.949 297.711 255.703 298.859 255.703C300.617 255.703 301.98 256.125 302.949 256.969C303.926 257.812 304.414 259.004 304.414 260.543C304.414 261.387 304.195 262.246 303.758 263.121C303.32 263.996 302.57 265.016 301.508 266.18L297.629 270.27H304.965V273Z" fill="#303C34"/>
<path d="M212.496 273H209.109V259.945L205.066 261.199V258.445L212.133 255.914H212.496V273Z" fill="#303C34"/>
<path d="M249.773 264.609L250.758 255.938H260.32V258.762H253.535L253.113 262.43C253.918 262 254.773 261.785 255.68 261.785C257.305 261.785 258.578 262.289 259.5 263.297C260.422 264.305 260.883 265.715 260.883 267.527C260.883 268.629 260.648 269.617 260.18 270.492C259.719 271.359 259.055 272.035 258.188 272.52C257.32 272.996 256.297 273.234 255.117 273.234C254.086 273.234 253.129 273.027 252.246 272.613C251.363 272.191 250.664 271.602 250.148 270.844C249.641 270.086 249.371 269.223 249.34 268.254H252.691C252.762 268.965 253.008 269.52 253.43 269.918C253.859 270.309 254.418 270.504 255.105 270.504C255.871 270.504 256.461 270.23 256.875 269.684C257.289 269.129 257.496 268.348 257.496 267.34C257.496 266.371 257.258 265.629 256.781 265.113C256.305 264.598 255.629 264.34 254.754 264.34C253.949 264.34 253.297 264.551 252.797 264.973L252.469 265.277L249.773 264.609Z" fill="#303C34"/>
<path d="M162.715 262.969H164.52C165.379 262.969 166.016 262.754 166.43 262.324C166.844 261.895 167.051 261.324 167.051 260.613C167.051 259.926 166.844 259.391 166.43 259.008C166.023 258.625 165.461 258.434 164.742 258.434C164.094 258.434 163.551 258.613 163.113 258.973C162.676 259.324 162.457 259.785 162.457 260.355H159.07C159.07 259.465 159.309 258.668 159.785 257.965C160.27 257.254 160.941 256.699 161.801 256.301C162.668 255.902 163.621 255.703 164.66 255.703C166.465 255.703 167.879 256.137 168.902 257.004C169.926 257.863 170.438 259.051 170.438 260.566C170.438 261.348 170.199 262.066 169.723 262.723C169.246 263.379 168.621 263.883 167.848 264.234C168.809 264.578 169.523 265.094 169.992 265.781C170.469 266.469 170.707 267.281 170.707 268.219C170.707 269.734 170.152 270.949 169.043 271.863C167.941 272.777 166.48 273.234 164.66 273.234C162.957 273.234 161.562 272.785 160.477 271.887C159.398 270.988 158.859 269.801 158.859 268.324H162.246C162.246 268.965 162.484 269.488 162.961 269.895C163.445 270.301 164.039 270.504 164.742 270.504C165.547 270.504 166.176 270.293 166.629 269.871C167.09 269.441 167.32 268.875 167.32 268.172C167.32 266.469 166.383 265.617 164.508 265.617H162.715V262.969Z" fill="#303C34"/>
<path d="M122.496 273H119.109V259.945L115.066 261.199V258.445L122.133 255.914H122.496V273Z" fill="#303C34"/>
<g filter="url(#filter0_d_111_1140)">
<path d="M0 44H375V124H0V44Z" fill="white"/>
<path d="M26.8199 89.0381L31.9511 83.9068L37.7894 89.7452C39.8089 91.7646 39.8089 95.0388 37.7894 97.0583C36.975 97.8727 35.6545 97.8727 34.84 97.0583L26.8199 89.0381Z" fill="white" stroke="#303C34" stroke-width="2"/>
<path d="M26.5454 88.5858L24.2426 86.283C22.6805 84.7209 22.6805 82.1882 24.2426 80.6261L35.9798 68.8889C36.7942 68.0745 38.1148 68.0745 38.9292 68.8889C40.9487 70.9084 40.9487 74.1825 38.9292 76.202L26.5454 88.5858Z" fill="white" stroke="#9EC5AB" stroke-width="2"/>
<rect width="375" height="44" fill="white"/>
<path fill-rule="evenodd" clip-rule="evenodd" d="M294 20H295C295.552 20 296 20.4477 296 21V27C296 27.5523 295.552 28 295 28H294C293.448 28 293 27.5523 293 27V21C293 20.4477 293.448 20 294 20Z" fill="#D1D1D6"/>
<path fill-rule="evenodd" clip-rule="evenodd" d="M289.5 22H290.5C291.052 22 291.5 22.4477 291.5 23V27C291.5 27.5523 291.052 28 290.5 28H289.5C288.948 28 288.5 27.5523 288.5 27V23C288.5 22.4477 288.948 22 289.5 22Z" fill="#D1D1D6"/>
<path fill-rule="evenodd" clip-rule="evenodd" d="M285 23.5H286C286.552 23.5 287 23.9477 287 24.5V27C287 27.5523 286.552 28 286 28H285C284.448 28 284 27.5523 284 27V24.5C284 23.9477 284.448 23.5 285 23.5Z" fill="#D1D1D6"/>
<path fill-rule="evenodd" clip-rule="evenodd" d="M298.5 18H299.5C300.052 18 300.5 18.4477 300.5 19V27C300.5 27.5523 300.052 28 299.5 28H298.5C297.948 28 297.5 27.5523 297.5 27V19C297.5 18.4477 297.948 18 298.5 18Z" fill="#3C3C43" fill-opacity="0.18"/>
<path fill-rule="evenodd" clip-rule="evenodd" d="M294 20H295C295.552 20 296 20.4477 296 21V27C296 27.5523 295.552 28 295 28H294C293.448 28 293 27.5523 293 27V21C293 20.4477 293.448 20 294 20Z" fill="black"/>
<path fill-rule="evenodd" clip-rule="evenodd" d="M289.5 22H290.5C291.052 22 291.5 22.4477 291.5 23V27C291.5 27.5523 291.052 28 290.5 28H289.5C288.948 28 288.5 27.5523 288.5 27V23C288.5 22.4477 288.948 22 289.5 22Z" fill="black"/>
<path fill-rule="evenodd" clip-rule="evenodd" d="M285 23.5H286C286.552 23.5 287 23.9477 287 24.5V27C287 27.5523 286.552 28 286 28H285C284.448 28 284 27.5523 284 27V24.5C284 23.9477 284.448 23.5 285 23.5Z" fill="black"/>
<path d="M314.133 24.9395C314.772 24.9395 315.394 25.1075 315.941 25.4279L316.163 25.5577C316.331 25.6562 316.361 25.8865 316.223 26.024L314.329 27.9129C314.212 28.0289 314.024 28.0289 313.907 27.9129L312.026 26.0362C311.888 25.8993 311.917 25.6701 312.084 25.5709L312.303 25.4405C312.855 25.112 313.485 24.9395 314.133 24.9395Z" fill="black"/>
<path d="M314.133 21.4697C315.724 21.4697 317.251 21.9975 318.495 22.9748L318.671 23.1129C318.811 23.223 318.824 23.4305 318.697 23.5564L317.567 24.684C317.462 24.7883 317.297 24.8003 317.178 24.7121L317.04 24.6097C316.2 23.9851 315.186 23.6501 314.133 23.6501C313.073 23.6501 312.053 23.9893 311.21 24.621L311.072 24.7244C310.953 24.8133 310.787 24.8016 310.682 24.697L309.552 23.5697C309.426 23.4442 309.438 23.2372 309.578 23.1269L309.753 22.9886C311 22.0026 312.534 21.4697 314.133 21.4697Z" fill="black"/>
<path d="M314.133 18C316.657 18 319.072 18.8906 320.983 20.5229L321.146 20.6623C321.278 20.7749 321.285 20.9756 321.163 21.098L320.036 22.2219C319.926 22.3308 319.752 22.3385 319.634 22.2395L319.494 22.1228C317.989 20.8647 316.104 20.1804 314.133 20.1804C312.155 20.1804 310.263 20.8694 308.756 22.1354L308.617 22.2527C308.498 22.3521 308.324 22.3447 308.214 22.2356L307.087 21.1118C306.965 20.9895 306.972 20.7892 307.104 20.6765L307.266 20.5371C309.18 18.8959 311.601 18 314.133 18Z" fill="black"/>
<path d="M350 21C350.552 21 351 21.4477 351 22V24C351 24.5523 350.552 25 350 25V21Z" fill="#3C3C43" fill-opacity="0.6"/>
<path fill-rule="evenodd" clip-rule="evenodd" d="M329 17H346C347.657 17 349 18.3431 349 20V26C349 27.6569 347.657 29 346 29H329C327.343 29 326 27.6569 326 26V20C326 18.3431 327.343 17 329 17ZM329 18C327.895 18 327 18.8954 327 20V26C327 27.1046 327.895 28 329 28H346C347.105 28 348 27.1046 348 26V20C348 18.8954 347.105 18 346 18H329Z" fill="#3C3C43" fill-opacity="0.6"/>
<rect x="328" y="19" width="19" height="8" rx="1" fill="black"/>
<path d="M37.8672 28.0889C40.5552 28.0889 42.1519 25.9868 42.1519 22.4272C42.1519 21.0869 41.8955 19.959 41.4048 19.0874C40.6943 17.7324 39.4712 17 37.9258 17C35.626 17 34 18.5454 34 20.7134C34 22.7495 35.4648 24.229 37.479 24.229C38.7168 24.229 39.7202 23.6504 40.2183 22.647H40.2402C40.2402 22.647 40.2695 22.647 40.2769 22.647C40.2915 22.647 40.3428 22.647 40.3428 22.647C40.3428 25.064 39.4272 26.5068 37.8818 26.5068C36.9736 26.5068 36.2705 26.0088 36.0288 25.2104H34.1465C34.4614 26.9463 35.9336 28.0889 37.8672 28.0889ZM37.9331 22.7275C36.7173 22.7275 35.853 21.8633 35.853 20.6548C35.853 19.4756 36.7612 18.5747 37.9404 18.5747C39.1196 18.5747 40.0278 19.4902 40.0278 20.6841C40.0278 21.8633 39.1416 22.7275 37.9331 22.7275Z" fill="black"/>
<path d="M45.243 27.9863C45.9388 27.9863 46.4148 27.4883 46.4148 26.8291C46.4148 26.1626 45.9388 25.6719 45.243 25.6719C44.5545 25.6719 44.0711 26.1626 44.0711 26.8291C44.0711 27.4883 44.5545 27.9863 45.243 27.9863ZM45.243 22.4932C45.9388 22.4932 46.4148 22.0024 46.4148 21.3433C46.4148 20.6768 45.9388 20.186 45.243 20.186C44.5545 20.186 44.0711 20.6768 44.0711 21.3433C44.0711 22.0024 44.5545 22.4932 45.243 22.4932Z" fill="black"/>
<path d="M53.2706 27.8325H55.0797V25.8623H56.5079V24.2656H55.0797V17.2637H52.4137C50.546 20.0762 49.0592 22.4272 48.107 24.1777V25.8623H53.2706V27.8325ZM49.8575 24.1997C51.088 22.0317 52.1866 20.2959 53.1974 18.8018H53.2999V24.3096H49.8575V24.1997Z" fill="black"/>
<path d="M60.5365 27.8325H62.4262V17.2637H60.5438L57.7826 19.1973V21.0137L60.412 19.168H60.5365V27.8325Z" fill="black"/>
<path d="M74.8242 84.8379H69.1992V88.6465H75.8008V91H66.2695V76.7812H75.7812V79.1543H69.1992V82.543H74.8242V84.8379ZM79.9316 80.4336L80.0195 81.6543C80.7747 80.7103 81.7871 80.2383 83.0566 80.2383C84.1764 80.2383 85.0098 80.5671 85.5566 81.2246C86.1035 81.8822 86.3835 82.8652 86.3965 84.1738V91H83.5742V84.2422C83.5742 83.6432 83.444 83.2103 83.1836 82.9434C82.9232 82.6699 82.4902 82.5332 81.8848 82.5332C81.0905 82.5332 80.4948 82.8717 80.0977 83.5488V91H77.2754V80.4336H79.9316ZM91.9238 77.8359V80.4336H93.7305V82.5039H91.9238V87.7773C91.9238 88.168 91.9987 88.4479 92.1484 88.6172C92.2982 88.7865 92.5846 88.8711 93.0078 88.8711C93.3203 88.8711 93.597 88.8483 93.8379 88.8027V90.9414C93.2845 91.1107 92.7148 91.1953 92.1289 91.1953C90.1497 91.1953 89.1406 90.196 89.1016 88.1973V82.5039H87.5586V80.4336H89.1016V77.8359H91.9238ZM100.166 91.1953C98.6165 91.1953 97.3535 90.7201 96.377 89.7695C95.4069 88.819 94.9219 87.5527 94.9219 85.9707V85.6973C94.9219 84.6361 95.127 83.6888 95.5371 82.8555C95.9473 82.0156 96.5267 81.3711 97.2754 80.9219C98.0306 80.4661 98.89 80.2383 99.8535 80.2383C101.299 80.2383 102.435 80.694 103.262 81.6055C104.095 82.5169 104.512 83.8092 104.512 85.4824V86.6348H97.7832C97.8743 87.3249 98.1478 87.8783 98.6035 88.2949C99.0658 88.7116 99.6484 88.9199 100.352 88.9199C101.439 88.9199 102.288 88.526 102.9 87.7383L104.287 89.291C103.864 89.89 103.291 90.3587 102.568 90.6973C101.846 91.0293 101.045 91.1953 100.166 91.1953ZM99.8438 82.5234C99.2839 82.5234 98.8281 82.7122 98.4766 83.0898C98.1315 83.4674 97.9102 84.0078 97.8125 84.7109H101.738V84.4863C101.725 83.8613 101.556 83.3796 101.23 83.041C100.905 82.696 100.443 82.5234 99.8438 82.5234ZM112.061 83.0801C111.676 83.028 111.338 83.002 111.045 83.002C109.977 83.002 109.277 83.3633 108.945 84.0859V91H106.123V80.4336H108.789L108.867 81.6934C109.434 80.7233 110.218 80.2383 111.221 80.2383C111.533 80.2383 111.826 80.2806 112.1 80.3652L112.061 83.0801ZM128.711 79.1543H124.355V91H121.426V79.1543H117.129V76.7812H128.711V79.1543ZM132.959 81.5859C133.708 80.6875 134.648 80.2383 135.781 80.2383C138.073 80.2383 139.235 81.5697 139.268 84.2324V91H136.445V84.3105C136.445 83.7051 136.315 83.2591 136.055 82.9727C135.794 82.6797 135.361 82.5332 134.756 82.5332C133.929 82.5332 133.33 82.8522 132.959 83.4902V91H130.137V76H132.959V81.5859ZM146.26 91.1953C144.71 91.1953 143.447 90.7201 142.471 89.7695C141.501 88.819 141.016 87.5527 141.016 85.9707V85.6973C141.016 84.6361 141.221 83.6888 141.631 82.8555C142.041 82.0156 142.62 81.3711 143.369 80.9219C144.124 80.4661 144.984 80.2383 145.947 80.2383C147.393 80.2383 148.529 80.694 149.355 81.6055C150.189 82.5169 150.605 83.8092 150.605 85.4824V86.6348H143.877C143.968 87.3249 144.242 87.8783 144.697 88.2949C145.16 88.7116 145.742 88.9199 146.445 88.9199C147.533 88.9199 148.382 88.526 148.994 87.7383L150.381 89.291C149.958 89.89 149.385 90.3587 148.662 90.6973C147.939 91.0293 147.139 91.1953 146.26 91.1953ZM145.938 82.5234C145.378 82.5234 144.922 82.7122 144.57 83.0898C144.225 83.4674 144.004 84.0078 143.906 84.7109H147.832V84.4863C147.819 83.8613 147.65 83.3796 147.324 83.041C146.999 82.696 146.536 82.5234 145.938 82.5234ZM162.637 87.4746L165.859 76.7812H169.121L164.17 91H161.113L156.182 76.7812H159.434L162.637 87.4746ZM174.717 91.1953C173.167 91.1953 171.904 90.7201 170.928 89.7695C169.958 88.819 169.473 87.5527 169.473 85.9707V85.6973C169.473 84.6361 169.678 83.6888 170.088 82.8555C170.498 82.0156 171.077 81.3711 171.826 80.9219C172.581 80.4661 173.441 80.2383 174.404 80.2383C175.85 80.2383 176.986 80.694 177.812 81.6055C178.646 82.5169 179.062 83.8092 179.062 85.4824V86.6348H172.334C172.425 87.3249 172.699 87.8783 173.154 88.2949C173.617 88.7116 174.199 88.9199 174.902 88.9199C175.99 88.9199 176.839 88.526 177.451 87.7383L178.838 89.291C178.415 89.89 177.842 90.3587 177.119 90.6973C176.396 91.0293 175.596 91.1953 174.717 91.1953ZM174.395 82.5234C173.835 82.5234 173.379 82.7122 173.027 83.0898C172.682 83.4674 172.461 84.0078 172.363 84.7109H176.289V84.4863C176.276 83.8613 176.107 83.3796 175.781 83.041C175.456 82.696 174.993 82.5234 174.395 82.5234ZM186.611 83.0801C186.227 83.028 185.889 83.002 185.596 83.002C184.528 83.002 183.828 83.3633 183.496 84.0859V91H180.674V80.4336H183.34L183.418 81.6934C183.984 80.7233 184.769 80.2383 185.771 80.2383C186.084 80.2383 186.377 80.2806 186.65 80.3652L186.611 83.0801ZM190.957 91H188.125V80.4336H190.957V91ZM187.959 77.6992C187.959 77.276 188.099 76.9277 188.379 76.6543C188.665 76.3809 189.053 76.2441 189.541 76.2441C190.023 76.2441 190.407 76.3809 190.693 76.6543C190.98 76.9277 191.123 77.276 191.123 77.6992C191.123 78.1289 190.977 78.4805 190.684 78.7539C190.397 79.0273 190.016 79.1641 189.541 79.1641C189.066 79.1641 188.682 79.0273 188.389 78.7539C188.102 78.4805 187.959 78.1289 187.959 77.6992ZM193.975 91V82.5039H192.402V80.4336H193.975V79.9453C193.988 78.6172 194.395 77.5951 195.195 76.8789C196.003 76.1562 197.139 75.7949 198.604 75.7949C199.482 75.7949 200.55 75.987 201.807 76.3711L201.396 78.7051C200.758 78.5163 200.264 78.3958 199.912 78.3438C199.561 78.2852 199.183 78.2559 198.779 78.2559C197.464 78.2559 196.807 78.8385 196.807 80.0039V80.4336H198.887V82.5039H196.807V91H193.975ZM203.125 91H200.293V80.4336H203.125V91ZM209.854 88.9199C210.374 88.9199 210.798 88.7767 211.123 88.4902C211.449 88.2038 211.618 87.8229 211.631 87.3477H214.277C214.271 88.0638 214.076 88.7214 213.691 89.3203C213.307 89.9128 212.78 90.375 212.109 90.707C211.445 91.0326 210.71 91.1953 209.902 91.1953C208.392 91.1953 207.201 90.7168 206.328 89.7598C205.456 88.7962 205.02 87.4681 205.02 85.7754V85.5898C205.02 83.9622 205.452 82.6634 206.318 81.6934C207.184 80.7233 208.372 80.2383 209.883 80.2383C211.204 80.2383 212.262 80.6159 213.057 81.3711C213.857 82.1198 214.264 83.1191 214.277 84.3691H211.631C211.618 83.8223 211.449 83.3796 211.123 83.041C210.798 82.696 210.368 82.5234 209.834 82.5234C209.176 82.5234 208.678 82.7643 208.34 83.2461C208.008 83.7214 207.842 84.4961 207.842 85.5703V85.8633C207.842 86.9505 208.008 87.7318 208.34 88.207C208.672 88.6823 209.176 88.9199 209.854 88.9199ZM222.012 91C221.882 90.7461 221.787 90.4303 221.729 90.0527C221.045 90.8145 220.156 91.1953 219.062 91.1953C218.027 91.1953 217.168 90.8958 216.484 90.2969C215.807 89.6979 215.469 88.9427 215.469 88.0312C215.469 86.9115 215.882 86.0521 216.709 85.4531C217.542 84.8542 218.743 84.5514 220.312 84.5449H221.611V83.9395C221.611 83.4512 221.484 83.0605 221.23 82.7676C220.983 82.4746 220.589 82.3281 220.049 82.3281C219.574 82.3281 219.199 82.4421 218.926 82.6699C218.659 82.8978 218.525 83.2103 218.525 83.6074H215.703C215.703 82.9954 215.892 82.429 216.27 81.9082C216.647 81.3874 217.181 80.9805 217.871 80.6875C218.561 80.388 219.336 80.2383 220.195 80.2383C221.497 80.2383 222.529 80.5671 223.291 81.2246C224.059 81.8757 224.443 82.7936 224.443 83.9785V88.5586C224.45 89.5612 224.59 90.3197 224.863 90.834V91H222.012ZM219.678 89.0371C220.094 89.0371 220.479 88.946 220.83 88.7637C221.182 88.5749 221.442 88.3242 221.611 88.0117V86.1953H220.557C219.144 86.1953 218.392 86.6836 218.301 87.6602L218.291 87.8262C218.291 88.1777 218.415 88.4674 218.662 88.6953C218.91 88.9232 219.248 89.0371 219.678 89.0371ZM229.99 77.8359V80.4336H231.797V82.5039H229.99V87.7773C229.99 88.168 230.065 88.4479 230.215 88.6172C230.365 88.7865 230.651 88.8711 231.074 88.8711C231.387 88.8711 231.663 88.8483 231.904 88.8027V90.9414C231.351 91.1107 230.781 91.1953 230.195 91.1953C228.216 91.1953 227.207 90.196 227.168 88.1973V82.5039H225.625V80.4336H227.168V77.8359H229.99ZM236.348 91H233.516V80.4336H236.348V91ZM233.35 77.6992C233.35 77.276 233.49 76.9277 233.77 76.6543C234.056 76.3809 234.443 76.2441 234.932 76.2441C235.413 76.2441 235.798 76.3809 236.084 76.6543C236.37 76.9277 236.514 77.276 236.514 77.6992C236.514 78.1289 236.367 78.4805 236.074 78.7539C235.788 79.0273 235.407 79.1641 234.932 79.1641C234.456 79.1641 234.072 79.0273 233.779 78.7539C233.493 78.4805 233.35 78.1289 233.35 77.6992ZM238.242 85.6191C238.242 84.571 238.444 83.6367 238.848 82.8164C239.251 81.9961 239.831 81.3613 240.586 80.9121C241.348 80.4629 242.23 80.2383 243.232 80.2383C244.658 80.2383 245.82 80.6745 246.719 81.5469C247.624 82.4193 248.128 83.6042 248.232 85.1016L248.252 85.8242C248.252 87.4453 247.799 88.7474 246.895 89.7305C245.99 90.707 244.775 91.1953 243.252 91.1953C241.729 91.1953 240.511 90.707 239.6 89.7305C238.695 88.7539 238.242 87.4258 238.242 85.7461V85.6191ZM241.064 85.8242C241.064 86.8268 241.253 87.5951 241.631 88.1289C242.008 88.6562 242.549 88.9199 243.252 88.9199C243.936 88.9199 244.469 88.6595 244.854 88.1387C245.238 87.6113 245.43 86.7715 245.43 85.6191C245.43 84.6361 245.238 83.8743 244.854 83.334C244.469 82.7936 243.929 82.5234 243.232 82.5234C242.542 82.5234 242.008 82.7936 241.631 83.334C241.253 83.8678 241.064 84.6979 241.064 85.8242ZM252.588 80.4336L252.676 81.6543C253.431 80.7103 254.443 80.2383 255.713 80.2383C256.833 80.2383 257.666 80.5671 258.213 81.2246C258.76 81.8822 259.04 82.8652 259.053 84.1738V91H256.23V84.2422C256.23 83.6432 256.1 83.2103 255.84 82.9434C255.579 82.6699 255.146 82.5332 254.541 82.5332C253.747 82.5332 253.151 82.8717 252.754 83.5488V91H249.932V80.4336H252.588ZM277.529 86.2637C277.419 87.7936 276.852 88.998 275.83 89.877C274.814 90.7559 273.473 91.1953 271.807 91.1953C269.984 91.1953 268.548 90.5833 267.5 89.3594C266.458 88.1289 265.938 86.4427 265.938 84.3008V83.4316C265.938 82.0645 266.178 80.86 266.66 79.8184C267.142 78.7767 267.829 77.9792 268.721 77.4258C269.619 76.8659 270.661 76.5859 271.846 76.5859C273.486 76.5859 274.808 77.0254 275.811 77.9043C276.813 78.7832 277.393 80.0169 277.549 81.6055H274.619C274.548 80.6875 274.29 80.0234 273.848 79.6133C273.411 79.1966 272.744 78.9883 271.846 78.9883C270.869 78.9883 270.137 79.3398 269.648 80.043C269.167 80.7396 268.919 81.8236 268.906 83.2949V84.3691C268.906 85.9056 269.137 87.0286 269.6 87.7383C270.068 88.4479 270.804 88.8027 271.807 88.8027C272.712 88.8027 273.385 88.5977 273.828 88.1875C274.277 87.7708 274.535 87.1296 274.6 86.2637H277.529ZM278.828 85.6191C278.828 84.571 279.03 83.6367 279.434 82.8164C279.837 81.9961 280.417 81.3613 281.172 80.9121C281.934 80.4629 282.816 80.2383 283.818 80.2383C285.244 80.2383 286.406 80.6745 287.305 81.5469C288.21 82.4193 288.714 83.6042 288.818 85.1016L288.838 85.8242C288.838 87.4453 288.385 88.7474 287.48 89.7305C286.576 90.707 285.361 91.1953 283.838 91.1953C282.314 91.1953 281.097 90.707 280.186 89.7305C279.281 88.7539 278.828 87.4258 278.828 85.7461V85.6191ZM281.65 85.8242C281.65 86.8268 281.839 87.5951 282.217 88.1289C282.594 88.6562 283.135 88.9199 283.838 88.9199C284.521 88.9199 285.055 88.6595 285.439 88.1387C285.824 87.6113 286.016 86.7715 286.016 85.6191C286.016 84.6361 285.824 83.8743 285.439 83.334C285.055 82.7936 284.515 82.5234 283.818 82.5234C283.128 82.5234 282.594 82.7936 282.217 83.334C281.839 83.8678 281.65 84.6979 281.65 85.8242ZM290.137 85.6387C290.137 83.9915 290.505 82.6797 291.24 81.7031C291.982 80.7266 292.995 80.2383 294.277 80.2383C295.306 80.2383 296.156 80.6224 296.826 81.3906V76H299.658V91H297.109L296.973 89.877C296.27 90.7559 295.365 91.1953 294.258 91.1953C293.014 91.1953 292.015 90.707 291.26 89.7305C290.511 88.7474 290.137 87.3835 290.137 85.6387ZM292.959 85.8438C292.959 86.8333 293.132 87.5918 293.477 88.1191C293.822 88.6465 294.323 88.9102 294.98 88.9102C295.853 88.9102 296.468 88.5423 296.826 87.8066V83.6367C296.475 82.901 295.866 82.5332 295 82.5332C293.639 82.5332 292.959 83.6367 292.959 85.8438ZM306.709 91.1953C305.16 91.1953 303.896 90.7201 302.92 89.7695C301.95 88.819 301.465 87.5527 301.465 85.9707V85.6973C301.465 84.6361 301.67 83.6888 302.08 82.8555C302.49 82.0156 303.07 81.3711 303.818 80.9219C304.574 80.4661 305.433 80.2383 306.396 80.2383C307.842 80.2383 308.978 80.694 309.805 81.6055C310.638 82.5169 311.055 83.8092 311.055 85.4824V86.6348H304.326C304.417 87.3249 304.691 87.8783 305.146 88.2949C305.609 88.7116 306.191 88.9199 306.895 88.9199C307.982 88.9199 308.831 88.526 309.443 87.7383L310.83 89.291C310.407 89.89 309.834 90.3587 309.111 90.6973C308.389 91.0293 307.588 91.1953 306.709 91.1953ZM306.387 82.5234C305.827 82.5234 305.371 82.7122 305.02 83.0898C304.674 83.4674 304.453 84.0078 304.355 84.7109H308.281V84.4863C308.268 83.8613 308.099 83.3796 307.773 83.041C307.448 82.696 306.986 82.5234 306.387 82.5234Z" fill="black"/>
</g>
</g>
<defs>
<filter id="filter0_d_111_1140" x="-50" y="-46" width="475" height="224" filterUnits="userSpaceOnUse" color-interpolation-filters="sRGB">
<feFlood flood-opacity="0" result="BackgroundImageFix"/>
<feColorMatrix in="SourceAlpha" type="matrix" values="0 0 0 0 0 0 0 0 0 0 0 0 0 0 0 0 0 0 127 0" result="hardAlpha"/>
<feOffset dy="4"/>
<feGaussianBlur stdDeviation="25"/>
<feComposite in2="hardAlpha" operator="out"/>
<feColorMatrix type="matrix" values="0 0 0 0 0 0 0 0 0 0 0 0 0 0 0 0 0 0 0.1 0"/>
<feBlend mode="normal" in2="BackgroundImageFix" result="effect1_dropShadow_111_1140"/>
<feBlend mode="normal" in="SourceGraphic" in2="effect1_dropShadow_111_1140" result="shape"/>
</filter>
<clipPath id="clip0_111_1140">
<rect width="375" height="812" fill="white"/>
</clipPath>
</defs>
</svg>
