<svg width="188" height="74" viewBox="0 0 188 74" fill="none" xmlns="http://www.w3.org/2000/svg">
<path d="M63 39.9627H23L43.0007 2.5L63 39.9627Z" fill="#E25750"/>
<path d="M103 0H63V40H103V0Z" fill="#FFF987"/>
<path d="M123 0C112.015 0 103 9.01484 103 20C103 30.9852 112.015 40 123 40C133.985 40 143 30.9852 143 20C143 9.01484 133.985 0 123 0Z" fill="#9ECDFE"/>
<line x1="137.073" y1="0.656521" x2="154.629" y2="43.2887" stroke="#030303" stroke-width="2"/>
<path d="M5.19531 49.0781L5.14844 52.9688H7.48047V54.457H5.125L4.96094 65.9531H3.51953L3.42578 54.457H0.789062V52.9688H3.42578L3.40234 48.9609L5.19531 49.0781ZM17.7461 59.4258C17.7305 60.2148 17.707 61 17.6758 61.7812C17.6602 62.1172 17.6445 62.4688 17.6289 62.8359C17.6133 63.2031 17.5938 63.5742 17.5703 63.9492C17.5547 64.3164 17.5312 64.6797 17.5 65.0391C17.4766 65.3984 17.4531 65.7344 17.4297 66.0469L15.8242 66C15.8398 65.7734 15.8516 65.5508 15.8594 65.332C15.8672 65.1133 15.8711 64.8945 15.8711 64.6758C15.5195 65.0508 15.1484 65.3438 14.7578 65.5547C14.3672 65.7656 13.9961 65.9258 13.6445 66.0352C13.2383 66.168 12.8359 66.2539 12.4375 66.293C12.3516 66.3086 12.2695 66.3164 12.1914 66.3164C12.1211 66.3164 12.043 66.3164 11.957 66.3164C11.4102 66.3164 10.8867 66.2383 10.3867 66.082C9.88672 65.9336 9.44141 65.7031 9.05078 65.3906C8.66797 65.0781 8.35938 64.6875 8.125 64.2188C7.89844 63.7422 7.78516 63.1836 7.78516 62.543C7.78516 61.9805 7.89453 61.4531 8.11328 60.9609C8.33984 60.4609 8.65234 60.0273 9.05078 59.6602C9.45703 59.2852 9.94531 58.9883 10.5156 58.7695C11.0859 58.5508 11.7188 58.4336 12.4141 58.418C12.4375 58.418 12.5703 58.4258 12.8125 58.4414C13.0547 58.457 13.3477 58.5078 13.6914 58.5938C14.043 58.6719 14.418 58.8008 14.8164 58.9805C15.2227 59.1523 15.5977 59.3945 15.9414 59.707C15.9414 59.3555 15.9336 58.9844 15.918 58.5938C15.9023 58.2031 15.8633 57.8203 15.8008 57.4453C15.7461 57.0625 15.6562 56.6992 15.5312 56.3555C15.4062 56.0117 15.2344 55.7109 15.0156 55.4531C14.8047 55.1875 14.5352 54.9805 14.207 54.832C13.8789 54.6758 13.4805 54.5977 13.0117 54.5977C12.6445 54.5977 12.3086 54.668 12.0039 54.8086C11.6992 54.9492 11.4297 55.1406 11.1953 55.3828C10.9609 55.625 10.7656 55.9141 10.6094 56.25C10.4531 56.5781 10.3359 56.9336 10.2578 57.3164L8.28906 56.6836C8.38281 56.2383 8.51562 55.8438 8.6875 55.5C8.86719 55.1562 9.06641 54.8555 9.28516 54.5977C9.51172 54.3398 9.75 54.1211 10 53.9414C10.2578 53.7539 10.5117 53.5977 10.7617 53.4727C11.3477 53.1836 11.9805 53.0078 12.6602 52.9453C13.5977 52.9453 14.3906 53.0859 15.0391 53.3672C15.6875 53.6484 16.2109 54.0625 16.6094 54.6094C17.0156 55.1562 17.3047 55.832 17.4766 56.6367C17.6562 57.4414 17.7461 58.3711 17.7461 59.4258ZM15.918 62.6836C15.918 62.5273 15.9219 62.375 15.9297 62.2266C15.9375 62.0703 15.9414 61.9219 15.9414 61.7812C15.5273 61.3594 15.1172 61.0391 14.7109 60.8203C14.3125 60.6016 13.9492 60.4375 13.6211 60.3281C13.2461 60.2031 12.8828 60.1328 12.5312 60.1172C12.0469 60.1172 11.6289 60.1875 11.2773 60.3281C10.9336 60.4609 10.6484 60.6406 10.4219 60.8672C10.2031 61.0938 10.0391 61.3516 9.92969 61.6406C9.82812 61.9297 9.77734 62.2305 9.77734 62.543C9.77734 62.8633 9.83594 63.1523 9.95312 63.4102C10.0703 63.668 10.2344 63.8867 10.4453 64.0664C10.6641 64.2461 10.9258 64.3867 11.2305 64.4883C11.543 64.582 11.8906 64.6289 12.2734 64.6289C12.6484 64.5977 13.0391 64.5117 13.4453 64.3711C13.7969 64.2461 14.1836 64.0547 14.6055 63.7969C15.0352 63.5312 15.4727 63.1602 15.918 62.6836ZM22.5273 50.1797C22.5273 50.375 22.4883 50.5586 22.4102 50.7305C22.3398 50.8945 22.2422 51.0391 22.1172 51.1641C21.9922 51.2812 21.8438 51.375 21.6719 51.4453C21.5078 51.5156 21.332 51.5508 21.1445 51.5508C20.957 51.5508 20.7773 51.5156 20.6055 51.4453C20.4414 51.375 20.2969 51.2812 20.1719 51.1641C20.0547 51.0391 19.957 50.8945 19.8789 50.7305C19.8086 50.5586 19.7734 50.375 19.7734 50.1797C19.7734 49.9922 19.8086 49.8164 19.8789 49.6523C19.957 49.4805 20.0547 49.3359 20.1719 49.2188C20.2969 49.0938 20.4414 48.9961 20.6055 48.9258C20.7773 48.8555 20.957 48.8203 21.1445 48.8203C21.332 48.8203 21.5078 48.8555 21.6719 48.9258C21.8438 48.9961 21.9922 49.0938 22.1172 49.2188C22.2422 49.3359 22.3398 49.4805 22.4102 49.6523C22.4883 49.8164 22.5273 49.9922 22.5273 50.1797ZM22.082 54L21.8828 65.707H20.2773L20.1133 53.8594L22.082 54ZM26.7812 49.4648L26.5469 65.9297H25.1523L24.918 49.3242L26.7812 49.4648ZM32.1367 50.1797C32.1367 50.375 32.0977 50.5586 32.0195 50.7305C31.9492 50.8945 31.8516 51.0391 31.7266 51.1641C31.6016 51.2812 31.4531 51.375 31.2812 51.4453C31.1172 51.5156 30.9414 51.5508 30.7539 51.5508C30.5664 51.5508 30.3867 51.5156 30.2148 51.4453C30.0508 51.375 29.9062 51.2812 29.7812 51.1641C29.6641 51.0391 29.5664 50.8945 29.4883 50.7305C29.418 50.5586 29.3828 50.375 29.3828 50.1797C29.3828 49.9922 29.418 49.8164 29.4883 49.6523C29.5664 49.4805 29.6641 49.3359 29.7812 49.2188C29.9062 49.0938 30.0508 48.9961 30.2148 48.9258C30.3867 48.8555 30.5664 48.8203 30.7539 48.8203C30.9414 48.8203 31.1172 48.8555 31.2812 48.9258C31.4531 48.9961 31.6016 49.0938 31.7266 49.2188C31.8516 49.3359 31.9492 49.4805 32.0195 49.6523C32.0977 49.8164 32.1367 49.9922 32.1367 50.1797ZM31.6914 54L31.4922 65.707H29.8867L29.7227 53.8594L31.6914 54ZM35.6523 59.1094C35.6367 59.1953 35.6328 59.2812 35.6406 59.3672C35.6484 59.4453 35.6523 59.5273 35.6523 59.6133C35.6523 60.3945 35.7305 61.0547 35.8867 61.5938C36.043 62.125 36.2383 62.5664 36.4727 62.918C36.7148 63.2695 36.9766 63.5391 37.2578 63.7266C37.5469 63.9141 37.8164 64.0547 38.0664 64.1484C38.3164 64.2344 38.5312 64.2852 38.7109 64.3008C38.8906 64.3164 39 64.3242 39.0391 64.3242C39.0312 64.3242 39.0859 64.3203 39.2031 64.3125C39.3203 64.2969 39.4727 64.2656 39.6602 64.2188C39.8555 64.1641 40.0742 64.082 40.3164 63.9727C40.5586 63.8633 40.7969 63.7109 41.0312 63.5156C41.2734 63.3125 41.5 63.0625 41.7109 62.7656C41.9219 62.4609 42.0938 62.0898 42.2266 61.6523L43.668 62.0625C43.5508 62.5469 43.3945 62.9766 43.1992 63.3516C43.0039 63.7266 42.7852 64.0547 42.543 64.3359C42.3086 64.6172 42.0547 64.8594 41.7812 65.0625C41.5156 65.2578 41.2539 65.418 40.9961 65.543C40.3867 65.8555 39.7344 66.0391 39.0391 66.0938C38.3516 66.0938 37.7422 65.9922 37.2109 65.7891C36.6875 65.5781 36.2344 65.2969 35.8516 64.9453C35.4688 64.5938 35.1484 64.1914 34.8906 63.7383C34.6328 63.2852 34.4258 62.8125 34.2695 62.3203C34.1211 61.8203 34.0117 61.3242 33.9414 60.832C33.8789 60.332 33.8477 59.8633 33.8477 59.4258C33.8477 59.0195 33.8711 58.5742 33.918 58.0898C33.9648 57.6055 34.0547 57.1172 34.1875 56.625C34.3203 56.1328 34.5078 55.6562 34.75 55.1953C34.9922 54.7344 35.3086 54.3242 35.6992 53.9648C36.0898 53.6055 36.5625 53.3203 37.1172 53.1094C37.6797 52.8906 38.3438 52.7812 39.1094 52.7812C39.2422 52.7812 39.457 52.7969 39.7539 52.8281C40.0586 52.8516 40.3984 52.9297 40.7734 53.0625C41.1484 53.1875 41.5352 53.3828 41.9336 53.6484C42.332 53.9062 42.6953 54.2695 43.0234 54.7383C43.3594 55.207 43.6328 55.7969 43.8438 56.5078C44.0625 57.2188 44.1719 58.0859 44.1719 59.1094H35.6523ZM39.0391 54.5742C38.5 54.6133 38.0039 54.7422 37.5508 54.9609C37.3555 55.0547 37.1602 55.1758 36.9648 55.3242C36.7773 55.4648 36.6016 55.6406 36.4375 55.8516C36.2734 56.0547 36.1289 56.2969 36.0039 56.5781C35.8789 56.8594 35.793 57.1836 35.7461 57.5508H42.1797C42.1328 57.0898 42.0078 56.6758 41.8047 56.3086C41.6016 55.9414 41.3516 55.6289 41.0547 55.3711C40.7656 55.1133 40.4414 54.918 40.082 54.7852C39.7305 54.6445 39.3828 54.5742 39.0391 54.5742ZM54.5312 53.9531L54.2852 66.0938H52.832L52.6797 62.0156C52.5078 62.5312 52.3203 62.9883 52.1172 63.3867C51.9219 63.7773 51.7188 64.1211 51.5078 64.418C51.3047 64.707 51.0977 64.957 50.8867 65.168C50.6836 65.3711 50.4844 65.543 50.2891 65.6836C49.8359 66.0039 49.3789 66.1992 48.918 66.2695C48.3008 66.2695 47.7812 66.1289 47.3594 65.8477C46.9453 65.5664 46.6094 65.1445 46.3516 64.582C46.1016 64.0195 45.9219 63.3203 45.8125 62.4844C45.7031 61.6484 45.6484 60.6758 45.6484 59.5664C45.6484 58.7148 45.6758 57.8008 45.7305 56.8242C45.7852 55.8398 45.8633 54.7773 45.9648 53.6367L48.0977 53.8125C47.8945 55.1797 47.7461 56.375 47.6523 57.3984C47.5664 58.4219 47.5234 59.3125 47.5234 60.0703C47.5234 60.7969 47.5547 61.4141 47.6172 61.9219C47.6797 62.4219 47.7578 62.8359 47.8516 63.1641C47.9453 63.4844 48.0469 63.7344 48.1562 63.9141C48.2734 64.0938 48.3867 64.2266 48.4961 64.3125C48.6055 64.3984 48.7031 64.4492 48.7891 64.4648C48.8828 64.4805 48.9492 64.4883 48.9883 64.4883C49.2852 64.4883 49.5703 64.3594 49.8438 64.1016C50.1172 63.8438 50.375 63.5 50.6172 63.0703C50.8594 62.6406 51.082 62.1445 51.2852 61.582C51.4961 61.0195 51.6875 60.4375 51.8594 59.8359C52.0312 59.2266 52.1836 58.6172 52.3164 58.0078C52.457 57.3906 52.5742 56.8164 52.668 56.2852C52.7617 55.7539 52.8359 55.2852 52.8906 54.8789C52.9453 54.4648 52.9805 54.1562 52.9961 53.9531H54.5312ZM60.2734 49.0781L60.2266 52.9688H62.5586V54.457H60.2031L60.0391 65.9531H58.5977L58.5039 54.457H55.8672V52.9688H58.5039L58.4805 48.9609L60.2734 49.0781ZM70.9727 65.8594C70.9102 64.6719 70.8477 63.6172 70.7852 62.6953C70.7305 61.7656 70.6797 60.9805 70.6328 60.3398C70.5781 59.5898 70.5234 58.9336 70.4688 58.3711C70.3984 57.4258 70.2773 56.7148 70.1055 56.2383C69.9336 55.7539 69.7109 55.5117 69.4375 55.5117C69.1797 55.5117 68.9102 55.6797 68.6289 56.0156C68.3555 56.3516 68.082 56.7969 67.8086 57.3516C67.5352 57.9062 67.2695 58.543 67.0117 59.2617C66.7617 59.9727 66.5312 60.707 66.3203 61.4648C66.1172 62.2227 65.9375 62.9688 65.7812 63.7031C65.625 64.4375 65.5078 65.1055 65.4297 65.707L63.8711 65.7656C63.8711 62.9844 63.8516 60.5508 63.8125 58.4648C63.7812 56.3789 63.7461 54.6406 63.707 53.25C63.668 51.8594 63.6289 50.8164 63.5898 50.1211C63.5586 49.4258 63.5391 49.0781 63.5312 49.0781L65.5469 49.1719V58.9453C65.7188 58.4688 65.8867 58.0508 66.0508 57.6914C66.2148 57.332 66.3594 57.0312 66.4844 56.7891C66.625 56.5078 66.7617 56.2656 66.8945 56.0625C67.1289 55.6875 67.375 55.3516 67.6328 55.0547C67.8906 54.7578 68.1523 54.5078 68.418 54.3047C68.6914 54.0938 68.957 53.9336 69.2148 53.8242C69.4805 53.7148 69.7383 53.6602 69.9883 53.6602C70.4805 53.6602 70.8828 53.8906 71.1953 54.3516C71.5078 54.8047 71.7383 55.5273 71.8867 56.5195C72.0117 57.3164 72.1211 58.1992 72.2148 59.168C72.3008 59.9961 72.3789 60.9727 72.4492 62.0977C72.5195 63.2227 72.5625 64.4453 72.5781 65.7656L70.9727 65.8594ZM83.8164 59.4258C83.8008 60.2148 83.7773 61 83.7461 61.7812C83.7305 62.1172 83.7148 62.4688 83.6992 62.8359C83.6836 63.2031 83.6641 63.5742 83.6406 63.9492C83.625 64.3164 83.6016 64.6797 83.5703 65.0391C83.5469 65.3984 83.5234 65.7344 83.5 66.0469L81.8945 66C81.9102 65.7734 81.9219 65.5508 81.9297 65.332C81.9375 65.1133 81.9414 64.8945 81.9414 64.6758C81.5898 65.0508 81.2188 65.3438 80.8281 65.5547C80.4375 65.7656 80.0664 65.9258 79.7148 66.0352C79.3086 66.168 78.9062 66.2539 78.5078 66.293C78.4219 66.3086 78.3398 66.3164 78.2617 66.3164C78.1914 66.3164 78.1133 66.3164 78.0273 66.3164C77.4805 66.3164 76.957 66.2383 76.457 66.082C75.957 65.9336 75.5117 65.7031 75.1211 65.3906C74.7383 65.0781 74.4297 64.6875 74.1953 64.2188C73.9688 63.7422 73.8555 63.1836 73.8555 62.543C73.8555 61.9805 73.9648 61.4531 74.1836 60.9609C74.4102 60.4609 74.7227 60.0273 75.1211 59.6602C75.5273 59.2852 76.0156 58.9883 76.5859 58.7695C77.1562 58.5508 77.7891 58.4336 78.4844 58.418C78.5078 58.418 78.6406 58.4258 78.8828 58.4414C79.125 58.457 79.418 58.5078 79.7617 58.5938C80.1133 58.6719 80.4883 58.8008 80.8867 58.9805C81.293 59.1523 81.668 59.3945 82.0117 59.707C82.0117 59.3555 82.0039 58.9844 81.9883 58.5938C81.9727 58.2031 81.9336 57.8203 81.8711 57.4453C81.8164 57.0625 81.7266 56.6992 81.6016 56.3555C81.4766 56.0117 81.3047 55.7109 81.0859 55.4531C80.875 55.1875 80.6055 54.9805 80.2773 54.832C79.9492 54.6758 79.5508 54.5977 79.082 54.5977C78.7148 54.5977 78.3789 54.668 78.0742 54.8086C77.7695 54.9492 77.5 55.1406 77.2656 55.3828C77.0312 55.625 76.8359 55.9141 76.6797 56.25C76.5234 56.5781 76.4062 56.9336 76.3281 57.3164L74.3594 56.6836C74.4531 56.2383 74.5859 55.8438 74.7578 55.5C74.9375 55.1562 75.1367 54.8555 75.3555 54.5977C75.582 54.3398 75.8203 54.1211 76.0703 53.9414C76.3281 53.7539 76.582 53.5977 76.832 53.4727C77.418 53.1836 78.0508 53.0078 78.7305 52.9453C79.668 52.9453 80.4609 53.0859 81.1094 53.3672C81.7578 53.6484 82.2812 54.0625 82.6797 54.6094C83.0859 55.1562 83.375 55.832 83.5469 56.6367C83.7266 57.4414 83.8164 58.3711 83.8164 59.4258ZM81.9883 62.6836C81.9883 62.5273 81.9922 62.375 82 62.2266C82.0078 62.0703 82.0117 61.9219 82.0117 61.7812C81.5977 61.3594 81.1875 61.0391 80.7812 60.8203C80.3828 60.6016 80.0195 60.4375 79.6914 60.3281C79.3164 60.2031 78.9531 60.1328 78.6016 60.1172C78.1172 60.1172 77.6992 60.1875 77.3477 60.3281C77.0039 60.4609 76.7188 60.6406 76.4922 60.8672C76.2734 61.0938 76.1094 61.3516 76 61.6406C75.8984 61.9297 75.8477 62.2305 75.8477 62.543C75.8477 62.8633 75.9062 63.1523 76.0234 63.4102C76.1406 63.668 76.3047 63.8867 76.5156 64.0664C76.7344 64.2461 76.9961 64.3867 77.3008 64.4883C77.6133 64.582 77.9609 64.6289 78.3438 64.6289C78.7188 64.5977 79.1094 64.5117 79.5156 64.3711C79.8672 64.2461 80.2539 64.0547 80.6758 63.7969C81.1055 63.5312 81.543 63.1602 81.9883 62.6836ZM95.0781 53.707C95.0312 54.2539 94.9844 54.8477 94.9375 55.4883C94.8906 56.1211 94.8477 56.7695 94.8086 57.4336C94.7773 58.0977 94.7461 58.7656 94.7148 59.4375C94.6836 60.1094 94.6562 60.7539 94.6328 61.3711C94.5703 62.8242 94.5195 64.2891 94.4805 65.7656C94.4414 66.5781 94.3164 67.3281 94.1055 68.0156C93.9023 68.7031 93.6055 69.2969 93.2148 69.7969C92.832 70.2969 92.3555 70.6875 91.7852 70.9688C91.2148 71.2578 90.5469 71.4023 89.7812 71.4023C89.2891 71.3867 88.8086 71.3242 88.3398 71.2148C88.1367 71.168 87.9297 71.1055 87.7188 71.0273C87.5078 70.957 87.2969 70.8672 87.0859 70.7578C86.8828 70.6562 86.6836 70.5312 86.4883 70.3828C86.3008 70.2422 86.1328 70.0781 85.9844 69.8906L86.8984 68.5664C87.1562 68.8633 87.4336 69.0938 87.7305 69.2578C88.0273 69.4219 88.3086 69.543 88.5742 69.6211C88.8477 69.6992 89.0898 69.7461 89.3008 69.7617C89.5117 69.7852 89.6562 69.7969 89.7344 69.7969C90.2422 69.7969 90.6758 69.6953 91.0352 69.4922C91.4023 69.2969 91.707 69.0234 91.9492 68.6719C92.1914 68.3281 92.3828 67.9141 92.5234 67.4297C92.6641 66.9531 92.7695 66.4375 92.8398 65.8828C92.918 65.3203 92.9648 64.7305 92.9805 64.1133C93.0039 63.4883 93.0156 62.8594 93.0156 62.2266V62.0859C92.7812 62.8047 92.5234 63.4141 92.2422 63.9141C91.9688 64.4062 91.6914 64.8164 91.4102 65.1445C91.1289 65.4727 90.8555 65.7305 90.5898 65.918C90.3242 66.0977 90.0859 66.2305 89.875 66.3164C89.6641 66.4023 89.4844 66.4531 89.3359 66.4688C89.1953 66.4922 89.1094 66.5039 89.0781 66.5039C88.4922 66.5039 88 66.3398 87.6016 66.0117C87.2031 65.6914 86.8828 65.2266 86.6406 64.6172C86.3984 64.0078 86.2227 63.2656 86.1133 62.3906C86.0117 61.5156 85.9609 60.5273 85.9609 59.4258C85.9609 58.543 85.9883 57.6016 86.043 56.6016C86.0977 55.6016 86.1758 54.5352 86.2773 53.4023L88.4102 53.5664C88.207 54.9492 88.0586 56.1602 87.9648 57.1992C87.8789 58.2305 87.8359 59.1328 87.8359 59.9062C87.8359 60.6875 87.8672 61.3477 87.9297 61.8867C88 62.4258 88.0859 62.875 88.1875 63.2344C88.2891 63.5938 88.3984 63.875 88.5156 64.0781C88.6406 64.2734 88.7578 64.4219 88.8672 64.5234C88.9766 64.6172 89.0742 64.6758 89.1602 64.6992C89.2461 64.7148 89.3008 64.7227 89.3242 64.7227C89.6211 64.7227 89.9023 64.5859 90.168 64.3125C90.4414 64.0391 90.6953 63.6758 90.9297 63.2227C91.1719 62.7695 91.3945 62.25 91.5977 61.6641C91.8086 61.0703 92 60.4531 92.1719 59.8125C92.3438 59.1719 92.4961 58.5312 92.6289 57.8906C92.7695 57.25 92.8867 56.6523 92.9805 56.0977C93.0742 55.543 93.1484 55.0586 93.2031 54.6445C93.2578 54.2227 93.293 53.9102 93.3086 53.707H95.0781ZM104.488 66.0469C104.426 64.8594 104.363 63.793 104.301 62.8477C104.246 61.8945 104.195 61.082 104.148 60.4102C104.094 59.6289 104.039 58.9336 103.984 58.3242C103.922 57.3789 103.801 56.668 103.621 56.1914C103.449 55.707 103.227 55.4648 102.953 55.4648C102.68 55.4648 102.402 55.6367 102.121 55.9805C101.84 56.3242 101.562 56.7812 101.289 57.3516C101.016 57.9219 100.754 58.5742 100.504 59.3086C100.262 60.0352 100.035 60.7852 99.8242 61.5586C99.6211 62.332 99.4414 63.0977 99.2852 63.8555C99.1367 64.6133 99.0234 65.2969 98.9453 65.9062L97.3398 65.9531C97.3867 64.6562 97.4102 63.4258 97.4102 62.2617C97.4102 61.043 97.3906 59.9297 97.3516 58.9219C97.3125 57.9062 97.2695 57.0312 97.2227 56.2969C97.168 55.4375 97.1094 54.6641 97.0469 53.9766L99.3086 54.0703V58.7812C99.4883 58.2656 99.6484 57.832 99.7891 57.4805C99.9297 57.1289 100.047 56.8438 100.141 56.625C100.25 56.3672 100.34 56.1641 100.41 56.0156C100.613 55.6328 100.836 55.293 101.078 54.9961C101.32 54.6914 101.57 54.4375 101.828 54.2344C102.094 54.0234 102.359 53.8633 102.625 53.7539C102.898 53.6445 103.16 53.5898 103.41 53.5898C103.66 53.5898 103.895 53.6445 104.113 53.7539C104.332 53.8633 104.523 54.0352 104.688 54.2695C104.859 54.5039 105.004 54.8047 105.121 55.1719C105.246 55.5312 105.34 55.9648 105.402 56.4727C105.527 57.3164 105.637 58.2383 105.73 59.2383C105.816 60.0977 105.895 61.1016 105.965 62.25C106.035 63.3984 106.078 64.6328 106.094 65.9531L104.488 66.0469ZM116.055 54.1172C116.398 54.4688 116.68 54.8633 116.898 55.3008C117.117 55.7305 117.289 56.1758 117.414 56.6367C117.539 57.0977 117.625 57.5586 117.672 58.0195C117.719 58.4805 117.742 58.9102 117.742 59.3086C117.734 60.1445 117.652 60.8984 117.496 61.5703C117.348 62.2344 117.148 62.8281 116.898 63.3516C116.648 63.8672 116.359 64.3125 116.031 64.6875C115.703 65.0625 115.355 65.3711 114.988 65.6133C114.629 65.8555 114.258 66.0312 113.875 66.1406C113.5 66.2578 113.141 66.3164 112.797 66.3164C112.508 66.3164 112.23 66.293 111.965 66.2461C111.707 66.1992 111.465 66.1406 111.238 66.0703C111.035 66.2188 110.852 66.3789 110.688 66.5508C110.531 66.7227 110.395 66.8945 110.277 67.0664C110.16 67.2461 110.07 67.4219 110.008 67.5938C109.945 67.7656 109.914 67.9297 109.914 68.0859C109.914 68.3516 109.988 68.5547 110.137 68.6953C110.293 68.8359 110.441 68.9062 110.582 68.9062C110.785 68.9062 110.992 68.8477 111.203 68.7305C111.414 68.6211 111.633 68.4805 111.859 68.3086C112.094 68.1367 112.336 67.9492 112.586 67.7461C112.844 67.5508 113.109 67.3672 113.383 67.1953C113.664 67.0234 113.961 66.8789 114.273 66.7617C114.586 66.6523 114.918 66.5977 115.27 66.5977C115.582 66.5977 115.883 66.6406 116.172 66.7266C116.461 66.8125 116.727 66.9375 116.969 67.1016C117.219 67.2734 117.434 67.4844 117.613 67.7344C117.793 67.9844 117.93 68.2773 118.023 68.6133C118.062 68.7461 118.086 68.875 118.094 69C118.109 69.125 118.117 69.2539 118.117 69.3867C118.117 70.043 117.965 70.625 117.66 71.1328C117.363 71.6406 116.961 72.0664 116.453 72.4102C115.945 72.7617 115.352 73.0234 114.672 73.1953C114 73.375 113.285 73.4648 112.527 73.4648C112.238 73.4648 111.945 73.4453 111.648 73.4062C111.359 73.375 111.07 73.3203 110.781 73.2422L110.992 72.1875C111.148 72.2266 111.301 72.2539 111.449 72.2695C111.605 72.2852 111.758 72.293 111.906 72.293C112.281 72.293 112.629 72.2578 112.949 72.1875C113.27 72.125 113.547 72.0508 113.781 71.9648C114.055 71.8711 114.309 71.7617 114.543 71.6367C115.176 71.2852 115.625 70.9453 115.891 70.6172C116.164 70.2891 116.301 69.9648 116.301 69.6445C116.301 69.4805 116.27 69.3242 116.207 69.1758C116.152 69.0352 116.074 68.9062 115.973 68.7891C115.871 68.6797 115.75 68.5898 115.609 68.5195C115.469 68.457 115.312 68.4258 115.141 68.4258C114.867 68.4258 114.551 68.5117 114.191 68.6836C113.832 68.8633 113.43 69.1523 112.984 69.5508C112.609 69.8789 112.219 70.1211 111.812 70.2773C111.406 70.4336 110.996 70.5117 110.582 70.5117C110.309 70.5117 110.031 70.4688 109.75 70.3828C109.477 70.3047 109.227 70.1875 109 70.0312C108.781 69.875 108.598 69.6758 108.449 69.4336C108.309 69.1992 108.238 68.9258 108.238 68.6133C108.238 68.3711 108.277 68.1133 108.355 67.8398C108.434 67.5742 108.551 67.3047 108.707 67.0312C108.863 66.7656 109.055 66.5039 109.281 66.2461C109.516 65.9883 109.781 65.7461 110.078 65.5195C109.609 65.1836 109.219 64.7734 108.906 64.2891C108.594 63.7969 108.34 63.2695 108.145 62.707C107.949 62.1445 107.809 61.5664 107.723 60.9727C107.645 60.3711 107.605 59.7891 107.605 59.2266C107.605 58.1172 107.73 57.1602 107.98 56.3555C108.238 55.5508 108.586 54.8867 109.023 54.3633C109.469 53.8398 109.988 53.4531 110.582 53.2031C111.184 52.9531 111.832 52.8281 112.527 52.8281C112.949 52.8281 113.34 52.8633 113.699 52.9336C114.059 52.9961 114.391 53.0859 114.695 53.2031L115.844 50.2852L117.543 51.4805L116.055 54.1172ZM116.055 59.2852C116.055 59.043 116.043 58.7695 116.02 58.4648C116.004 58.1602 115.961 57.8477 115.891 57.5273C115.828 57.207 115.734 56.8906 115.609 56.5781C115.492 56.2578 115.336 55.9648 115.141 55.6992L114.086 57.5742L113.172 57.0703L114.062 54.7969C113.859 54.7109 113.637 54.6406 113.395 54.5859C113.152 54.5312 112.887 54.5039 112.598 54.5039C111.457 54.5508 110.621 54.9766 110.09 55.7812C109.559 56.5859 109.293 57.7266 109.293 59.2031C109.293 60.2188 109.387 61.0742 109.574 61.7695C109.77 62.4648 110.02 63.0273 110.324 63.457C110.629 63.8789 110.969 64.1836 111.344 64.3711C111.727 64.5586 112.105 64.6523 112.48 64.6523C112.879 64.6523 113.285 64.5547 113.699 64.3594C114.121 64.1562 114.504 63.8398 114.848 63.4102C115.199 62.9727 115.484 62.418 115.703 61.7461C115.93 61.0664 116.047 60.2461 116.055 59.2852ZM126.895 65.8594C126.832 64.6719 126.77 63.6172 126.707 62.6953C126.652 61.7656 126.602 60.9805 126.555 60.3398C126.5 59.5898 126.445 58.9336 126.391 58.3711C126.32 57.4258 126.199 56.7148 126.027 56.2383C125.855 55.7539 125.633 55.5117 125.359 55.5117C125.102 55.5117 124.832 55.6797 124.551 56.0156C124.277 56.3516 124.004 56.7969 123.73 57.3516C123.457 57.9062 123.191 58.543 122.934 59.2617C122.684 59.9727 122.453 60.707 122.242 61.4648C122.039 62.2227 121.859 62.9688 121.703 63.7031C121.547 64.4375 121.43 65.1055 121.352 65.707L119.793 65.7656C119.793 62.9844 119.773 60.5508 119.734 58.4648C119.703 56.3789 119.668 54.6406 119.629 53.25C119.59 51.8594 119.551 50.8164 119.512 50.1211C119.48 49.4258 119.461 49.0781 119.453 49.0781L121.469 49.1719V58.9453C121.641 58.4688 121.809 58.0508 121.973 57.6914C122.137 57.332 122.281 57.0312 122.406 56.7891C122.547 56.5078 122.684 56.2656 122.816 56.0625C123.051 55.6875 123.297 55.3516 123.555 55.0547C123.812 54.7578 124.074 54.5078 124.34 54.3047C124.613 54.0938 124.879 53.9336 125.137 53.8242C125.402 53.7148 125.66 53.6602 125.91 53.6602C126.402 53.6602 126.805 53.8906 127.117 54.3516C127.43 54.8047 127.66 55.5273 127.809 56.5195C127.934 57.3164 128.043 58.1992 128.137 59.168C128.223 59.9961 128.301 60.9727 128.371 62.0977C128.441 63.2227 128.484 64.4453 128.5 65.7656L126.895 65.8594ZM133.082 50.1797C133.082 50.375 133.043 50.5586 132.965 50.7305C132.895 50.8945 132.797 51.0391 132.672 51.1641C132.547 51.2812 132.398 51.375 132.227 51.4453C132.062 51.5156 131.887 51.5508 131.699 51.5508C131.512 51.5508 131.332 51.5156 131.16 51.4453C130.996 51.375 130.852 51.2812 130.727 51.1641C130.609 51.0391 130.512 50.8945 130.434 50.7305C130.363 50.5586 130.328 50.375 130.328 50.1797C130.328 49.9922 130.363 49.8164 130.434 49.6523C130.512 49.4805 130.609 49.3359 130.727 49.2188C130.852 49.0938 130.996 48.9961 131.16 48.9258C131.332 48.8555 131.512 48.8203 131.699 48.8203C131.887 48.8203 132.062 48.8555 132.227 48.9258C132.398 48.9961 132.547 49.0938 132.672 49.2188C132.797 49.3359 132.895 49.4805 132.965 49.6523C133.043 49.8164 133.082 49.9922 133.082 50.1797ZM132.637 54L132.438 65.707H130.832L130.668 53.8594L132.637 54ZM144.543 59.4258C144.527 60.2148 144.504 61 144.473 61.7812C144.457 62.1172 144.441 62.4688 144.426 62.8359C144.41 63.2031 144.391 63.5742 144.367 63.9492C144.352 64.3164 144.328 64.6797 144.297 65.0391C144.273 65.3984 144.25 65.7344 144.227 66.0469L142.621 66C142.637 65.7734 142.648 65.5508 142.656 65.332C142.664 65.1133 142.668 64.8945 142.668 64.6758C142.316 65.0508 141.945 65.3438 141.555 65.5547C141.164 65.7656 140.793 65.9258 140.441 66.0352C140.035 66.168 139.633 66.2539 139.234 66.293C139.148 66.3086 139.066 66.3164 138.988 66.3164C138.918 66.3164 138.84 66.3164 138.754 66.3164C138.207 66.3164 137.684 66.2383 137.184 66.082C136.684 65.9336 136.238 65.7031 135.848 65.3906C135.465 65.0781 135.156 64.6875 134.922 64.2188C134.695 63.7422 134.582 63.1836 134.582 62.543C134.582 61.9805 134.691 61.4531 134.91 60.9609C135.137 60.4609 135.449 60.0273 135.848 59.6602C136.254 59.2852 136.742 58.9883 137.312 58.7695C137.883 58.5508 138.516 58.4336 139.211 58.418C139.234 58.418 139.367 58.4258 139.609 58.4414C139.852 58.457 140.145 58.5078 140.488 58.5938C140.84 58.6719 141.215 58.8008 141.613 58.9805C142.02 59.1523 142.395 59.3945 142.738 59.707C142.738 59.3555 142.73 58.9844 142.715 58.5938C142.699 58.2031 142.66 57.8203 142.598 57.4453C142.543 57.0625 142.453 56.6992 142.328 56.3555C142.203 56.0117 142.031 55.7109 141.812 55.4531C141.602 55.1875 141.332 54.9805 141.004 54.832C140.676 54.6758 140.277 54.5977 139.809 54.5977C139.441 54.5977 139.105 54.668 138.801 54.8086C138.496 54.9492 138.227 55.1406 137.992 55.3828C137.758 55.625 137.562 55.9141 137.406 56.25C137.25 56.5781 137.133 56.9336 137.055 57.3164L135.086 56.6836C135.18 56.2383 135.312 55.8438 135.484 55.5C135.664 55.1562 135.863 54.8555 136.082 54.5977C136.309 54.3398 136.547 54.1211 136.797 53.9414C137.055 53.7539 137.309 53.5977 137.559 53.4727C138.145 53.1836 138.777 53.0078 139.457 52.9453C140.395 52.9453 141.188 53.0859 141.836 53.3672C142.484 53.6484 143.008 54.0625 143.406 54.6094C143.812 55.1562 144.102 55.832 144.273 56.6367C144.453 57.4414 144.543 58.3711 144.543 59.4258ZM142.715 62.6836C142.715 62.5273 142.719 62.375 142.727 62.2266C142.734 62.0703 142.738 61.9219 142.738 61.7812C142.324 61.3594 141.914 61.0391 141.508 60.8203C141.109 60.6016 140.746 60.4375 140.418 60.3281C140.043 60.2031 139.68 60.1328 139.328 60.1172C138.844 60.1172 138.426 60.1875 138.074 60.3281C137.73 60.4609 137.445 60.6406 137.219 60.8672C137 61.0938 136.836 61.3516 136.727 61.6406C136.625 61.9297 136.574 62.2305 136.574 62.543C136.574 62.8633 136.633 63.1523 136.75 63.4102C136.867 63.668 137.031 63.8867 137.242 64.0664C137.461 64.2461 137.723 64.3867 138.027 64.4883C138.34 64.582 138.688 64.6289 139.07 64.6289C139.445 64.5977 139.836 64.5117 140.242 64.3711C140.594 64.2461 140.98 64.0547 141.402 63.7969C141.832 63.5312 142.27 63.1602 142.715 62.6836ZM148.375 64.8984C148.375 65.0391 148.348 65.1719 148.293 65.2969C148.238 65.4219 148.16 65.5312 148.059 65.625C147.965 65.7188 147.855 65.793 147.73 65.8477C147.605 65.9023 147.473 65.9297 147.332 65.9297C147.043 65.9297 146.797 65.832 146.594 65.6367C146.398 65.4336 146.301 65.1875 146.301 64.8984C146.301 64.7578 146.328 64.6289 146.383 64.5117C146.438 64.3867 146.512 64.2812 146.605 64.1953C146.699 64.1016 146.809 64.0273 146.934 63.9727C147.059 63.918 147.191 63.8906 147.332 63.8906C147.473 63.8906 147.605 63.918 147.73 63.9727C147.855 64.0273 147.965 64.1016 148.059 64.1953C148.16 64.2812 148.238 64.3867 148.293 64.5117C148.348 64.6289 148.375 64.7578 148.375 64.8984ZM158.102 58.1719C158.07 57.7266 157.996 57.3359 157.879 57C157.762 56.6641 157.617 56.3711 157.445 56.1211C157.281 55.8711 157.094 55.6602 156.883 55.4883C156.68 55.3164 156.473 55.1758 156.262 55.0664C155.77 54.8086 155.215 54.6602 154.598 54.6211C154.137 54.6211 153.738 54.6953 153.402 54.8438C153.066 54.9922 152.781 55.1953 152.547 55.4531C152.32 55.7031 152.137 55.9922 151.996 56.3203C151.855 56.6484 151.746 56.9922 151.668 57.3516C151.59 57.7109 151.539 58.0742 151.516 58.4414C151.492 58.8086 151.48 59.1523 151.48 59.4727C151.48 59.793 151.512 60.1406 151.574 60.5156C151.637 60.8906 151.73 61.2656 151.855 61.6406C151.988 62.0156 152.148 62.3789 152.336 62.7305C152.523 63.0742 152.738 63.3828 152.98 63.6562C153.23 63.9219 153.512 64.1367 153.824 64.3008C154.137 64.457 154.477 64.5352 154.844 64.5352C155.297 64.4961 155.738 64.3672 156.168 64.1484C156.348 64.0547 156.531 63.9414 156.719 63.8086C156.906 63.668 157.09 63.4961 157.27 63.293C157.449 63.0898 157.617 62.8555 157.773 62.5898C157.93 62.3164 158.062 62.0039 158.172 61.6523L159.707 62.4023C159.59 62.8164 159.43 63.1875 159.227 63.5156C159.031 63.8438 158.809 64.1328 158.559 64.3828C158.316 64.625 158.055 64.8359 157.773 65.0156C157.5 65.1953 157.23 65.3477 156.965 65.4727C156.324 65.7617 155.641 65.9531 154.914 66.0469C154.852 66.0469 154.789 66.0508 154.727 66.0586C154.672 66.0664 154.613 66.0703 154.551 66.0703C153.996 66.0703 153.488 65.9805 153.027 65.8008C152.574 65.6133 152.164 65.3594 151.797 65.0391C151.438 64.7188 151.125 64.3398 150.859 63.9023C150.594 63.4648 150.371 62.9922 150.191 62.4844C150.02 61.9688 149.891 61.4336 149.805 60.8789C149.719 60.3242 149.676 59.7656 149.676 59.2031C149.676 58.3672 149.77 57.5703 149.957 56.8125C150.152 56.0547 150.449 55.3906 150.848 54.8203C151.246 54.2422 151.754 53.7852 152.371 53.4492C152.988 53.1133 153.723 52.9453 154.574 52.9453C155.23 52.9453 155.812 53.0273 156.32 53.1914C156.828 53.3477 157.27 53.5586 157.645 53.8242C158.02 54.0898 158.332 54.3906 158.582 54.7266C158.84 55.0625 159.051 55.4102 159.215 55.7695C159.379 56.1211 159.504 56.4688 159.59 56.8125C159.676 57.1484 159.73 57.4492 159.754 57.7148L158.102 58.1719ZM170.793 59.0156C170.793 60.1406 170.66 61.1484 170.395 62.0391C170.137 62.9297 169.781 63.6875 169.328 64.3125C168.883 64.9297 168.355 65.4062 167.746 65.7422C167.137 66.0703 166.488 66.2344 165.801 66.2344C165.105 66.2344 164.453 66.0625 163.844 65.7188C163.234 65.375 162.703 64.8867 162.25 64.2539C161.797 63.6211 161.438 62.8633 161.172 61.9805C160.914 61.0898 160.785 60.1016 160.785 59.0156C160.785 58.0859 160.898 57.2383 161.125 56.4727C161.359 55.6992 161.691 55.0352 162.121 54.4805C162.559 53.9258 163.086 53.4961 163.703 53.1914C164.328 52.8789 165.027 52.7227 165.801 52.7227C166.66 52.7227 167.402 52.8789 168.027 53.1914C168.652 53.4961 169.168 53.9258 169.574 54.4805C169.988 55.0352 170.293 55.6992 170.488 56.4727C170.691 57.2383 170.793 58.0859 170.793 59.0156ZM168.977 59.0391C168.977 58.3359 168.914 57.6953 168.789 57.1172C168.664 56.5391 168.469 56.043 168.203 55.6289C167.945 55.207 167.617 54.8828 167.219 54.6562C166.82 54.4297 166.348 54.3164 165.801 54.3164C165.309 54.3164 164.863 54.4297 164.465 54.6562C164.074 54.8828 163.742 55.207 163.469 55.6289C163.195 56.043 162.984 56.5391 162.836 57.1172C162.688 57.6953 162.613 58.3359 162.613 59.0391C162.613 59.8594 162.695 60.6016 162.859 61.2656C163.031 61.9297 163.258 62.5 163.539 62.9766C163.828 63.4531 164.164 63.8203 164.547 64.0781C164.938 64.3359 165.355 64.4648 165.801 64.4648C166.238 64.4648 166.648 64.3398 167.031 64.0898C167.422 63.8398 167.758 63.4805 168.039 63.0117C168.328 62.543 168.555 61.9766 168.719 61.3125C168.891 60.6406 168.977 59.8828 168.977 59.0391ZM182.617 65.6602C182.711 65.0273 182.789 64.4141 182.852 63.8203C182.914 63.2266 182.961 62.668 182.992 62.1445C183.023 61.6211 183.043 61.1445 183.051 60.7148C183.066 60.2773 183.074 59.9023 183.074 59.5898C183.074 58.4336 182.988 57.5586 182.816 56.9648C182.645 56.3633 182.371 56.0625 181.996 56.0625C181.707 56.0625 181.379 56.2969 181.012 56.7656C180.652 57.2266 180.293 57.9453 179.934 58.9219C179.949 59.1484 179.961 59.3906 179.969 59.6484C179.977 59.8984 179.98 60.168 179.98 60.457C179.98 61.207 179.953 62.0234 179.898 62.9062C179.844 63.7891 179.742 64.7305 179.594 65.7305L177.871 65.8359C177.98 64.7344 178.051 63.7461 178.082 62.8711C178.113 61.9961 178.129 61.2383 178.129 60.5977C178.129 59.6914 178.105 58.9336 178.059 58.3242C178.012 57.7148 177.949 57.2266 177.871 56.8594C177.801 56.4844 177.719 56.2188 177.625 56.0625C177.531 55.9062 177.438 55.8281 177.344 55.8281C177.172 55.8281 176.969 56.0078 176.734 56.3672C176.508 56.7266 176.23 57.2578 175.902 57.9609C175.574 58.6719 175.324 59.3555 175.152 60.0117C174.98 60.668 174.844 61.3125 174.742 61.9453C174.648 62.5781 174.574 63.2031 174.52 63.8203C174.465 64.4375 174.398 65.0586 174.32 65.6836L172.715 65.7305C172.73 65.168 172.738 64.6133 172.738 64.0664C172.738 63.5195 172.738 62.9883 172.738 62.4727C172.738 61.2305 172.727 60.0938 172.703 59.0625C172.68 58.0312 172.656 57.1367 172.633 56.3789C172.602 55.4961 172.57 54.7031 172.539 54L174.672 54.0938V57.8672C174.734 57.6484 174.816 57.3984 174.918 57.1172C175.02 56.8281 175.137 56.5352 175.27 56.2383C175.402 55.9336 175.555 55.6367 175.727 55.3477C175.906 55.0508 176.102 54.7891 176.312 54.5625C176.523 54.3281 176.754 54.1406 177.004 54C177.254 53.8594 177.527 53.7891 177.824 53.7891C178.238 53.7891 178.617 54.0078 178.961 54.4453C179.312 54.875 179.566 55.5352 179.723 56.4258C180.012 55.8789 180.305 55.4531 180.602 55.1484C180.898 54.8438 181.168 54.6211 181.41 54.4805C181.66 54.332 181.867 54.2422 182.031 54.2109C182.195 54.1797 182.297 54.1641 182.336 54.1641C182.656 54.1641 182.965 54.2383 183.262 54.3867C183.559 54.5352 183.82 54.8203 184.047 55.2422C184.281 55.6562 184.465 56.2344 184.598 56.9766C184.738 57.7188 184.809 58.6797 184.809 59.8594C184.809 60.6328 184.777 61.5039 184.715 62.4727C184.652 63.4336 184.555 64.5195 184.422 65.7305L182.617 65.6602Z" fill="black"/>
</svg>
