<svg width="165" height="30" viewBox="0 0 165 30" fill="none" xmlns="http://www.w3.org/2000/svg">
<g clip-path="url(#clip0_912_21)">
<path opacity="0.15" d="M14.6933 25.1025C20.4417 25.1025 25.1015 20.4427 25.1015 14.6943C25.1015 8.94593 20.4417 4.28613 14.6933 4.28613C8.94495 4.28613 4.28516 8.94593 4.28516 14.6943C4.28516 20.4427 8.94495 25.1025 14.6933 25.1025Z" fill="#5E81F4"/>
<path opacity="0.4" d="M6.42969 12.8571C3.8301 12.8559 1.48643 11.2904 0.490919 8.88918C-0.505203 6.48796 0.0427557 3.72245 1.87888 1.88265C4.39031 -0.627551 8.46051 -0.627551 10.9726 1.88265C12.1787 3.08878 12.857 4.72347 12.857 6.42918C12.857 8.1349 12.1793 9.77082 10.9726 10.9763C9.77072 12.1855 8.1348 12.8627 6.42969 12.8571V12.8571ZM23.5738 30C20.5064 30.0012 17.8658 27.8351 17.267 24.8265C16.6683 21.818 18.2785 18.8057 21.1119 17.6327C23.9466 16.459 27.2148 17.4514 28.9181 20.002C30.6207 22.5539 30.2846 25.9531 28.1142 28.1204C26.9117 29.3271 25.2777 30.0037 23.5738 30V30Z" fill="#5E81F4"/>
<path d="M6.41921 29.9873C3.82513 29.9898 1.48574 28.431 0.490847 26.0383C-0.504051 23.6457 0.0414587 20.89 1.8733 19.0557C2.15309 18.7832 2.45738 18.5365 2.78248 18.3185L3.09656 18.1189C3.31697 17.9885 3.54472 17.8704 3.78534 17.7565C3.90779 17.7038 4.03023 17.6463 4.16493 17.5973C4.41472 17.5067 4.67064 17.432 4.93085 17.3738L5.0937 17.3292C5.12187 17.3187 5.15064 17.3108 5.17942 17.3047L6.63105 17.1987C6.8184 17.1987 7.03881 17.2355 7.2384 17.2636H7.98901C10.498 17.2404 12.8931 16.2136 14.638 14.413C16.3933 12.6253 17.3545 10.2081 17.3049 7.70466V7.5663C17.2902 7.48854 17.2823 7.40956 17.2804 7.32997V7.13405L17.2272 6.94732C17.2272 6.83344 17.1984 6.71099 17.1947 6.59283L17.2927 5.24895V5.1914C17.2927 5.15834 17.3539 4.97956 17.3539 4.97956C17.4151 4.70344 17.4947 4.43099 17.5902 4.16528C17.6349 4.04283 17.6919 3.92038 17.7494 3.79793C17.8559 3.55732 17.9784 3.32283 18.1162 3.09752V3.06079C18.1731 2.96772 18.2264 2.87405 18.2913 2.78405C18.5055 2.46201 18.7498 2.16017 19.0211 1.88405C21.5294 -0.626152 25.5996 -0.629826 28.1129 1.87609C30.6255 4.38201 30.6292 8.44793 28.1208 10.9581C27.8423 11.2287 27.5392 11.4724 27.2159 11.6873C27.118 11.7565 27.0323 11.8055 26.9466 11.8587L26.8976 11.8869C26.6613 12.0253 26.4329 12.1477 26.2131 12.2494C26.0827 12.3063 25.9639 12.3632 25.8421 12.4085C25.5849 12.5016 25.3217 12.5794 25.0547 12.6406C24.9984 12.6528 24.9427 12.6675 24.8876 12.6853L24.786 12.7134L23.3631 12.8114C23.1837 12.8114 22.9921 12.7789 22.7925 12.7545H22.0174C16.8176 12.8304 12.6543 17.0861 12.6978 22.281V22.4243C12.7088 22.4953 12.7155 22.5675 12.718 22.6398C12.718 22.7175 12.718 22.7904 12.7382 22.8638C12.759 22.9373 12.7382 23.0022 12.7627 23.0757C12.7768 23.181 12.7853 23.2869 12.7872 23.3934L12.6855 24.7906C12.6776 24.8273 12.6684 24.864 12.6568 24.9008L12.62 25.0269C12.5619 25.303 12.4841 25.5755 12.3874 25.8412C12.3427 25.9636 12.2821 26.0898 12.2245 26.2159C12.1211 26.451 12.0053 26.6812 11.878 26.904C11.8131 27.0179 11.7519 27.1202 11.6821 27.2175C11.4666 27.5438 11.2192 27.8481 10.9443 28.1261C9.74615 29.3279 8.11697 30.0026 6.41921 29.9996V29.9873V29.9873Z" fill="#5E81F4"/>
</g>
<path d="M55.3984 23H51.8828L45.0391 11.7734V23H41.5234V5.9375H45.0391L51.8945 17.1875V5.9375H55.3984V23ZM66.082 23.2344C64.2227 23.2344 62.707 22.6641 61.5352 21.5234C60.3711 20.3828 59.7891 18.8633 59.7891 16.9648V16.6367C59.7891 15.3633 60.0352 14.2266 60.5273 13.2266C61.0195 12.2188 61.7148 11.4453 62.6133 10.9062C63.5195 10.3594 64.5508 10.0859 65.707 10.0859C67.4414 10.0859 68.8047 10.6328 69.7969 11.7266C70.7969 12.8203 71.2969 14.3711 71.2969 16.3789V17.7617H63.2227C63.332 18.5898 63.6602 19.2539 64.207 19.7539C64.7617 20.2539 65.4609 20.5039 66.3047 20.5039C67.6094 20.5039 68.6289 20.0312 69.3633 19.0859L71.0273 20.9492C70.5195 21.668 69.832 22.2305 68.9648 22.6367C68.0977 23.0352 67.1367 23.2344 66.082 23.2344ZM65.6953 12.8281C65.0234 12.8281 64.4766 13.0547 64.0547 13.5078C63.6406 13.9609 63.375 14.6094 63.2578 15.4531H67.9688V15.1836C67.9531 14.4336 67.75 13.8555 67.3594 13.4492C66.9688 13.0352 66.4141 12.8281 65.6953 12.8281ZM80.0586 14.1055L82.1914 10.3203H85.8125L82.2031 16.5312L85.9648 23H82.332L80.0703 19.0156L77.8203 23H74.1758L77.9375 16.5312L74.3398 10.3203H77.9727L80.0586 14.1055ZM93.4961 7.20312V10.3203H95.6641V12.8047H93.4961V19.1328C93.4961 19.6016 93.5859 19.9375 93.7656 20.1406C93.9453 20.3438 94.2891 20.4453 94.7969 20.4453C95.1719 20.4453 95.5039 20.418 95.793 20.3633V22.9297C95.1289 23.1328 94.4453 23.2344 93.7422 23.2344C91.3672 23.2344 90.1562 22.0352 90.1094 19.6367V12.8047H88.2578V10.3203H90.1094V7.20312H93.4961ZM121.145 17.3164C121.012 19.1523 120.332 20.5977 119.105 21.6523C117.887 22.707 116.277 23.2344 114.277 23.2344C112.09 23.2344 110.367 22.5 109.109 21.0312C107.859 19.5547 107.234 17.5312 107.234 14.9609V13.918C107.234 12.2773 107.523 10.832 108.102 9.58203C108.68 8.33203 109.504 7.375 110.574 6.71094C111.652 6.03906 112.902 5.70312 114.324 5.70312C116.293 5.70312 117.879 6.23047 119.082 7.28516C120.285 8.33984 120.98 9.82031 121.168 11.7266H117.652C117.566 10.625 117.258 9.82812 116.727 9.33594C116.203 8.83594 115.402 8.58594 114.324 8.58594C113.152 8.58594 112.273 9.00781 111.688 9.85156C111.109 10.6875 110.812 11.9883 110.797 13.7539V15.043C110.797 16.8867 111.074 18.2344 111.629 19.0859C112.191 19.9375 113.074 20.3633 114.277 20.3633C115.363 20.3633 116.172 20.1172 116.703 19.625C117.242 19.125 117.551 18.3555 117.629 17.3164H121.145ZM131.559 11.8203L134.758 5.9375H138.801L133.832 14.3984L138.93 23H134.84L131.559 17.0234L128.277 23H124.188L129.285 14.3984L124.316 5.9375H128.359L131.559 11.8203ZM147.305 5.9375L151.688 18.3125L156.047 5.9375H160.664V23H157.137V18.3359L157.488 10.2852L152.883 23H150.469L145.875 10.2969L146.227 18.3359V23H142.711V5.9375H147.305Z" fill="#8181A5"/>
<defs>
<clipPath id="clip0_912_21">
<rect width="30" height="30" fill="white"/>
</clipPath>
</defs>
</svg>
